<?xml version="1.0" encoding="utf-8"?>
<!-- Generator: Adobe Illustrator 16.0.0, SVG Export Plug-In . SVG Version: 6.00 Build 0)  -->
<!DOCTYPE svg PUBLIC "-//W3C//DTD SVG 1.1//EN" "http://www.w3.org/Graphics/SVG/1.1/DTD/svg11.dtd">
<svg version="1.1" id="Layer_1" xmlns="http://www.w3.org/2000/svg" xmlns:xlink="http://www.w3.org/1999/xlink" x="0px" y="0px"
	 width="461.9px" height="199px" viewBox="0 0 461.9 199" enable-background="new 0 0 461.9 199" xml:space="preserve">
<g>
	<g>
		<path d="M1,200C1,133.7,1,67.3,1,1c154,0,308,0,461.9,0c0,66.3,0,132.6,0,199C309,200,155,200,1,200z M184.2,56.2
			c6,6,12.2,12.3,18.6,18.3c2.9,2.7,3.8,4.8,1.2,8.3c-2.6,3.6-4.6,7.7-6.8,11.6c-2.8,4.9-5.6,9.9-8.6,15.3c30.7,0,60.4,0,91.1,0
			c-6.3-11-12.1-21.1-18.4-32.1c7.6-7.4,15.1-14.6,22.1-21.4C266.8,39.5,250.2,23,233.8,6.6C217.6,22.8,201,39.4,184.2,56.2z
			 M446.6,196.3c0.2-0.7,0.3-1.5,0.5-2.2c-1.6-0.3-3.2-1-4.7-1c-15.2,0-30.3,0.1-45.5,0.1c-8,0-16-0.1-24-0.1
			c-118.2,0-236.5,0-354.7,0c-1.3,0-2.7,0-4,0.2c-0.4,0.1-1,0.9-1,1.4c0,0.5,0.6,1.3,1,1.4c1.3,0.2,2.6,0.2,4,0.2
			c15,0,30-0.1,45,0.1c2.1,0,4.3,0.9,6.2,1.3c2.8-0.5,5.6-1.3,8.4-1.4c50.5-0.1,100.9-0.1,151.4-0.1c64,0,128.1,0,192.1,0
			C429.7,196.3,438.1,196.3,446.6,196.3z M231,138.5c0.3,0,0.6,0,0.9,0c5.2,12.4,10.4,24.8,15.4,37.3c1.5,3.8,3.4,5.4,7.3,3.6
			c0-18,0-35.9,0-54.1c-1.9,0-3.6,0-5.9,0c0,12.8,0,25.3,0,37.8c-5.5-11-10.4-22-14.7-33.3c-1.8-4.7-4.3-5.7-8.8-4.2
			c0,17.7,0,35.4,0,53.2c2,0,3.7,0,5.7,0C231,165,231,151.8,231,138.5z M112.3,125.5c0,17.6,0,35.4,0,53.2c2,0,3.7,0,5.9,0
			c0-13.6,0-26.9,0-40.2c5.9,12.4,11.1,24.7,16.1,37.2c1.5,3.8,3.3,5.4,7.2,3.8c0-18.2,0-36.2,0-54.3c-2,0-3.6,0-5.7,0
			c0,12.8,0,25.3,0,37.8c-5.6-10.9-10.5-22-14.7-33.2C119.4,125.2,116.9,124,112.3,125.5z M375.3,125c0,18.3,0,36.1,0,53.8
			c1,0.1,1.6,0.2,2.3,0.2c4.7,0,9.3,0.1,14,0c6.3-0.2,11.3-3.8,13.4-9.5c2.2-6.1,0.6-12.7-4.2-16.8c-1.1-0.9-2.2-1.8-3.5-2.8
			c6.1-4.5,8.2-10.1,5.6-16.9c-2.6-6.8-8.4-7.9-14.7-8C383.9,124.9,379.8,125,375.3,125z M37.3,125c0,18.3,0,36,0,54
			c6,0,11.6,0.3,17.3-0.1c6-0.4,10.3-3.8,12.3-9.4c2.1-6,1.2-11.5-3.4-16.1c-1.2-1.2-2.7-2.3-4.2-3.6c6.1-4.5,8.1-10.1,5.6-16.9
			c-2.6-6.8-8.4-7.9-14.7-8C46,124.9,41.8,125,37.3,125z M358.4,155.6c1.8-1.5,3.3-2.4,4.4-3.5c4.5-4.5,5.9-9.8,4.4-16
			c-1.4-5.5-4.4-9.8-10-10.6c-6-0.8-12.1-0.2-18-0.2c0,18.1,0,35.8,0,53.8c2-0.1,3.6-0.2,5.7-0.4c0-7.4,0-14.5,0-21.2
			c5.7-1.8,8.9,0.2,11.1,5.1c1.9,4.2,4.9,8,6.9,12.1c2,4.2,4.8,5.3,9.4,3.7C367.7,170.8,363.2,163.3,358.4,155.6z M150.4,125
			c0,18.3,0,36,0,53.9c5.7,0,11,0.3,16.3-0.1c6.2-0.4,10.7-3.9,12.6-9.8c3.8-11.5,3.8-23.2-0.3-34.7c-1.9-5.5-6-8.9-11.9-9.3
			C161.7,124.8,156.2,125,150.4,125z M333.9,178.5c-6.3-19.3-12.5-38.2-18.7-57.1c-0.3,0.1-0.7,0.1-1,0.2
			c-6.2,19-12.3,37.9-18.5,56.9c4.6,1.4,6.5,0.1,7.7-4.1c3.2-11.6,3.4-11.5,15.3-11.4c1.3,0,2.6,0,4.1,0c1.2,3.9,2.5,7.5,3.3,11.2
			C327.1,178.5,329.3,180,333.9,178.5z M98,163.3c1.1,3.6,2.4,7.2,3.2,10.9c0.9,4.3,3.2,5.8,7.8,4.2c-6.2-19-12.4-38.1-18.7-57.1
			c-0.3,0.1-0.7,0.1-1,0.2c-6.2,19-12.3,37.9-18.5,57.1c6.1,0.5,6.1,0.5,7.2-2.8c1.4-4.2,1.7-10.2,4.7-12.1c3.3-2.1,9-0.6,13.6-0.7
			C96.6,163,96.9,163.1,98,163.3z M178.6,82.9c0.8-5.2-2.8-3.6-4.7-3.7c-52-0.1-103.9,0-155.9,0c-1,0-2.1-0.2-3,0.1
			c-0.8,0.2-1.3,1.1-2,1.7c0.6,0.6,1.1,1.6,1.8,1.8c1.1,0.3,2.3,0.1,3.5,0.1c51.8,0,103.6,0,155.4,0C175.4,82.9,177,82.9,178.6,82.9
			z M292.7,173.9c-7.7,0-15,0-22.3,0c0-7,0-13.4,0-20.2c5.3,0,10.3,0,15.6,0c-0.1-1.8-0.2-3.2-0.3-5.1c-5.4,0-10.5,0-15.4,0
			c0-6.5,0-12.4,0-18.9c7.5,0,14.8,0,22.4,0c-0.2-1.9-0.3-3.3-0.4-4.5c-9.6,0-18.7,0-27.9,0c0,18,0,35.7,0,53.6c9.6,0,18.8,0,28.3,0
			C292.7,177.2,292.7,175.9,292.7,173.9z M189.3,167.9c-1.3,1.1-2.6,2.2-4.8,4.1c4.1,2.6,7.2,5.4,10.9,7c8.2,3.4,17.3,0.1,20.7-6.9
			c3.9-7.8,1.8-14.3-6.6-19.9c-4.1-2.8-8.5-5.2-12.5-8.2c-4.3-3.1-5.2-7.1-3-10.8c2.2-3.8,6.8-5.4,11.3-3.4c2.8,1.2,5.4,3.1,8.3,4.8
			c1-1.3,2-2.5,3.5-4.4c-3.8-2-7-4.2-10.5-5.4c-7.5-2.6-15.6,0.6-18.4,6.8c-3,6.6-0.8,13.1,6.4,17.9c3.9,2.6,8,4.8,11.8,7.4
			c5.8,3.9,7,8.9,3.6,13.9c-3.3,4.8-9.8,5.9-15,2.3C193.1,171.6,191.4,169.7,189.3,167.9z M372.8,79.2
			C372.8,79.2,372.8,79.2,372.8,79.2c-22.7,0-45.3,0-68,0c-1.7,0-3.4-0.1-5,0.2c-0.7,0.1-1.3,1.1-1.9,1.7c0.6,0.6,1.1,1.5,1.8,1.7
			c1.1,0.3,2.3,0.1,3.5,0.1c46.1,0,92.3,0,138.4,0c1.2,0,2.4,0.2,3.5-0.2c0.7-0.2,1.4-1.2,1.7-1.9c0.1-0.3-0.9-1.3-1.5-1.4
			c-1.3-0.3-2.6-0.1-4-0.1C418.4,79.2,395.6,79.2,372.8,79.2z M408.5,125.5c7.3,17.3,18,33.4,12.8,53.3c3,0,4.6,0,7.4,0
			c-5.1-20.1,5.8-36.3,12.9-53.3c-5-1.6-7,0.3-8.5,4.2c-2.3,6.1-5,12.1-8.1,19.2c-3.1-7.2-6-13.2-8.2-19.4
			C415.4,125.5,413.2,124,408.5,125.5z"/>
		<path fill-rule="evenodd" clip-rule="evenodd" fill="#FFFFFF" d="M184.2,56.2c16.8-16.8,33.3-33.4,49.6-49.6
			c16.4,16.4,33,33,49.6,49.6c-7,6.8-14.5,14-22.1,21.4c6.3,11,12.1,21.1,18.4,32.1c-30.7,0-60.5,0-91.1,0
			c3.1-5.4,5.8-10.4,8.6-15.3c2.2-3.9,4.2-8,6.8-11.6c2.6-3.5,1.7-5.6-1.2-8.3C196.4,68.5,190.2,62.2,184.2,56.2z M279.1,55.8
			c-15-15-30-30.1-44.5-44.5c-15,15-30.1,30.1-44.7,44.6c6,6,12.2,12.4,18.7,18.8c8.3-14.3,16.8-29,25.5-44.1
			c8.8,15.3,17.3,29.8,25.5,44.1C266.5,68.1,273,61.8,279.1,55.8z M234.1,37c-6.8,11.9-13.2,22.9-19.6,33.9
			c-4.5,7.7-4.5,7.7,2.6,13.4c0.1,0.1,0.3,0.1,0.5,0.2c5.3-9.2,10.7-18.4,16.4-28.3c5.7,9.8,11.1,19,16.3,28
			c2.6-2.3,4.8-4.3,7.2-6.4C250,64.4,242.3,51.1,234.1,37z M234.4,101.4c4.2-4.3,8.3-8.4,12.2-12.6c0.7-0.7,1.1-2.5,0.6-3.3
			c-4.2-7.5-8.5-14.9-13.1-22.9c-5,8.6-9.6,16.6-14.2,24.5C224.7,91.7,229.2,96.3,234.4,101.4z M208.8,106.5c17.1,0,33.5,0,50.7,0
			c-3.3-5.7-6.2-10.8-9.7-17c-5.6,5.9-10.5,11.1-15.8,16.7c-5.2-5.5-10.2-10.7-15.5-16.4C215,95.6,212,100.8,208.8,106.5z
			 M193.5,107.4c4.9-0.8,10.1,0,11.8-2.1c4.3-5.2,7.1-11.7,10-16.7c-2.5-2.8-4.5-5-6.7-7.4C203.8,89.5,199.1,97.8,193.5,107.4z
			 M259.6,81.1c-7.3,6.3-7.3,6.3-3,13.9c1.1,1.9,2.2,3.7,3.3,5.6c4.1,7,5.3,7.5,14,5.4C269.1,97.7,264.4,89.4,259.6,81.1z"/>
		<path fill-rule="evenodd" clip-rule="evenodd" fill="#FFFFFF" d="M446.6,196.3c-8.5,0-16.9,0-25.4,0c-64,0-128.1,0-192.1,0
			c-50.5,0-100.9,0-151.4,0.1c-2.8,0-5.6,0.9-8.4,1.4c-1.9-0.4-4-1.3-6.2-1.3c-15-0.1-30-0.1-45-0.1c-1.3,0-2.7,0-4-0.2
			c-0.4-0.1-1-0.9-1-1.4c0-0.5,0.6-1.4,1-1.4c1.3-0.2,2.6-0.2,4-0.2c118.2,0,236.5,0,354.7,0c8,0,16,0.1,24,0.1
			c15.2,0,30.3-0.1,45.5-0.1c1.6,0,3.2,0.7,4.7,1C446.9,194.8,446.7,195.5,446.6,196.3z"/>
		<path fill-rule="evenodd" clip-rule="evenodd" fill="#FFFFFF" d="M231,138.5c0,13.3,0,26.5,0,40.1c-2,0-3.7,0-5.7,0
			c0-17.7,0-35.4,0-53.2c4.5-1.4,7-0.5,8.8,4.2c4.3,11.3,9.2,22.3,14.7,33.3c0-12.5,0-25,0-37.8c2.2,0,3.9,0,5.9,0
			c0,18.2,0,36.1,0,54.1c-4,1.8-5.8,0.2-7.3-3.6c-4.9-12.5-10.2-24.9-15.4-37.3C231.6,138.5,231.3,138.5,231,138.5z"/>
		<path fill-rule="evenodd" clip-rule="evenodd" fill="#FFFFFF" d="M112.3,125.5c4.6-1.5,7.1-0.3,8.8,4.3
			c4.3,11.3,9.2,22.3,14.7,33.2c0-12.5,0-25,0-37.8c2.1,0,3.7,0,5.7,0c0,18,0,36.1,0,54.3c-3.9,1.7-5.7,0-7.2-3.8
			c-4.9-12.5-10.2-24.9-16.1-37.2c0,13.3,0,26.6,0,40.2c-2.2,0-3.9,0-5.9,0C112.3,160.8,112.3,143.1,112.3,125.5z"/>
		<path fill-rule="evenodd" clip-rule="evenodd" fill="#FFFFFF" d="M375.3,125c4.5,0,8.7,0,12.8,0c6.3,0.1,12.2,1.2,14.7,8
			c2.6,6.8,0.5,12.4-5.6,16.9c1.3,1,2.4,1.9,3.5,2.8c4.8,4.1,6.4,10.7,4.2,16.8c-2.1,5.7-7.1,9.3-13.4,9.5c-4.7,0.1-9.3,0-14,0
			c-0.6,0-1.3-0.1-2.3-0.2C375.3,161,375.3,143.3,375.3,125z M381.1,174c3.4,0,6.2,0.1,9,0c7.1-0.2,11.2-5.8,9.3-12.6
			c-1.9-7.1-8.8-9.9-18.3-7.7C381.1,160.3,381.1,166.9,381.1,174z M381.1,147.8c6.3,0.6,12.5,1,15.4-5.1c1.2-2.6,1.1-7.3-0.6-9.6
			c-3.6-5.1-9.5-2.7-14.8-3C381.1,136.2,381.1,141.8,381.1,147.8z"/>
		<path fill-rule="evenodd" clip-rule="evenodd" fill="#FFFFFF" d="M37.3,125c4.5,0,8.7,0,12.8,0c6.3,0.1,12.2,1.2,14.7,8
			c2.6,6.8,0.5,12.4-5.6,16.9c1.5,1.3,2.9,2.3,4.2,3.6c4.7,4.6,5.5,10.2,3.4,16.1c-2,5.7-6.3,9.1-12.3,9.4
			c-5.6,0.3-11.3,0.1-17.3,0.1C37.3,161,37.3,143.3,37.3,125z M43,174c3.4,0,6.4,0.1,9.3,0c7.1-0.3,11.1-5.9,9.1-12.7
			c-2-7-9.2-10-18.4-7.4C43,160.3,43,166.7,43,174z M43.3,130c0,6.4,0,12.1,0,17.8c6,0.5,12,1.1,15-4.8c1.3-2.6,1.5-7.3,0-9.7
			C54.9,127.9,48.8,130.3,43.3,130z"/>
		<path fill-rule="evenodd" clip-rule="evenodd" fill="#FFFFFF" d="M358.4,155.6c4.7,7.7,9.3,15.2,13.9,22.8
			c-4.6,1.6-7.4,0.5-9.4-3.7c-2-4.2-5-7.9-6.9-12.1c-2.2-4.9-5.4-6.8-11.1-5.1c0,6.8,0,13.8,0,21.2c-2.1,0.1-3.7,0.3-5.7,0.4
			c0-17.9,0-35.6,0-53.8c5.9,0,12-0.6,18,0.2c5.6,0.7,8.6,5.1,10,10.6c1.5,6.2,0.1,11.5-4.4,16C361.7,153.2,360.3,154.1,358.4,155.6
			z M345.3,130.1c0,7.6,0,14.7,0,21.8c5.9,0.2,11.6,0.6,14.9-5.1c2.5-4.2,2.8-9.1-0.1-13.2C356.5,128.4,350.7,130.1,345.3,130.1z"/>
		<path fill-rule="evenodd" clip-rule="evenodd" fill="#FFFFFF" d="M150.4,125c5.8,0,11.3-0.3,16.7,0.1c5.8,0.4,9.9,3.8,11.9,9.3
			c4.1,11.5,4.1,23.2,0.3,34.7c-1.9,5.9-6.4,9.4-12.6,9.8c-5.3,0.3-10.6,0.1-16.3,0.1C150.4,161,150.4,143.3,150.4,125z
			 M156.4,129.9c0,15.1,0,29.5,0,44.1c3.1,0,6,0.1,8.8,0c4.3-0.2,7.4-2.3,8.6-6.3c3.2-10.4,3.2-21-0.1-31.4c-1.2-4-4.4-6.2-8.7-6.3
			C162.2,129.9,159.4,129.9,156.4,129.9z"/>
		<path fill-rule="evenodd" clip-rule="evenodd" fill="#FFFFFF" d="M333.9,178.5c-4.6,1.5-6.9,0.1-7.8-4.3
			c-0.8-3.7-2.1-7.3-3.3-11.2c-1.5,0-2.8,0-4.1,0c-11.9-0.1-12.1-0.1-15.3,11.4c-1.2,4.2-3,5.5-7.7,4.1c6.2-19,12.3-37.9,18.5-56.9
			c0.3-0.1,0.7-0.1,1-0.2C321.4,140.3,327.6,159.2,333.9,178.5z M321.4,157.8c-2.2-6.9-4.2-13.1-6.2-19.3c-0.3,0-0.6,0.1-1,0.1
			c-1.9,6.3-3.9,12.5-5.9,19.1C312.8,157.8,316.8,157.8,321.4,157.8z"/>
		<path fill-rule="evenodd" clip-rule="evenodd" fill="#FFFFFF" d="M98,163.3c-1-0.2-1.4-0.2-1.7-0.2c-4.6,0.1-10.3-1.5-13.6,0.7
			c-2.9,1.9-3.3,7.9-4.7,12.1c-1.1,3.3-1.1,3.3-7.2,2.8c6.2-19.1,12.4-38.1,18.5-57.1c0.3-0.1,0.7-0.1,1-0.2
			c6.2,19,12.4,38.1,18.7,57.1c-4.6,1.5-6.9,0.1-7.8-4.2C100.4,170.5,99.1,166.9,98,163.3z M83.4,157.8c4.7,0,8.5,0,13,0
			c-2.2-6.7-4.2-12.9-6.2-19.1c-0.3,0.1-0.7,0.1-1,0.2C87.3,145,85.4,151.1,83.4,157.8z"/>
		<path fill-rule="evenodd" clip-rule="evenodd" fill="#FFFFFF" d="M178.6,82.9c-1.6,0-3.3,0-4.9,0c-51.8,0-103.6,0-155.4,0
			c-1.2,0-2.4,0.2-3.5-0.1c-0.7-0.2-1.2-1.2-1.8-1.8c0.7-0.6,1.2-1.4,2-1.7c0.9-0.3,2-0.1,3-0.1c52,0,103.9-0.1,155.9,0
			C175.8,79.3,179.5,77.7,178.6,82.9z"/>
		<path fill-rule="evenodd" clip-rule="evenodd" fill="#FFFFFF" d="M292.7,173.9c0,2,0,3.3,0,4.9c-9.5,0-18.7,0-28.3,0
			c0-17.9,0-35.6,0-53.6c9.2,0,18.3,0,27.9,0c0.1,1.2,0.2,2.6,0.4,4.5c-7.7,0-14.9,0-22.4,0c0,6.5,0,12.4,0,18.9c4.9,0,9.9,0,15.4,0
			c0.1,1.9,0.2,3.3,0.3,5.1c-5.3,0-10.2,0-15.6,0c0,6.8,0,13.2,0,20.2C277.7,173.9,285,173.9,292.7,173.9z"/>
		<path fill-rule="evenodd" clip-rule="evenodd" fill="#FFFFFF" d="M189.3,167.9c2.1,1.8,3.8,3.7,5.8,5.1c5.2,3.6,11.7,2.5,15-2.3
			c3.5-5,2.3-10-3.6-13.9c-3.9-2.6-8-4.8-11.8-7.4c-7.2-4.8-9.4-11.3-6.4-17.9c2.8-6.2,11-9.4,18.4-6.8c3.5,1.2,6.7,3.4,10.5,5.4
			c-1.5,1.9-2.5,3.2-3.5,4.4c-2.9-1.7-5.5-3.6-8.3-4.8c-4.5-2-9.1-0.4-11.3,3.4c-2.1,3.8-1.3,7.7,3,10.8c4,2.9,8.4,5.4,12.5,8.2
			c8.4,5.6,10.4,12.1,6.6,19.9c-3.4,6.9-12.5,10.2-20.7,6.9c-3.7-1.5-6.9-4.3-10.9-7C186.7,170.1,188,169,189.3,167.9z"/>
		<path fill-rule="evenodd" clip-rule="evenodd" fill="#FFFFFF" d="M372.8,79.2c22.8,0,45.6,0,68.5,0c1.3,0,2.7-0.1,4,0.1
			c0.6,0.1,1.6,1.2,1.5,1.4c-0.3,0.8-0.9,1.7-1.7,1.9c-1.1,0.3-2.3,0.2-3.5,0.2c-46.1,0-92.3,0-138.4,0c-1.2,0-2.4,0.2-3.5-0.1
			c-0.7-0.2-1.2-1.1-1.8-1.7c0.6-0.6,1.2-1.6,1.9-1.7c1.6-0.3,3.3-0.2,5-0.2C327.4,79.2,350.1,79.2,372.8,79.2
			C372.8,79.2,372.8,79.2,372.8,79.2z"/>
		<path fill-rule="evenodd" clip-rule="evenodd" fill="#FFFFFF" d="M408.5,125.5c4.7-1.5,6.9,0,8.4,4.1c2.3,6.2,5.1,12.2,8.2,19.4
			c3-7.2,5.8-13.1,8.1-19.2c1.4-3.9,3.5-5.8,8.5-4.2c-7.2,17-18,33.2-12.9,53.3c-2.9,0-4.5,0-7.4,0
			C426.5,158.8,415.7,142.8,408.5,125.5z"/>
		<path fill-rule="evenodd" clip-rule="evenodd" d="M279.1,55.8c-6.1,5.9-12.6,12.3-19.4,18.9c-8.3-14.3-16.7-28.8-25.5-44.1
			c-8.7,15.1-17.2,29.7-25.5,44.1c-6.4-6.5-12.7-12.8-18.7-18.8c14.5-14.5,29.7-29.6,44.7-44.6C249.1,25.8,264.1,40.8,279.1,55.8z"
			/>
		<path fill-rule="evenodd" clip-rule="evenodd" d="M234.1,37c8.2,14.1,15.8,27.4,23.5,40.7c-2.4,2.2-4.6,4.1-7.2,6.4
			c-5.2-9-10.6-18.2-16.3-28c-5.7,9.9-11.1,19.1-16.4,28.3c-0.3-0.1-0.4-0.1-0.5-0.2c-7-5.7-7-5.7-2.6-13.4
			C220.9,59.9,227.3,48.9,234.1,37z"/>
		<path fill-rule="evenodd" clip-rule="evenodd" d="M234.4,101.4c-5.2-5.2-9.8-9.7-14.5-14.4c4.6-7.9,9.2-15.9,14.2-24.5
			c4.6,8,9,15.4,13.1,22.9c0.4,0.8,0,2.6-0.6,3.3C242.7,93.1,238.6,97.1,234.4,101.4z"/>
		<path fill-rule="evenodd" clip-rule="evenodd" d="M208.8,106.5c3.3-5.6,6.3-10.9,9.6-16.7c5.4,5.7,10.3,10.9,15.5,16.4
			c5.3-5.6,10.2-10.7,15.8-16.7c3.5,6.1,6.5,11.3,9.7,17C242.2,106.5,225.8,106.5,208.8,106.5z"/>
		<path fill-rule="evenodd" clip-rule="evenodd" d="M193.5,107.4c5.5-9.6,10.3-17.9,15.1-26.2c2.2,2.4,4.1,4.6,6.7,7.4
			c-2.9,5-5.6,11.5-10,16.7C203.6,107.4,198.5,106.7,193.5,107.4z"/>
		<path fill-rule="evenodd" clip-rule="evenodd" d="M259.6,81.1c4.8,8.3,9.5,16.6,14.3,24.9c-8.7,2.1-9.9,1.6-14-5.4
			c-1.1-1.9-2.2-3.7-3.3-5.6C252.3,87.4,252.3,87.4,259.6,81.1z"/>
		<path fill-rule="evenodd" clip-rule="evenodd" d="M381.1,174c0-7.1,0-13.7,0-20.3c9.6-2.3,16.4,0.6,18.3,7.7
			c1.9,6.9-2.2,12.4-9.3,12.6C387.4,174.1,384.5,174,381.1,174z"/>
		<path fill-rule="evenodd" clip-rule="evenodd" d="M381.1,147.8c0-6,0-11.6,0-17.8c5.3,0.3,11.2-2.1,14.8,3c1.6,2.3,1.8,7,0.6,9.6
			C393.6,148.8,387.4,148.4,381.1,147.8z"/>
		<path fill-rule="evenodd" clip-rule="evenodd" d="M43,174c0-7.3,0-13.8,0-20.2c9.2-2.5,16.5,0.4,18.4,7.4
			c1.9,6.9-2.1,12.5-9.1,12.7C49.4,174.1,46.4,174,43,174z"/>
		<path fill-rule="evenodd" clip-rule="evenodd" d="M43.3,130c5.4,0.3,11.6-2.1,14.9,3.4c1.5,2.4,1.4,7,0,9.7c-3,5.9-9,5.3-15,4.8
			C43.3,142.1,43.3,136.4,43.3,130z"/>
		<path fill-rule="evenodd" clip-rule="evenodd" d="M345.3,130.1c5.4,0.1,11.2-1.7,14.9,3.5c2.9,4.1,2.5,9,0.1,13.2
			c-3.3,5.7-9,5.3-14.9,5.1C345.3,144.7,345.3,137.7,345.3,130.1z"/>
		<path fill-rule="evenodd" clip-rule="evenodd" d="M156.4,129.9c3.1,0,5.9-0.1,8.7,0c4.3,0.2,7.4,2.3,8.7,6.3
			c3.2,10.4,3.2,20.9,0.1,31.4c-1.2,4-4.4,6.2-8.6,6.3c-2.8,0.1-5.6,0-8.8,0C156.4,159.4,156.4,145,156.4,129.9z"/>
		<path fill-rule="evenodd" clip-rule="evenodd" d="M321.4,157.8c-4.7,0-8.6,0-13.1,0c2-6.6,4-12.9,5.9-19.1c0.3,0,0.6-0.1,1-0.1
			C317.2,144.7,319.2,150.9,321.4,157.8z"/>
		<path fill-rule="evenodd" clip-rule="evenodd" d="M83.4,157.8c2.1-6.7,4-12.8,5.9-18.9c0.3-0.1,0.7-0.1,1-0.2
			c2,6.2,4,12.5,6.2,19.1C91.9,157.8,88,157.8,83.4,157.8z"/>
	</g>
</g>
</svg>
