<?xml version="1.0" encoding="utf-8"?>
<!-- Generator: Adobe Illustrator 16.0.0, SVG Export Plug-In . SVG Version: 6.00 Build 0)  -->
<!DOCTYPE svg PUBLIC "-//W3C//DTD SVG 1.1//EN" "http://www.w3.org/Graphics/SVG/1.1/DTD/svg11.dtd">
<svg version="1.1" id="Layer_1" xmlns="http://www.w3.org/2000/svg" xmlns:xlink="http://www.w3.org/1999/xlink" x="0px" y="0px"
	 width="499px" height="499px" viewBox="-5.15 -5.5 499 499" enable-background="new -5.15 -5.5 499 499" xml:space="preserve">
<g>
	<g>
		<path d="M425.1,80.2c-0.801,1.9-1.4,3.5-2.1,5.2c-0.301,0-0.5-0.1-0.801-0.1c1.1-2.8-2.799-5.4-0.1-8.5
			c-10.301-11.5-33.5-31.1-40.199-34.3c-0.801,0.9-1.4,1.6-2.102,2.3c-1.5-1.4-2.5-2.1-3.199-2.9c-0.4-0.5-0.5-1.3-0.801-2
			c0.602-0.2,1.301-0.3,1.9-0.4c-0.299-0.3-0.799-0.7-1.299-1C322,4.4,263.1-6.8,199.9,4.1c-0.9,0.2-1.7,1-2.3,1.8
			c-1.2,1.6-2.4,2.7-4.6,1.7c0.7-0.7,1.4-1.5,2.3-2.4C123,18.2,45.7,73.6,14.3,162C-17.1,250.2,6.1,343,58,401.5
			c0.4-0.5,0.7-1.1,1.1-1.6c-1.4,3.8,1.7,5.399,3.6,7.3c8.1,8,16.3,15.899,24.5,23.8c0.7,0.7,2,0.8,2.7,1.5c2.9,2.6,5.7,5.3,8.9,8.3
			c0.7-1.8,1.1-2.8,1.5-3.8c0.3-0.1,0.6-0.1,0.9-0.2c0.1,0.9,0.7,1.9,0.4,2.5c-1.1,1.9-0.5,2.9,1.1,3.9c4.8,3.1,9.5,6.3,13.7,9.2
			c1.5-0.9,2.7-1.601,3.8-2.301c0.1,0.101,0.2,0.301,0.3,0.4c-0.7,0.8-1.4,1.7-2.5,3c1.1,0.3,1.9,0.7,2.4,0.5
			c1.4-0.7,1.8-0.8,2.5,0.4c0.4,0.8,0.8,1.6,1.2,2.5c0.1-0.301,0.3-0.5,0.4-0.7c0.9,0.399,1.9,0.7,2.7,1.2
			c0.5,0.3,0.6,1.399,1.1,1.6c8,3.9,16,7.8,24.1,11.4c1.2,0.6,2.9,0,4.4-0.101c-0.3-1.3-0.6-2.5-0.8-3.8c0-0.1,0-0.3,0-1.1
			c1.4,0,2.9,0,4.4-0.2c1.6-0.101,3.1-0.5,5-0.8c-33.1-12-61.8-30.601-87-55.5c-0.1,2-0.1,3.399-0.4,4.699
			c-0.1,0.5-1.1,0.801-1.7,1.2c-0.1-0.5-0.3-1.1-0.2-1.6c0.5-1.5,0.3-1.8-1.9-1.9c0.3,0.9,0.5,1.7,0.9,2.8c-3.6-2.8-3.3-6,0.5-7.699
			c-0.1-0.2-0.1-0.5-0.3-0.7C60.9,390.6,48.7,373.9,38.7,355.6c-0.3-0.6-1-0.899-1.4-1.399c-0.5-0.7-1-1.5-1.3-2.3
			c-0.3-0.7-0.1-1.601-0.4-2.301C18.1,314.8,9.9,278,10.7,239.1c1-49.5,17.6-99.6,51.6-141.3c6.1-7.4,12.6-14.6,19.5-21.3
			c40.9-39.5,89.8-61.5,146.5-65.2C278.4,7.8,325,19.4,367.901,45.8c1,0.6,2.398,0.7,3.6,0.6c3.199-0.3,4.299,0.8,3.699,4.1
			c4.301,3.2,8.6,6.3,12.5,9.2c1.5-0.3,2.801-0.9,3.9-0.7c0.5,0,1.4,1.5,1.199,2.2c-0.6,2.3,0.801,3.3,2.201,4.5
			c30.6,26,53.299,57.5,67.799,95c1.602,4.2,3,8.4,4.4,12.7c1.4,4.3,2.801,8.5,3.701,12.9c0.898,4,2.299,7.9,3,12
			c2.5,14.6,4.299,29.101,4.398,43.9C478.6,275.9,472,308.1,458.5,338.9c-0.4,0.8-0.701,1.699-1.4,3.399c2.199-0.7,4.4-0.7,5-1.7
			c0.699-1.1,0-3.1-0.1-4.699c4.699-0.201,3.9,4.799,5.9,7.5C507.1,255.2,489.901,149.4,425.1,80.2z M90.5,424.9
			c1,0.5,2.1,0.8,2.8,1.5c0.3,0.199-0.2,1.399-0.4,2.199c-1.1-0.699-2.1-1.5-3.2-2.3C90,425.8,90.2,425.4,90.5,424.9z M450.2,125.2
			c-0.199,0.6-1.1,1.2-1.699,1.2c-0.4,0.1-1.201-0.7-1.4-1.2c-0.1-0.6,0-1.6,0.4-2c0.799-0.8,2-1.3,3-1.9c0.199,0.2,0.4,0.3,0.6,0.5
			C450.901,123,450.799,124.2,450.2,125.2z"/>
		<path d="M346.2,298.3c2.301,2.5,0,6.3,1.201,10.101c2-0.601,4.1-1.2,6.398-1.9c0.201,0.5,0.4,1.1,0.701,2.1
			c-4.4,1-8.6,2.101-12.9,3.101c-0.199-2.101-0.199-2.101,3.301-3.101c0-3.6,0-7.3,0-11c0-22,0-44,0-66c0-5.199,0-5.199-5.801-5.1
			c0,1,0,2,0,3c0,16.9,0.1,33.9-0.1,50.8c0,4.601,0.199,9.101,0.1,13.7c-0.1,4.7,0,9.5,0,14.5c-3.6-0.8-1.199-3.8-2.4-5.5
			c-5.5,0-11.199,0-17.4,0c0.201,2.1,0.4,4.2,0.602,6.2c0,0.5,0.1,1,0.1,1.399c-0.701,3.4,1.199,6.4,4.6,6.801
			c2.4,0.3,5,0.399,7.301-0.101c1.6-0.3,2.898-1.899,4.398-3c0.602-0.399,1.301-0.899,2.4-1.6c-0.799,4.2-3.4,6.5-7.1,6.8
			c-1.699,0.1-3.5,0.1-5.301,0.1c-5.699-0.1-9-3.3-9-9c0-11.1,0-22.3,0-33.399c0-1,0-1.9,0-2.8c-5.898-1.301-9,0.8-9.699,6.699
			c-0.4,3.801-3.4,6.801-7.199,7.2c-3.9,0.5-7.801-2-9-5.8c-0.4-1.3-0.5-2.8-0.5-4.1c0-10.301-0.301-20.7,0.1-31
			c0.1-2.801,0.1-5.5,0-8.301c-0.4-7.399-0.1-14.899-0.1-22.3c0-3.5-2.102-5.8-5-5.8c-3,0-5,2.4-5,5.9c0,25.7,0,51.4,0,77.1
			c0,0.8,0,1.6,0,2.4c-0.201,4.199-3.4,7.3-7.4,7.399c-4,0.101-7.5-3-7.701-7.1c-0.199-5.4-0.1-10.9,0-16.3c0-0.7,0.801-1.4,0.9-1.5
			c-0.4-2.5-0.8-4.5-0.9-6.601c-0.1-3.399,0-6.8,0-10.3c0-3.8-2.6-6.6-6.1-6.6c-3.4,0-6,2.699-6.1,6.5c0,1.8,0,3.6,0,5.899
			c-0.801-0.6-1.301-0.8-1.5-1.1c-3.1-5.2,1.1-13,7.1-13.3c4.801-0.301,8.5,3.3,8.6,8.3c0,10.8,0,21.6,0,32.399
			c0,0.801,0,1.601,0,2.4c0.301,3.1,2.801,5.5,5.801,5.3c3-0.1,5.3-2.5,5.3-5.8c0.101-7.7,0-15.4,0.101-23.2
			c0-1.899,0.6-3.899,0.6-5.8c0-1.1-0.6-2.2-0.6-3.4c0-15.5,0-31,0-46.6c0-4.9,2.799-8,7.1-8s7,3.2,7,8.1c0,20.5-0.1,41,0.1,61.6
			c0,2,0.9,4.3,2.1,5.899c1.4,1.9,3.801,2.4,6.201,1.5c2.199-0.8,3.699-2.399,4.1-4.699c1.5-7.7,2.801-8.9,10.699-9.2
			c0.201,0,0.5-0.101,1.102-0.2c0-0.9,0-1.8,0-2.8c0-14.3,0-28.601,0-42.9c0-6.6,3.1-9.6,9.699-9.6c0.699,0,1.4,0,2.1,0
			c6.201,0,8.5,1.8,10.201,7.899c8.1,0.4,15.799,2.601,23,7.601c-0.4-18.6-4.5-35.8-12.5-52c-8.102-16.3-19.102-30.4-33.701-41.2
			c-39.1-28.9-81.3-33.9-124.7-11.9c-42,21.3-62.6,57.6-65.1,104.5c7.1-4.5,14.8-6.8,22.9-7.1c2-6.4,4.1-7.9,10.7-7.9
			c1.1,0,2.1,0,3.2,0c4.6,0.2,8.1,3.4,8.1,8c0.1,9.2,0.4,18.4-0.1,27.601c-0.2,3.2,0.6,6.3,0.3,9.5c-0.3,3.3-0.1,6.7-0.1,9.899
			c7.2,2.301,14.2-2.5,14.3-9.899c0.1-7.2,0-14.4,0-21.601c0-3.3,1.6-5.899,4.6-7.399c2.8-1.3,5.9-1.3,8.1,0.8
			c1.5,1.4,3.1,3.7,3.2,5.7c0.4,5.6,0.2,11.2,0.2,16.8c-0.3,0.1-0.5,0.3-0.8,0.4c-0.4-0.7-1.1-1.301-1.1-2c-0.1-4.5,0-8.9-0.1-13.4
			c0-4.2-2.5-7.1-6.1-7.1s-6,2.899-6,7.199c0,6.4,0,12.801,0,19.2c0,8.9-4.8,13.7-13.6,13.7c-0.8,0-1.6,0-2.7,0c0,1.1,0,2.1,0,3
			c0,11.1,0,22.1,0,33.2c0,6.2-3.1,9.399-9.4,9.399c-1.4,0-2.8,0-4.2,0c-4-0.199-6.9-2.3-7.8-6.199c-0.4-1.601-1.1-1.801-2.5-1.9
			c-21.7-1.6-38-18.7-38.3-40.4c-0.1-13.5-0.2-27,0-40.5c1-64.6,50.4-121,114.3-130.5c62.4-9.3,122.4,24.7,146,83
			c0.6,1.4,0.4,3.2,0.299,4.8c-20.699-60-90.899-103.8-164-81.7c-52.5,15.9-100.9,67-94.4,144.899c0.6-1.1,0.8-1.899,1.3-2.6
			c3-4.3,5.8-8.7,9.1-12.7c1.5-1.8,2.4-3.3,2.5-5.7c0.6-21,6-40.7,16.8-58.8c45.7-76.5,151.699-80,202.199-6.7
			c13.801,20,20.5,42.4,21.201,66.7c0,1.2,0.699,2.7,1.6,3.5c4.801,4.601,8.6,9.9,11.1,16.101c1-20.801,0.201-41.4-7.299-61.3
			c2.6,0.9,3.898,3.1,3.799,5.6c-0.1,0.7,0.301,1.5,0.6,2.2c0.301,0.7,0.701,1.4,0.9,2.1C378,210.1,379.5,221,379.6,232
			c0.1,12.9,0,25.8,0,38.7c0,7.2-1.699,13.899-5.301,20.1c-0.699,1.2-2.1,1.9-2.898,3.101c-0.602,0.899-0.9,2-1.301,3
			c-0.301-0.101-0.699-0.2-1-0.301c0.4-1.1,0.5-2.5,1.199-3.3c9.701-12.6,9.4-36.6,1.301-48.7c-5.699-8.5-14.801-15.199-24.5-17.1
			c0,1.1,0,2,0,3c0,21.4,0,42.8,0,64.2C347.1,295.6,346.6,296.7,346.2,298.3z M141.6,308.3c0-27.2,0-54.1,0-80.899
			c-12.8,2.1-25.1,13.199-28.6,26.699c-1.4,5.301-1.5,11.101-1.6,16.601c-0.2,9.899,3.4,18.5,10,25.8
			C126.8,302.6,133.5,306.5,141.6,308.3z M149.6,309.4c0-27.9,0-55.4,0-82.801c-5.4-0.699-5.7-0.399-5.7,4.601
			c0,24.8,0,49.6,0,74.399c0,1,0,2.101,0,3.301C145.8,309,147.5,309.2,149.6,309.4z M337,241c0-2.1,0-4,0-6.1
			c-5.9,0-11.701,0-17.5,0c0,2.1,0,4,0,6.1C325.401,241,331.1,241,337,241z M319.5,249.5c6,0,11.699,0,17.5,0c0-2.1,0-4.1,0-6
			c-5.9,0-11.701,0-17.5,0C319.5,245.6,319.5,247.4,319.5,249.5z M319.6,260.3c0,2.2,0,4.101,0,6.101c5.9,0,11.6,0,17.4,0
			c0-2.101,0-4,0-6.101C331.2,260.3,325.6,260.3,319.6,260.3z M337,268.8c-5.9,0-11.6,0-17.4,0c0,2.101,0,4.101,0,6.101
			c5.9,0,11.6,0,17.4,0C337,272.9,337,271,337,268.8z M319.6,283.4c6,0,11.699,0,17.4,0c0-2.101,0-4,0-6c-5.9,0-11.6,0-17.4,0
			C319.6,279.4,319.6,281.3,319.6,283.4z M319.7,285.8c0,2.2,0,4.101,0,6c5.9,0,11.6,0,17.301,0c0-2.1,0-4,0-6
			C331.2,285.8,325.5,285.8,319.7,285.8z M319.6,300.3c6,0,11.699,0,17.4,0c0-2.1,0-4,0-6c-5.9,0-11.6,0-17.4,0
			C319.6,296.4,319.6,298.3,319.6,300.3z M319.6,251.9c0,2.1,0,4.1,0,6.1c5.9,0,11.6,0,17.4,0c0-2.1,0-4,0-6.1
			C331.2,251.9,325.5,251.9,319.6,251.9z M337,226.4c-5.801,0-11.6,0-17.4,0c0,2.1,0,4.1,0,6.1c5.9,0,11.6,0,17.4,0
			C337,230.3,337,228.5,337,226.4z M151.9,308.8c6,0,11.7,0,17.4,0c0-2.1,0-4,0-6.1c-5.8,0-11.6,0-17.4,0
			C151.9,304.9,151.9,306.8,151.9,308.8z M151.9,241c5.9,0,11.6,0,17.3,0c0-2.1,0-4.1,0-6.3c-6,0-11.8,0-17.7,0
			C151.6,236.8,151.7,238.7,151.9,241z M152,243.4c0,2.3,0,4.199,0,6.199c5.9,0,11.5,0,17.2,0c0-2.1,0-4.1,0-6.199
			C163.4,243.4,157.7,243.4,152,243.4z M151.9,275c5.9,0,11.6,0,17.3,0c0-2.1,0-4.1,0-6c-5.9,0-11.6,0-17.3,0
			C151.9,271,151.9,272.9,151.9,275z M169.3,277.3c-5.9,0-11.6,0-17.4,0c0,2.101,0,4.101,0,6.101c5.9,0,11.6,0,17.4,0
			C169.3,281.3,169.3,279.4,169.3,277.3z M151.9,266.4c5.9,0,11.6,0,17.3,0c0-2.101,0-4.101,0-6c-5.9,0-11.6,0-17.3,0
			C151.9,262.5,151.9,264.4,151.9,266.4z M169.3,251.9c-5.9,0-11.6,0-17.3,0c0,2.1,0,4,0,6.1c5.9,0,11.6,0,17.3,0
			C169.3,255.9,169.3,254,169.3,251.9z M169.3,294.3c-6,0-11.6,0-17.4,0c0,2.101,0,4.101,0,6.101c5.9,0,11.6,0,17.4,0
			C169.3,298.3,169.3,296.4,169.3,294.3z M151.9,291.9c5.8,0,11.6,0,17.3,0c0-2.101,0-4.101,0-6.101c-5.8,0-11.5,0-17.3,0
			C151.9,287.8,151.9,289.7,151.9,291.9z M151.9,232.5c5.9,0,11.6,0,17.3,0c0-2.1,0-4.1,0-6c-5.9,0-11.6,0-17.4,0c0,1.6,0,3,0,4.4
			C151.8,231.4,151.8,231.9,151.9,232.5z M152,311.3c0.2,3.4,2.2,5.7,5.2,5.9c2.3,0.2,4.6,0.2,6.8,0c3-0.3,5-2.7,5.1-5.9
			C163.4,311.3,157.7,311.3,152,311.3z M169.2,224.1c-0.8-5-3.6-6.399-11.4-5.8c-3.5,0.2-5.7,2.5-5.8,5.8
			C157.7,224.1,163.4,224.1,169.2,224.1z M319.799,224c5.701,0,11.4,0,17.201,0c-0.701-4.8-3.201-6.1-11-5.8
			C322.299,218.4,320,220.5,319.799,224z"/>
		<path d="M454.2,347.8c-0.299,0.601-0.799,1.4-1.199,2.3c-6,11.801-12.9,22.9-20.801,33.5c-37,49.801-96,88.2-169.4,93.801
			c-8.299,0.6-16.699,0.5-25,0.699c-2.199,0.101-4.799-1-5.899,2.101c0,0-0.3-0.101-0.601-0.2c0-0.7,0-1.5,0-2
			c-7.5-0.8-15-1.7-22.5-2.5c-1.1-0.1-2.2,0.3-3.8,0.6c0,0-0.4-0.6-0.9-1.199c-1.9,2.1-3.8,2.1-5.2,0.1c-1.1-1.7-1.1-1.7-3.3-1.5
			c0.6,0.8,1.2,1.5,1.8,2.2c-6.1,2.8-6.1,2.8-6.8,0c1.1-0.8,2.3-1.601,3.8-2.7c-6.3-1.6-12-3.2-17.7-4.7
			c-2.4-0.6-4.6-2.399-7.2-0.399c0-0.801,0.1-1.301,0.1-2.301c-0.7,0.801-1.1,1.2-1.5,1.7c-0.5-0.8-0.9-1.5-1.2-2
			c-1.7,1.8-3.3,3.601-5.4,5.8c1.9,1,3.5,2.5,5.4,2.801c3.2,0.5,3.2,0.199,2.5,3.1c14.3,4.6,28.9,7.9,43.8,9.7
			c0.7,0.1,1.8,0.1,2-0.2c1.1-1.6,1.9-0.7,2.8,0c1.5,1.1,2.699,1.7,4.299,0.1c0.301-0.399,1.601-0.1,2.301,0.101
			c1.3,0.399,2.6,1.3,3.9,1.399c3.199,0.4,6.299,0.4,9.5,0.5c4.299,0.101,8.6,0,12.899,0c0.3-1.6,0.601-3,0.899-4.8
			c2.301,0,4.601,0,6.9,0c0.4-0.2,1.2-0.7,1.301-0.6c0.6,0.6,1.1,1.399,1.6,2.2c-1.5,0.8-2.6,1.5-3.801,2.1
			c0.101,0.3,0.201,0.6,0.301,0.9c7.5-0.801,15-1.4,22.5-2.5c19.199-2.801,37.9-7.9,55.9-15.301c1.9-0.699,4.4-0.699,5.199-3.3
			c0.1-0.1,0.801-0.1,1.201-0.2c1-0.1,2.1,0,2.898-0.399C397,442.8,435.6,405.8,461.901,355.8c1.199-2.2,2.199-4.5,3.5-7.1
			C461.5,348.4,457.901,348.1,454.2,347.8z M442.1,381.6c-1.199-0.199-2.4-0.399-3.5-0.699c0.199-0.5,0.4-1.5,0.5-1.5
			c1.1,0.199,2.199,0.5,3.301,0.699C442.299,380.6,442.2,381.1,442.1,381.6z M443.799,373.8c1.602-0.6,2.5-0.899,3.701-1.3
			c0,1.4,0.1,2.7,0.199,4.9C446.2,376,445.2,375.1,443.799,373.8z"/>
		<path d="M438.1,145.7c-0.801-1.5-2.4-2.7-3.6-4.1c-0.201,0.2-0.4,0.3-0.6,0.5c9.6,17.9,16.6,36.7,20.898,56.5
			c4.301,19.9,5.701,39.9,4.4,60.2c-1.199,17.601-8.6,49.5-12.1,58.3c-7.4,18.801-16.4,36.601-28.199,53
			c-11.9,16.5-25.801,31-41.801,43.5C361.2,426.2,343.799,436.3,325,443.9c-18.801,7.6-38.301,12.399-58.5,14.5
			c-20,2.1-39.9,1.199-60.3-2.2c0.6,1,0.7,1.6,1.1,1.6c1.5,0.5,3,1.101,4.5,1.3c6.201,0.801,12.5,1.601,18.8,2
			c6,0.4,12,0.601,17.9,0.4c76.5-2.9,136-36.5,178.6-100.1c9.1-13.4,16-28.101,21.6-43.4c8-21.8,12.201-44.2,12.9-67.4
			C462.7,213.6,454.799,178.7,438.1,145.7z"/>
		<path d="M109.2,74.3c11.5-9.2,23.9-17.1,37-23.8c66.2-33.9,147.3-30.8,210.701,8c1.1,0.7,2.898,1.2,1,3
			C333.2,46.5,306.7,36.2,278.1,31.9c-7.301-1.1-14.6-2-22-2.3c-53-2.8-100.7,12.2-143.1,44.3c-0.9,0.7-2.3,0.9-3.5,1.3
			C109.4,74.9,109.3,74.6,109.2,74.3z"/>
		<path d="M301.7,346.1c-0.4-0.1-0.699-0.199-1.1-0.3c-1-0.3-2-0.5-3-0.7c1.4,0.5,2.801,1.2,4.1,2V346.1z"/>
		<path d="M241.799,275.2c0-3.101,0-6.101,0-9.2c0-15.8,0-31.6,0-47.3c0-1,0-1.9-0.1-2.9c-0.6-4.7-4.699-8.1-9.4-7.8
			c-4.5,0.3-8.199,4-8.299,8.7c-0.101,5.1,0,10.2,0,15.3c0,22.1,0,44.2,0,66.3c0,8.8-7.5,14.601-15.601,12.2
			c-5-1.5-8.5-5.9-8.5-11.1c-0.1-13.301-0.1-26.7,0-40c0-0.801,0.8-1.601,1.3-2.4c0.2,0.1,0.5,0.2,0.7,0.3c0,12.5,0,25.101,0,37.601
			c0,1.3,0,2.6,0,3.899c0.2,5.7,4.5,10.101,10,10.101c5.6,0,10-4.5,10-10.301c0-26.6,0-53.1,0-79.7c0-1.7,0.101-3.5,0.5-5.2
			c1.399-4.9,5.899-8,11-7.7s9.399,3.9,10.101,8.8c0.399,2.7,0.299,5.5,0.299,8.3c0,14.7,0,29.5,0,44.2c0,1.8,0.101,3.601-0.1,5.4
			c-0.1,1-0.699,1.899-1.1,2.8C242.4,275.4,242.1,275.3,241.799,275.2z"/>
		<path d="M107.2,75.6c0.7,0.6,1.3,1,2,1.6c-1.9,1.3-3.7,2.6-5.5,3.8c-0.1-0.1-0.1-0.2-0.2-0.4c-0.8,1.1-1.4,2.3-2.4,3.1
			c-46.7,43-70.9,96.1-72,159.7c0,1.199,0.3,2.6-2.2,2.3C27.9,176.8,54.9,120.3,107.2,75.6z"/>
		<path d="M84.5,388.5c-1.5,1.7-2.3,0.4-3.2-0.7C66.6,371,54.6,352.5,45.6,332c-10.7-24.2-16.7-49.6-18.2-76.1
			c-0.1-0.9,0-1.801,0-2.801c0.3-0.1,0.5-0.1,0.8-0.199c0.5,2,1.3,4,1.4,6C32.8,302.7,48,342,74.9,376.7
			C78,380.8,81.3,384.6,84.5,388.5z"/>
		<path d="M350.6,393.4c-73.6,0-147,0-220.6,0C131.8,392.1,348.799,392.2,350.6,393.4z"/>
		<path d="M373.7,69.7c25.301,18.9,45.5,42,60.9,69.4c-1.699,1.3-1.699,1.3-2.801-0.7c-7.898-13.9-17.299-26.8-28.1-38.7
			c-8.9-9.8-18.699-18.8-29.299-26.8C373.5,72.1,371.7,71.5,373.7,69.7z"/>
		<path d="M181,401.1c45.9,0,91.799,0,137.6,0c0,0.2,0,0.301,0,0.5c-45.9,0-91.801,0-137.6,0C181,401.4,181,401.2,181,401.1z"/>
		<path d="M338.1,106.1c2.4-4,4.9-8.1,7.301-12.1c-0.102-0.1-0.201-0.3-0.301-0.4c-2.699,1.8-5.4,3.5-8.301,5.5
			c0.201-3.4,0.301-6.5,0.5-9.6c-0.199-0.1-0.299-0.2-0.5-0.2c-2.199,4.1-4.5,8.3-6.699,12.4c-1.6-0.2-2.199-0.6-1.4-2.2
			c2.9-5.4,5.701-10.9,8.5-16.3c1.701,0,2.301,0.8,2.301,2.4c-0.1,3,0,6.1,0,9.4c1.699-1.1,3.4-2.4,5.299-3.4
			c1.701-0.9,3.102-3.6,5.801-1c-3.301,5.4-6.699,10.8-10.1,16.1c-0.301,0.4-1.4,0.3-2.1,0.5C338.2,106.7,338.2,106.4,338.1,106.1z"
			/>
		<path d="M128.7,425.8c0.6,0.3,1.2,0.601,1.8,1c16.9,10.601,34.9,18.601,54,24.2c1.2,0.3,3.1,0.3,1.9,3c-6.9-2.4-13.9-4.6-20.7-7.2
			c-12.2-4.6-23.9-10.5-34.9-17.399c-1.1-0.7-1.7-1.9-2.6-2.9C128.2,426.2,128.5,426,128.7,425.8z"/>
		<path d="M194.3,72.3c1.3,4.8,2.6,9.6,3.9,14.4c-0.1,0.2-0.2,0.5-0.4,0.7c-0.7-0.4-1.9-0.6-2-1.2c-1.8-5.9-3.4-11.9-5.1-17.9
			c1.6-1.1,2.8-1.2,4,0.5c2.8,3.8,5.9,7.4,9.2,10.9c-0.9-3.9-1.8-7.9-2.7-11.8c-0.2-1-1.2-2.4,0.7-2.7c0.4-0.1,1.4,1.2,1.6,2
			c1.2,5.3,2.4,10.6,3.5,15.9c0.2,0.7-0.2,1.6-0.3,2.4c-0.8-0.4-1.8-0.5-2.3-1.1c-3.3-4.1-6.4-8.3-9.6-12.4
			C194.6,72.1,194.5,72.2,194.3,72.3z"/>
		<path d="M154.6,105.3c-3.5-5.9-6.8-11.5-10.3-17.5c2.4-1.3,4.6-2.6,6.9-3.7c2.3-1,4.5-0.7,6.2,1.3c1.7,2,2,4.2,0.9,6.6
			c-0.3,0.5-0.5,1.1-0.9,1.8c2.9,1.6,5.8,3.2,8.7,4.8c0,0.3-0.1,0.6-0.1,0.9c-1.1-0.1-2.2,0.1-3.2-0.3c-1.7-0.7-3.3-1.6-4.8-2.7
			c-1.9-1.4-3.6-1.4-5.4,0.5c1.1,2.4,2.3,4.8,3.4,7.3C156.2,104.4,155.3,104.9,154.6,105.3z M147.3,87.9c1.6,2.7,3,5.2,4.4,7.6
			c2.5-1.3,5.2-2.3,5-5.3c-0.1-1.5-1.1-3.6-2.3-4.3C151.8,84.5,149.7,86.6,147.3,87.9z"/>
		<path d="M209.2,427.4c1.1,2,2.1,3.899,3.4,6.3c2.1-5.5,4-10.5,5.9-15.4c0.199,0,0.399,0,0.5,0c1.5,5.3,3,10.601,4.6,16
			c-0.2,0.2-0.5,0.3-0.7,0.5c-0.5-0.8-1.3-1.5-1.399-2.399c-0.301-2.101-1.301-2.9-3.5-2.9c-1.701,0-2.5,0.5-2.9,2.1
			c-0.3,1.101-0.3,2.601-2.3,2.601c-1.9,0-2.4-1-3-2.3c-0.5-1-0.9-2.101-1.6-3c-0.6-0.801-1.6-1.2-2.8-2.101
			c-0.3,2.8-0.6,4.8-0.8,6.8c-0.4,0-0.8-0.1-1.2-0.1c0.3-5,0.5-10,0.8-14.9c2.8-1.1,5.9-0.399,7,1.301
			C212.6,422.1,212,424.4,209.2,427.4z M205.3,425.6c0.2,0.301,0.4,0.5,0.7,0.801c1.3-0.601,3-0.9,3.8-1.9c0.7-0.9,0.7-3,0.1-3.8
			c-0.7-1-2.5-1.101-4.1-1.7C205.6,421.7,205.4,423.6,205.3,425.6z M220.4,428c-0.601-2-1.101-3.8-1.8-6.3c-0.9,2.5-1.5,4.3-2.2,6.3
			C217.8,428,218.9,428,220.4,428z"/>
		<path d="M116.2,124.9c-0.6,3.6,3.4,6.6,0.2,10.2c-0.8-3-1.7-5.9-2.5-8.9c-0.4-1.5-1.1-2.3-2.7-2.7c-3-0.6-5.9-1.5-9.3-2.3
			c3.7-4.1,7,0.5,10.3-0.1c0.7-3.1-3.4-6.4,0.4-9.8c0.7,2.9,1.4,5.8,2,8.8c0.3,1.6,1,2.4,2.6,2.8c2.9,0.8,5.8,1.9,8.8,2.8
			c-0.8,1.8-1.9,2-3.4,1.4C120.5,126.4,118.3,125.7,116.2,124.9z"/>
		<path d="M352.799,91.8c0.801,0.6,1.4,0.9,2,1.3c-0.1,0.3-0.1,0.6-0.299,0.8c-2.5,3.7-4.9,7.5-7.4,11.2c-1.9,3-1.801,4.9,0.4,6.4
			c2,1.3,3.799,0.7,5.9-2.2c2.699-3.8,5.398-7.5,8.199-11.4c0.699,0.5,1.301,1,2.1,1.5c-3.199,4.3-6.199,8.5-9.299,12.5
			c-1.9,2.4-5.102,2.5-7.801,0.7c-2.699-1.9-3.6-4.9-1.9-7.8C347.2,100.4,350,96.2,352.799,91.8z"/>
		<path d="M106.9,146.1c-5.2-4.2-10.3-8.4-15.7-12.8c2.8-3.2,5.5-6.3,8.3-9.3c0.3-0.3,1-0.2,1.5-0.4c-0.2,0.5-0.2,1.1-0.5,1.5
			c-2,2.3-4.1,4.6-6.2,7c1.9,1.6,3.7,3.1,5.5,4.7c1.7-1.9,3.4-3.6,5-5.4c0.5,3.1-2.7,4.1-3.4,6.7c1.8,1.6,3.8,3.3,5.9,5.1
			c2.6-2.3,4.3-5.4,7.1-7.2c0.2,0.3,0.5,0.5,0.7,0.8C112.3,139.9,109.7,142.9,106.9,146.1z"/>
		<path d="M125.8,115.8c1.7,2,3.3,4,5.1,6.2c-0.6,0.5-1.1,1-1.7,1.5c-4.4-5.1-8.7-10.2-13.2-15.5c2.4-1.8,4.5-3.6,6.8-5.1
			c2.6-1.6,5-1.1,6.9,1c2,2.3,2.2,4.9,0.3,7.4C128.7,112.9,127.3,114.2,125.8,115.8z M119,107.7c1.8,2.2,3.7,4.4,5.5,6.7
			c4.7-3.4,5.6-5.9,3.2-8.6C125.5,103.1,123.1,103.6,119,107.7z"/>
		<path d="M126.1,426.9c-2.6-2.101-4.9-4.101-7.3-6c-1.2-0.9-2.8-1.4-4-2.4c-7.3-6.1-14.5-12.3-21.7-18.5c-0.9-0.8-1.2-2.2-1.8-3.4
			c0.3-0.1,0.5-0.3,0.8-0.399c3.1,2.899,6.1,6,9.4,8.7c7.7,6.199,15.6,12.199,23.4,18.199C126.5,424.5,126.6,424.4,126.1,426.9z"/>
		<path d="M300.799,68.2c0.9,0.3,1.602,0.5,2.5,0.8c-3.398,6-6.699,11.8-10.199,17.6c-0.301,0.4-1.4,0.8-1.9,0.5
			c-0.6-0.3-1.299-1.1-1.4-1.8c-0.1-6.5-0.1-13-0.1-19.5c2.1-0.7,2.5,0.4,2.5,2.1c0,5.1,0,10.2,0,15.7
			C295.2,78.4,297.901,73.4,300.799,68.2z"/>
		<path d="M399.1,140.5c-0.4-1.6-1-2.6-0.699-3.4c0.699-2,0.199-3.7-1.201-4.7c-1.299-0.9-3.4-1.7-4.699-1.3
			c-4.301,1.3-7.701,4.3-9.6,8.4c-0.602,1.2-0.201,3.5,0.6,4.5c0.799,1,2.799,1,4.299,1.5c0.9,0.3,1.801,0.6,3.102,1
			c-2.801,2-5,1.7-6.9,0.2c-2.4-1.9-4.201-4.3-3.301-7.4c1.5-5.4,5.4-8.8,10.5-10.4c3.201-1,5.801,0.6,7.801,3.1
			c1.5,2,2.699,4.2,1.4,6.8C400.2,139.2,399.901,139.5,399.1,140.5z"/>
		<path d="M375.7,112.2c-0.6-0.5-1.299-1-1.699-1.6c-1-1.3-1.5-3.1-2.801-4c-1-0.7-3-0.8-4-0.2c-0.799,0.4-1.199,2.4-1,3.6
			c0.4,2.2,1.5,4.3,2.201,6.4c0.898,2.5,1,4.8-1.4,6.6c-2.1,1.6-4.4,1.5-7.1-0.3c-2.5-1.7-3.701-3.6-3.701-7.4
			c0.5,0.5,1.201,1,1.6,1.6c1,1.5,1.602,3.5,3,4.3c1.102,0.7,3.201,0.5,4.602-0.1c1.699-0.7,1.699-2.5,1.1-4.1
			c-0.801-2.3-1.701-4.6-2.6-6.9c-0.801-2.1-0.5-4,1.199-5.5c1.801-1.6,3.699-1.2,5.6-0.2c3,1.5,4.701,4,5.6,7.1
			C376.1,111.8,375.901,112,375.7,112.2z"/>
		<path d="M151.3,105.6c0,1.7-3.2,4.2-9.3,7.6c-3.8-5.4-7.6-10.8-11.6-16.4c3.7-2.4,7.2-4.7,10.8-7.1c0.2,0.3,0.4,0.5,0.6,0.8
			c-2.2,2.7-5.8,3.6-8.3,6.2c1.3,1.9,2.6,3.8,4,5.8c2.1-1.3,3.9-2.5,5.8-3.7c0.2,0.2,0.4,0.5,0.6,0.7c-0.7,0.7-1.4,1.4-2.2,2
			c-1,0.8-2.1,1.5-3.4,2.3c1.6,2.4,3.2,4.6,4.7,6.9C145.8,109,148.4,107.4,151.3,105.6z"/>
		<path d="M313.5,83.1c-2.1-0.6-4.301-1.3-6.6-2c-0.9,2.6-1.801,5.1-2.602,7.6c2.801,1.7,6.201,1.8,8.5,3.9
			c-0.1,0.3-0.299,0.6-0.398,0.8c-3.5-1.3-7-2.6-10.701-3.9c2.1-6.3,4.1-12.5,6.201-18.7c4.398,0.4,11.299,3.4,11.5,5.2
			c-3.102-1.1-6.102-2.2-9.5-3.4c-0.801,2.3-1.5,4.5-2.301,6.8c2.199,0.9,4.301,1.8,6.4,2.7C313.7,82.5,313.6,82.8,313.5,83.1z"/>
		<path d="M193.7,88.1c-3.5,1.2-7,2.4-10.9,3.7c-2.3-6.3-4.6-12.4-7-18.8c4-1.6,7.9-3.1,11.9-3.9c0.1,0.3,0.2,0.7,0.3,1
			c-3.1,1.1-6.1,2.1-9.4,3.3c0.8,2.3,1.6,4.5,2.4,6.9c2.2-0.7,4.3-1.4,6.5-2c0.2,0.3,0.3,0.6,0.5,0.9c-0.9,0.4-1.7,0.9-2.6,1.3
			c-1.1,0.5-2.3,0.8-3.7,1.4c0.9,2.6,1.8,5.1,2.8,7.8c3.1-1,6-1.9,8.9-2.8C193.5,87.3,193.6,87.7,193.7,88.1z"/>
		<path d="M228.299,71.7c0.201,2.7,0.5,5.3,0.701,8.2c3.199,0,6.199,0,9.199,0c0,0.3,0,0.6,0,0.9c-3.6,0.3-7.3,0.5-11.3,0.8
			c-0.7-6.7-1.399-13.2-2.101-20.1C229,61.2,233,61,237,60.7c0,0.4,0.1,0.8,0.1,1.2c-3.1,0.3-6.301,0.6-9.7,0.9
			c0.2,2.5,0.399,4.8,0.601,7.2c2.5,0,4.6,0,6.799,0c0,0.3,0.101,0.6,0.101,0.9C232.9,71.1,230.7,71.4,228.299,71.7z"/>
		<path d="M220.7,66.7c-1.199-0.6-2.199-0.8-2.8-1.4c-2.4-2.4-6.5-1.6-7.3,1.7c-1.1,4.7-0.3,9.3,2.5,13.3c0.7,1,2.6,1.7,3.8,1.5
			c1.101-0.2,2-1.7,3-2.7c0.5-0.5,1-1.1,1.7-1.5c0.699,2.3-0.1,3.9-2,5c-2.4,1.4-5.4,1.3-7.4-0.3c-3.7-2.8-5.7-12.5-3.4-16.6
			c1.4-2.4,4.5-3.8,7.7-3.3C218.7,62.7,220.2,63.7,220.7,66.7z"/>
		<path d="M385.799,120.7c-3.898,4-7.898,8-11.898,12.1c0.299,0.4,0.898,1.2,1.6,2c-1.801,0.6-6.5-3.9-6.201-6.2
			c0.801,0.6,1.5,1.2,2,1.5c4.102-3.9,8.201-7.8,12.301-11.6c-0.699-1.1-1.4-2-1.6-2.4c1.9,1.9,4.1,4.2,6.1,6.1
			C387.401,121.9,386.6,121.3,385.799,120.7z"/>
		<path d="M225.6,434.5c0-2,0-4,0-6.1c0-2.5,0.1-5.101,0.3-7.601c0-0.6,0.601-1.2,1-1.8c0.5,0.5,1.101,0.8,1.3,1.4
			c1.301,3.199,2.6,6.5,3.801,9.699c0.299,0,0.5,0,0.799,0c0-3.6,0-7.199,0-10.8c0.301,0,0.701,0,1,0.101c0,5.199,0,10.5,0,16.3
			c-2.6-1.601-2.6-4.2-3.5-6.101c-1-2-1.699-4.199-2.899-6.3c-0.2,3.8-0.399,7.601-0.5,11.3C226.4,434.5,226,434.5,225.6,434.5z"/>
		<path d="M173.6,93.8c1.1-0.3,2-0.5,2.9-0.8c0.1,0.3,0.3,0.5,0.4,0.8c-2.1,1.8-4.9,2.3-7.2,3.6c-0.2-0.2-0.4-0.4-0.5-0.7
			c0.7-0.6,1.4-1.3,2.3-2.2c-2.2-4.9-4.5-10-6.8-15.3c-1.1,0.4-2.1,0.8-3,1.1c0.1-2,6-4.8,8.4-3.9c-1,0.6-1.8,1.1-3,1.8
			C169.1,83.4,171.4,88.6,173.6,93.8z"/>
		<path d="M179,415.8c-0.6,5.3-1.1,10.601-1.7,15.9c-0.3,0-0.6,0.1-0.9,0.1c-2.3-3.8-2.5-8.399-4.6-13.2c-0.6,4.301-1.1,8-1.5,11.7
			c-0.2,0.101-0.4,0.101-0.6,0.2c-0.2-0.4-0.6-0.8-0.6-1.2c0.4-4.3,0.9-8.5,1.5-12.8c0.1-0.5,0.7-1,1-1.5c0.4,0.5,1.1,0.9,1.3,1.4
			c1.1,3.3,2,6.6,3.5,9.899c0.5-3.6,0.9-7.1,1.4-10.7C178.2,415.7,178.6,415.7,179,415.8z"/>
		<path d="M278.299,81.9c1.201,0.6,2,1,2.801,1.4c-0.1,0.3-0.199,0.6-0.301,0.8c-2.6-0.7-5.399-0.4-7.6-2.5c0.9,0,1.801,0,3,0
			c0.9-5.5,1.9-11,2.801-16.5c-1.201-0.5-2.101-0.9-3.101-1.2c0.101-0.3,0.2-0.7,0.3-1c2.9,0.5,5.701,1,8.6,1.5
			c0,0.4-0.1,0.8-0.1,1.2c-0.9,0-1.9-0.1-3.199-0.2C280.401,70.8,279.299,76.4,278.299,81.9z"/>
		<path d="M309.901,423.4c2.398,1.3,3.299,3.399,2.5,5.8c-1.301,3.6-4.701,2.5-7.701,3.1c-0.5-5.2-0.9-10.3-1.4-15.5
			c2.701-0.3,5.301-1.5,7.301,0.9C312.1,419.5,311.6,421.6,309.901,423.4z M305.901,431.4c2-0.9,3.699-1.301,4.799-2.301
			c0.5-0.5,0.301-2.699-0.299-3.199c-1.201-0.9-3-1.2-5-1.801C305.6,426.7,305.7,428.5,305.901,431.4z M305.401,423.9
			c1.699-0.9,3.199-1.301,4.1-2.4c0.5-0.6,0.4-2.7-0.201-3c-1.199-0.7-2.699-0.8-4.5-1.2C305,419.8,305.1,421.5,305.401,423.9z"/>
		<path d="M260.9,61.2c-0.5,6.2-0.899,12.3-1.399,18.5c3.199,0.4,6.299,0.8,9.299,1.2c0,0.4-0.1,0.7-0.1,1.1
			c-3.699-0.3-7.5-0.6-11.5-0.9c0.2-2.7,0.4-5.2,0.5-7.7c0.2-3.6,0.5-7.1,0.6-10.7C258.299,61,259.1,60.6,260.9,61.2z"/>
		<path d="M290.799,426.3c-0.299,1.9-0.299,3.4-0.699,4.9c-0.5,1.8-1.9,2.899-3.801,3c-2,0.2-3.699-0.5-4.5-2.4
			c-1.5-3.7-2-7.7-0.5-11.5c0.5-1.2,2.301-2.2,3.701-2.6c1.799-0.5,3.6,0.399,4.199,2.2C290,422.1,290.299,424.4,290.799,426.3z
			 M281.7,425.3c0.4,1.8,0.6,3.9,1.4,5.8c0.4,0.9,1.9,1.7,2.9,1.7c0.9,0,2.199-1,2.5-1.899c1.199-3.4,0.9-7-0.6-10.2
			c-0.4-0.9-1.9-1.7-2.9-1.7c-0.801,0-2,1-2.5,1.9C282,422.1,282,423.6,281.7,425.3z"/>
		<path d="M336.901,428.1c0.898-5.5,1.898-10.899,2.898-17.199c2.9,5.699,5.4,10.699,7.9,15.6c-0.199,0.2-0.5,0.4-0.699,0.7
			c-0.6-0.7-1.4-1.3-1.801-2.101c-0.699-1.6-1.299-2.5-3.4-2.199c-2,0.3-3,1-3,3c0,0.899-0.6,1.699-0.898,2.5
			C337.6,428.4,337.2,428.2,336.901,428.1z M339.401,422c1.5-0.3,2.6-0.5,4-0.7c-0.9-1.899-1.801-3.6-2.9-5.899
			C340.1,417.9,339.799,419.8,339.401,422z"/>
		<path d="M166.2,430.1c-0.4-0.8-0.9-1.6-1-2.5c-0.2-1.6-0.5-2.8-2.5-3c-2-0.199-3.4-0.1-4,2.2c-0.2,0.8-1.1,1.5-1.7,2.3
			c-0.3-0.199-0.6-0.399-0.8-0.6c2.4-5.1,4.9-10.2,7.6-16c1.2,6.1,2.2,11.6,3.3,17C166.8,429.8,166.5,429.9,166.2,430.1z
			 M163.4,417.8c-0.2,0-0.4,0-0.5,0c-0.8,1.7-1.5,3.4-2.4,5.4c1.5,0.1,2.7,0.3,4,0.399C164,421.4,163.7,419.6,163.4,417.8z"/>
		<path d="M316.901,422.1c1.799,0,3.299,0,4.799,0c0,0.2,0.1,0.4,0.1,0.601c-1.398,0.3-2.898,0.6-4.699,1c0.199,1.8,0.4,3.7,0.6,5.8
			c2.4-0.2,4.6-0.3,6.701-0.5c0,0.3,0.1,0.7,0.1,1c-2.6,0.4-5.201,0.8-8.201,1.2c-0.6-5.3-1.1-10.2-1.699-15.601
			c2.699-0.3,5.301-0.6,7.9-0.899c0.1,0.399,0.1,0.7,0.199,1.1c-2.1,0.4-4.199,0.7-6.5,1.101C316.6,418.6,316.7,420.2,316.901,422.1
			z"/>
		<path d="M266.6,421.4c-0.9-0.5-1.5-1.2-2.2-1.2c-1.101,0-2.8,0.1-3.2,0.7c-0.4,0.899-0.199,2.5,0.5,3.399c0.7,1,2.1,1.601,3.2,2.2
			c1.899,1.2,3.601,2.7,2.8,5c-0.5,1.4-1.8,2.8-3.1,3.4c-2.1,0.899-3.801,0-6.1-2.9c1.199,0.3,1.899,0.4,2.299,0.7
			c2.201,1.5,3.9,1.399,5-0.2c1.101-1.6,0.5-3.3-1.6-4.8c-1.199-0.8-2.8-1.4-3.6-2.5c-0.801-1.101-1.301-3-1-4.3
			c0.199-1,1.9-2.301,3-2.301c1.4,0,2.9,1,4.4,1.601C266.9,420.3,266.7,420.8,266.6,421.4z"/>
		<path d="M146.7,424.8c0.5,0.3,1.1,0.5,1.5,0.9c1.4,1.399,2.9,2.2,4.6,0.8c1.4-1.1,1.8-2.7,0.5-4.1c-0.8-0.9-1.8-1.7-2.7-2.5
			c-2.7-2.4-3.2-5.101-1.1-7c1.9-1.801,4.8-1.101,6.8,2.1c-0.5-0.2-1.2-0.2-1.6-0.5c-1.4-1.2-2.9-2-4.3-0.2
			c-1.4,1.7-0.3,3.101,1,4.3c0.8,0.7,1.6,1.4,2.3,2.101c2.2,2.2,2.4,5.1,0.3,6.899c-1.7,1.601-5,1.2-6.9-0.8
			c-0.3-0.399-0.6-0.899-0.9-1.3C146.4,425.2,146.5,425,146.7,424.8z"/>
		<path d="M245.1,422.4c-0.5,0-0.6,0-0.7,0c-1.101-1-1.899-3.4-3.8-2.101c-1.301,0.9-2.301,2.8-2.6,4.4c-0.4,2-0.201,4.2,0.199,6.2
			c0.301,1.1,1.301,2.5,2.4,3c1.5,0.699,2.6-0.4,3.1-2c0.1-0.301,0.6-0.4,1.2-0.801c0.3,2.2-0.601,3.4-2.3,4
			c-1.9,0.601-3.6,0.301-4.9-1.399c-2-2.7-1.9-10.601,0.2-13.3c1.2-1.601,2.899-2,4.7-1.5C244.2,419.4,245.2,420.5,245.1,422.4z"/>
		<path d="M278.2,421.6c-0.5-0.199-0.8-0.399-1-0.5c-1.1-0.6-2.4-1.8-3.1-1.5c-1.1,0.4-2.2,1.9-2.4,3
			c-0.3,2.5-0.199,5.101,0.301,7.5c0.199,1.2,1.5,2.7,2.6,3.101c1.699,0.7,2.6-0.9,3.1-2.4c0.1-0.2,0.4-0.3,1.301-0.3
			c-0.4,1-0.5,2.7-1.201,3c-1.5,0.6-3.199,0.7-4.899,0.6c-0.601,0-1.3-0.899-1.601-1.6c-1.799-4.1-2.199-8.3-0.199-12.4
			c0.5-1.1,2.5-2,3.8-2c1.101-0.1,2.2,1.2,3.3,2C278.299,420.4,278.2,421,278.2,421.6z"/>
		<path d="M193.3,417c3,0.3,5.5,0.5,8.1,0.7c0,0.2,0,0.5,0,0.7c-2.1,0-4.3,0-6.7,0c-0.2,1.8-0.4,3.5-0.6,5.399
			c1.8,0.3,3.5,0.5,5.1,0.7c0,0.2,0,0.5,0,0.7c-1.6,0-3.2,0-5.1,0c-0.3,2.6-0.5,4.899-0.8,7.8c-0.6-0.7-1.2-1.1-1.2-1.4
			C192.5,426.9,192.9,422.2,193.3,417z"/>
		<path d="M337.401,311c-4.9,0-9.801,0-14.9,0c-0.1-0.4-0.1-1.1-0.301-1.9c4.701,0,9.301,0,13.9,0.101c0.6,0,1.1,0.7,1.699,1.1
			C337.7,310.5,337.5,310.7,337.401,311z"/>
		<path d="M187.6,453.2c0.9-0.2,1.8-0.7,2.5-0.5c4.6,0.899,9.2,2,13.8,3.1c0.6,0.2,1.1,0.9,1.7,1.4c-0.2,0.3-0.4,0.6-0.6,0.899
			c-5.8-1.3-11.5-2.5-17.3-3.8C187.7,453.9,187.7,453.6,187.6,453.2z"/>
		<path d="M324.2,414.4c3.301-0.4,6.701-0.801,10-1.301c0.1,0.301,0.1,0.7,0.201,1c-1.4,0.301-2.801,0.7-4.4,1.101
			c0.5,4.2,1.1,8.3,1.5,12.399c0.1,0.601-0.201,1.2-0.4,1.801c-0.301,0-0.5-0.101-0.801-0.101c-0.6-4.6-1.199-9.1-1.898-14
			c-1.5,0-3,0-4.4,0C324.1,415,324.1,414.7,324.2,414.4z"/>
		<path d="M61.1,225.4c2.2-1.2,2.9-4.2,6-3.2c-0.2,2.5-0.5,4.899-0.7,7.6C63.1,230.1,63,227,61.1,225.4z"/>
		<path d="M402.5,338.8c-2.301,0.3-4.1,2.601-6.701,0.601c1.301-2.301,2.602-4.5,4-6.801C402.799,333.9,401.5,336.6,402.5,338.8z"/>
		<path d="M422.901,235.5c-0.201-2.7-0.4-5.1-0.602-7.8c3.201-0.9,3.701,2.2,5.701,3.3C426.5,232.7,426.1,235.3,422.901,235.5z"/>
		<path d="M425.1,279.2c-2,0.899-2.9,3.899-5.9,2.5c0.5-2.5,0.9-5,1.4-7.4C422.901,274.6,422.901,274.6,425.1,279.2z"/>
		<path d="M413.799,304.1c0.9,1.801,1.801,3.5,2.9,5.7c-2.4,0.7-3.799,3.4-6.699,1.8c0.9-2.399,1.9-4.699,2.799-7
			C413.1,304.4,413.401,304.3,413.799,304.1z"/>
		<path d="M368.2,296.9c-0.4,1.3-0.4,2.3-0.9,2.8c-1,1.1-2.1,2.1-3.299,3c-2.4,1.6-4.9,3.1-7.4,4.6c-0.199-0.1-0.5-0.2-0.699-0.399
			c0.299-0.7,0.5-1.7,1.1-2.101C360.401,302.3,363.901,299.9,368.2,296.9z"/>
		<path d="M78.9,177c-1,2.4-1.8,4.7-2.8,7.2c-3.1-0.6-2.5-3.6-3.7-5.5C74.6,177.9,76,175.4,78.9,177z"/>
		<path d="M409.1,174.9c-1.1-2.4-2.1-4.7-3.199-7.1c2.799-1.8,4.299,0.8,6.6,1.3C411.5,171.2,412.1,173.8,409.1,174.9z"/>
		<path d="M417.299,289.4c3.301,0.5,2.801,3.399,4.201,5.199c-2.1,0.801-3.201,3.601-6.301,2.301
			C415.901,294.5,416.6,292.1,417.299,289.4z"/>
		<path d="M249.2,433.9c0.7-0.2,1.301-0.5,2-0.7c0-3.7,0.1-7.4-0.1-11c0-0.8-1-1.601-1.7-2.601c1.5,0,3.3,0,4.399,0
			c-0.399,1.4-1.1,2.7-1.199,4.101c-0.2,3.1-0.1,6.3-0.1,9.5c1,0.2,1.699,0.399,2.399,0.6c0,0.3,0,0.601,0,0.9
			c-1.899,0.1-3.8,0.2-5.7,0.3C249.299,434.6,249.2,434.3,249.2,433.9z"/>
		<path d="M73.6,191.7c-0.8,2.6-1.4,5-2.1,7.5c-3.1-0.4-2.8-3.3-4.2-5.2C69.4,193.1,70.5,190.4,73.6,191.7z"/>
		<path d="M428.799,247.2c-1.898,1.6-3.398,2.899-4.898,4.2c-0.201-0.2-0.5-0.4-0.701-0.601c0-2.5,0-5.1,0-7.7
			C426.401,242.7,426.6,245.7,428.799,247.2z"/>
		<path d="M414.5,189.5c-0.9-2.5-1.701-4.8-2.4-7.1c2-1.3,2-1.3,6.199,1.8C417.2,185.9,417.7,188.6,414.5,189.5z"/>
		<path d="M423.5,199.2c-1.701,2.4-2.9,4-4,5.6c-0.301-0.1-0.6-0.3-0.9-0.4c-0.6-2.4-1.199-4.8-1.9-7.4
			C419.799,195.6,420.7,198.9,423.5,199.2z"/>
		<path d="M69.7,206.8c-0.5,2.6-0.9,5-1.4,7.7c-3.2-0.2-3.1-3.2-4.6-4.9C65.6,208.4,66.5,205.7,69.7,206.8z"/>
		<path d="M391.5,345.7c2.799,1.7,1.6,4.2,2,6.399c-2.301,0.101-4.201,2.301-6.5-0.1C388.401,350,389.901,348,391.5,345.7z"/>
		<path d="M91.7,347.5c0.7-2.5,1.2-4.4,1.7-6.3c0.3,0,0.6,0,0.9,0.1c1.4,2.101,2.9,4.101,4.4,6.4C96.3,350,94.3,347.6,91.7,347.5z"
			/>
		<path d="M78.5,164c2.5-0.5,4-3,6.8-1.2c-1.1,2.3-2.2,4.5-3.3,6.9C78.7,169,80,165.9,78.5,164z"/>
		<path d="M67.4,268.7c0.4,2.6,0.8,5,1.3,7.7c-3.1,1.199-3.9-1.9-6-2.9C64.1,271.7,64.2,269,67.4,268.7z"/>
		<path d="M86.5,327.9c1.3,2.3,2.5,4.399,3.7,6.5c-1.9,1.5-2.4,1.399-6.3-0.801C84.2,329.2,84.3,329,86.5,327.9z"/>
		<path d="M403.5,325.6c1.1-2.3,2.299-4.5,3.4-6.8c2.799,0.7,2.199,3.2,2.799,4.9c0.1,0.3-0.5,1.3-1,1.399
			C407.1,325.7,405.5,327.7,403.5,325.6z"/>
		<path d="M79.8,313.8c1.1,2.4,2.1,4.601,3.1,6.8c-1.2,1.801-2.6,0.9-3.8,0.101c-0.9-0.5-2.4-1.5-2.2-2
			C77.3,317,76.8,314.5,79.8,313.8z"/>
		<path d="M89.1,156c-3-1.2-1.8-3.9-2.6-6c2.2-0.7,4.1-2.6,6.6-0.7C91.7,151.5,90.4,153.7,89.1,156z"/>
		<path d="M76.9,306.5c-3,1.5-4.2-1.1-6.4-1.9c1.3-1.899,0.7-4.699,3.9-5.399C75.2,301.6,76,303.9,76.9,306.5z"/>
		<path d="M65.9,253.4c0.2,2.6,0.4,4.899,0.6,7.5c-3.3,1.1-3.7-2.301-5.9-3.4C62.6,256.1,62.6,252.8,65.9,253.4z"/>
		<path d="M426.5,215.2c-2,1.6-1.801,4.8-5,4.5c-0.4-2.5-0.801-4.9-1.301-7.5C423.299,211,424.1,214.1,426.5,215.2z"/>
		<path d="M72.1,291.6c-3,1.301-4.1-1.399-6.2-2.399c1.3-1.9,1.1-4.601,4.3-5.2C70.8,286.5,71.4,289,72.1,291.6z"/>
		<path d="M60.4,241.4c1.8-1.301,2.2-4.2,5.3-3.7c0,2.6,0,5.1,0,7.5C63.5,245.5,63.5,245.5,60.4,241.4z"/>
		<path d="M422.5,258.8c3.299-0.1,3.299,2.9,5.1,4.3c-1.9,1.5-2.801,3.9-5.801,3.5C422,263.9,422.299,261.5,422.5,258.8z"/>
		<path d="M249.6,283.7c-1,3-2.801,2.3-4.301,1.7c-3.299-1.4-3.799-4-1.6-8.601C243.799,280.8,243.9,284.6,249.6,283.7z"/>
		<path d="M405.2,154.4c-0.199,1.3-0.299,2.2-0.5,3.8c-0.5-1.4-0.699-2-1.199-3.3c-1,1.3-1.701,2.2-2.5,3.2
			c-0.701-1.3-1.5-2.7-2.4-4.2C401.1,151.8,402.799,154.5,405.2,154.4z"/>
		<path d="M258.7,483.8c0.2,0.5,0.4,1.101,0.7,1.7c-1.601,0.9-2.8,3-5.601,1.4C255.6,485.7,257.1,484.7,258.7,483.8L258.7,483.8z"/>
		<path d="M29.2,248.4c0,1.399,0,2.699,0,4.1c-0.2,0.1-0.4,0.2-0.6,0.3c-0.5-0.8-1.3-1.5-1.4-2.3c0-0.8,0.7-1.7,1.1-2.5
			C28.7,248.1,28.9,248.2,29.2,248.4z"/>
		<path d="M84.6,391.6c0.6-0.699,1-1.199,1.4-1.699c0.8,0.899,1.7,1.8,2.5,2.699c-0.6,0.4-1.2,0.7-1.7,1.101
			C86.1,393,85.3,392.3,84.6,391.6z"/>
		<path d="M251.5,268.8c3.199,0.601,1.5,2.7,2.299,4.101C250.799,272.5,251.7,270.6,251.5,268.8z"/>
		<path d="M352.1,392.8c2.199,0,4.301,0,6.5,0c0,0.2,0,0.3,0,0.5c-2.199,0-4.301,0-6.5,0C352.1,393.1,352.1,393,352.1,392.8z"/>
		<path d="M158.6,472.2c1-0.101,2.1-0.5,2.9-0.2c0.6,0.2,0.9,1.3,1.8,2.6c-2.1-0.699-3.4-1.199-4.7-1.6
			C158.6,472.8,158.6,472.5,158.6,472.2z"/>
		<path fill="#FFFFFF" d="M451.1,121.8c-0.199,1.2-0.301,2.4-0.801,3.5c-0.199,0.6-1.1,1.2-1.699,1.2c-0.5,0-1.301-0.7-1.4-1.2
			c-0.199-0.6-0.1-1.6,0.4-2c0.801-0.8,2-1.3,3-1.9C450.7,121.5,450.901,121.6,451.1,121.8z"/>
		<path fill="#FFFFFF" d="M90.5,424.9c1,0.5,2.1,0.699,2.9,1.5c0.3,0.3-0.2,1.5-0.4,2.199c-1.1-0.8-2.1-1.6-3.2-2.3
			C90,425.8,90.2,425.4,90.5,424.9z"/>
		<path fill="#FFFFFF" d="M141.6,308.3c-8.1-1.899-14.8-5.8-20.2-11.8c-6.6-7.3-10.2-15.9-10-25.8c0.1-5.601,0.3-11.3,1.6-16.601
			c3.5-13.5,15.8-24.6,28.6-26.699C141.6,254.3,141.6,281.1,141.6,308.3z"/>
		<path fill="#FFFFFF" d="M149.6,309.4c-2-0.2-3.7-0.4-5.7-0.601c0-1.2,0-2.3,0-3.3c0-24.8,0-49.6,0-74.4c0-5,0.4-5.3,5.7-4.6
			C149.6,254,149.6,281.5,149.6,309.4z"/>
		<path fill="#FFFFFF" d="M337,241c-5.9,0-11.6,0-17.5,0c0-2.1,0-3.9,0-6.1c5.799,0,11.6,0,17.5,0C337,236.9,337,238.8,337,241z"/>
		<path fill="#FFFFFF" d="M319.5,249.5c0-2.1,0-3.9,0-6c5.799,0,11.6,0,17.5,0c0,1.9,0,3.9,0,6C331.2,249.5,325.5,249.5,319.5,249.5
			z"/>
		<path fill="#FFFFFF" d="M319.6,260.3c5.9,0,11.6,0,17.4,0c0,2.101,0,3.9,0,6.101c-5.701,0-11.5,0-17.4,0
			C319.6,264.5,319.6,262.5,319.6,260.3z"/>
		<path fill="#FFFFFF" d="M337,268.8c0,2.101,0,4,0,6.101c-5.801,0-11.6,0-17.4,0c0-2.101,0-4,0-6.101
			C325.401,268.8,331.1,268.8,337,268.8z"/>
		<path fill="#FFFFFF" d="M319.6,283.4c0-2,0-3.9,0-6c5.801,0,11.6,0,17.4,0c0,2,0,3.899,0,6C331.299,283.4,325.6,283.4,319.6,283.4
			z"/>
		<path fill="#FFFFFF" d="M319.7,285.8c5.9,0,11.5,0,17.301,0c0,2,0,3.9,0,6c-5.701,0-11.4,0-17.301,0
			C319.7,289.9,319.7,288,319.7,285.8z"/>
		<path fill="#FFFFFF" d="M319.6,300.3c0-2,0-3.899,0-6c5.801,0,11.6,0,17.4,0c0,2,0,3.9,0,6C331.299,300.3,325.6,300.3,319.6,300.3
			z"/>
		<path fill="#FFFFFF" d="M319.6,251.9c5.801,0,11.5,0,17.4,0c0,2.1,0,4,0,6.1c-5.801,0-11.5,0-17.4,0
			C319.6,256,319.6,254,319.6,251.9z"/>
		<path fill="#FFFFFF" d="M337,226.4c0,2.1,0,3.899,0,6.1c-5.801,0-11.5,0-17.4,0c0-2,0-3.9,0-6.1
			C325.5,226.4,331.2,226.4,337,226.4z"/>
		<path fill="#FFFFFF" d="M151.9,308.8c0-2.1,0-4,0-6.1c5.8,0,11.5,0,17.4,0c0,2,0,3.899,0,6.1C163.6,308.8,157.9,308.8,151.9,308.8
			z"/>
		<path fill="#FFFFFF" d="M151.9,241c-0.1-2.2-0.2-4.2-0.4-6.3c5.9,0,11.7,0,17.7,0c0,2.2,0,4.1,0,6.3
			C163.5,241,157.8,241,151.9,241z"/>
		<path fill="#FFFFFF" d="M152,243.4c5.7,0,11.4,0,17.2,0c0,2,0,4,0,6.199c-5.7,0-11.3,0-17.2,0C152,247.6,152,245.6,152,243.4z"/>
		<path fill="#FFFFFF" d="M151.9,275c0-2,0-3.9,0-6c5.7,0,11.4,0,17.3,0c0,1.9,0,3.9,0,6C163.5,275,157.8,275,151.9,275z"/>
		<path fill="#FFFFFF" d="M169.3,277.3c0,2.101,0,4,0,6.101c-5.8,0-11.5,0-17.4,0c0-2,0-4,0-6.101
			C157.7,277.3,163.3,277.3,169.3,277.3z"/>
		<path fill="#FFFFFF" d="M151.9,266.4c0-2,0-3.9,0-6c5.7,0,11.4,0,17.3,0c0,1.899,0,3.899,0,6C163.5,266.4,157.8,266.4,151.9,266.4
			z"/>
		<path fill="#FFFFFF" d="M169.3,251.9c0,2.1,0,4,0,6.1c-5.8,0-11.5,0-17.3,0c0-2,0-4,0-6.1C157.7,251.9,163.3,251.9,169.3,251.9z"
			/>
		<path fill="#FFFFFF" d="M169.3,294.3c0,2.101,0,4,0,6.101c-5.8,0-11.5,0-17.4,0c0-2,0-4,0-6.101
			C157.7,294.3,163.3,294.3,169.3,294.3z"/>
		<path fill="#FFFFFF" d="M151.9,291.9c0-2.2,0-4.101,0-6.101c5.8,0,11.4,0,17.3,0c0,2,0,4,0,6.101
			C163.5,291.9,157.8,291.9,151.9,291.9z"/>
		<path fill="#FFFFFF" d="M151.9,232.5c-0.1-0.6-0.1-1.1-0.1-1.6c0-1.4,0-2.801,0-4.4c5.9,0,11.6,0,17.4,0c0,1.9,0,3.9,0,6
			C163.4,232.5,157.7,232.5,151.9,232.5z"/>
		<path fill="#FFFFFF" d="M152,311.3c5.7,0,11.4,0,17.2,0c-0.1,3.2-2.1,5.7-5.1,5.9c-2.3,0.2-4.5,0.2-6.8,0
			C154.1,317,152.1,314.7,152,311.3z"/>
		<path fill="#FFFFFF" d="M169.2,224.1c-5.8,0-11.5,0-17.1,0c0-3.399,2.3-5.6,5.8-5.8C165.6,217.7,168.4,219.1,169.2,224.1z"/>
		<path fill="#FFFFFF" d="M319.799,224c0.201-3.6,2.5-5.7,6.201-5.8c7.9-0.3,10.4,1,11,5.8C331.2,224,325.5,224,319.799,224z"/>
		<path fill="#FFFFFF" d="M447.5,372.5c0.1,1.5,0.1,2.7,0.299,4.9c-1.5-1.4-2.5-2.4-3.898-3.601
			C445.401,373.2,446.299,372.9,447.5,372.5z"/>
		<path fill="#FFFFFF" d="M442.1,381.6c-1.199-0.199-2.301-0.399-3.5-0.6c0.199-0.5,0.4-1.5,0.5-1.5c1.1,0.1,2.199,0.4,3.301,0.7
			C442.299,380.7,442.2,381.2,442.1,381.6z"/>
		<path fill="#FFFFFF" d="M147.3,87.9c2.4-1.3,4.5-3.4,7.1-2c1.2,0.7,2.2,2.8,2.3,4.3c0.2,3.1-2.5,4-5,5.3
			C150.3,93.1,148.9,90.6,147.3,87.9z"/>
		<path fill="#FFFFFF" d="M205.3,425.6c0.1-2,0.3-3.899,0.4-6.6c1.6,0.6,3.4,0.7,4.1,1.7c0.6,0.8,0.5,2.899-0.1,3.8
			c-0.7,1-2.5,1.3-3.8,1.9C205.8,426.2,205.5,425.9,205.3,425.6z"/>
		<path fill="#FFFFFF" d="M220.4,428c-1.5,0-2.5,0-4,0c0.7-2,1.3-3.8,2.2-6.3C219.299,424.3,219.799,426.1,220.4,428z"/>
		<path fill="#FFFFFF" d="M119,107.7c4.1-4.1,6.4-4.6,8.7-2c2.4,2.7,1.5,5.3-3.2,8.6C122.7,112.1,120.9,109.9,119,107.7z"/>
		<path fill="#FFFFFF" d="M305.901,431.4c-0.201-2.9-0.301-4.7-0.4-7.301c2,0.7,3.699,0.9,5,1.801c0.6,0.5,0.799,2.699,0.299,3.199
			C309.6,430.1,307.901,430.5,305.901,431.4z"/>
		<path fill="#FFFFFF" d="M305.401,423.9c-0.201-2.5-0.4-4.101-0.602-6.5c1.801,0.399,3.301,0.399,4.5,1.199
			c0.5,0.301,0.701,2.4,0.201,3C308.5,422.6,307,423,305.401,423.9z"/>
		<path fill="#FFFFFF" d="M281.7,425.3c0.301-1.7,0.301-3.2,0.9-4.399c0.4-0.9,1.6-1.9,2.5-1.9c1,0,2.5,0.8,2.9,1.7
			c1.5,3.3,1.799,6.8,0.6,10.2c-0.301,0.899-1.6,1.899-2.5,1.899c-1,0-2.5-0.8-2.9-1.7C282.299,429.2,282.1,427.1,281.7,425.3z"/>
		<path fill="#FFFFFF" d="M339.401,422c0.398-2.2,0.6-4,1.1-6.6c1.199,2.3,2,4,2.9,5.899C342.1,421.5,340.901,421.7,339.401,422z"/>
		<path fill="#FFFFFF" d="M163.4,417.8c0.3,1.8,0.7,3.601,1,5.7c-1.3-0.1-2.5-0.2-4-0.4c0.9-2,1.7-3.699,2.4-5.399
			C163,417.7,163.2,417.8,163.4,417.8z"/>
	</g>
</g>
<rect id="_x3C_Slice_x3E_" x="-182.2" y="-270.8" fill="none" width="1" height="73"/>
<path fill="none" d="M299.401,332.8C285.1,331.6,270.6,330.4,256.1,330.4c2.3,0.8,4.5,1.6,6.8,2.5c4.899,0.199,9.8,0.3,14.7,0.5
	c10.199,0.3,25.699-0.601,33.9,6.8c0,0,0,0,0.1,0.1c-0.1-0.3-0.1-0.5-0.199-0.8c-0.301-1.4-0.201-2.6,0.299-3.5
	C308.2,334,303.901,333.2,299.401,332.8z"/>
<path fill="none" d="M305,349.9c0.6,0.199,1.299,0.5,1.9,0.699c-1.201-2.3-3.201-4.1-6.301-4.899c-1-0.3-2-0.5-3-0.7
	C300.401,346.1,303,347.7,305,349.9z"/>
<path fill="none" d="M194.8,341.7c1.6-0.4,3.3-0.8,4.9-1.101c-1.8,0.101-3.6,0.101-5.3,0.2C194.5,341.1,194.7,341.4,194.8,341.7z"/>
<path fill="none" d="M181.1,360.8c-0.2-0.1-0.4-0.2-0.5-0.3c-0.2-0.1-0.3-0.2-0.5-0.3c-0.1,0.1-0.2,0.1-0.3,0.2
	c-1.1,0.8-2.3,1-3.5,0.699c-0.1,0.101-0.2,0.2-0.3,0.2c1.1,3.2,3.7,5.601,6.7,7.4c0.1-0.4,0.3-0.7,0.5-1
	C180.1,366.4,179.7,363.1,181.1,360.8z"/>
<path fill="none" d="M-259.2-331.8v903h996v-903H-259.2z M330.2,378.1c-0.199,3.101-2.5,5-5.1,4.9c-0.6,2.5-3.199,4.4-6.199,3.9
	c-35-4.801-70.102,7.8-105.001,0c-0.4-0.101-0.7-0.2-1.1-0.4c-0.4,0.2-0.8,0.3-1.3,0.4c-0.4,0.1-0.9,0.1-1.3,0.199l0,0
	c0,0,0,0-0.1,0c-5.6,0.7-10.9-0.1-16.3-2.199c-0.5-0.2-0.9-0.4-1.3-0.7c-2,0.399-4.1,0.899-6.1,1.7c-4.1,1.6-7.2-3.4-6-6.801
	c-8.3-4.3-14.7-10.699-15.2-20.199c-0.3-5.7,2.7-9.101,6.9-10.101c0.1-4.2,0.4-8.5,0.9-12.7c-3.2-2.5-2.2-9,3-9c1.6,0,3.3,0,4.9-0.1
	c0.5-0.4,1-0.6,1.7-0.7c10.1-1.8,20.2-1.399,30.3-1.2c0.8-1.199,2.1-2,4-2c2.399,0.101,4.7,0.2,7,0.4c0.899-0.8,1.899-1.3,3-1.4
	c13.8-1.8,27.8-1.8,41.7-1.199c7.1,0.299,14.199,0.699,21.301,1.199c6.199,0.5,12.799,0.5,18.799,2
	c23.201,6,24.4,30.301,21.1,50.101C330.299,375.5,330.299,376.8,330.2,378.1z"/>
<rect id="_x3C_Slice_x3E__2_" x="762.799" y="592.2" fill="none" width="2" height="15"/>
<path fill="none" d="M181.1,360.8c-0.2-0.1-0.4-0.2-0.5-0.3c-0.2-0.1-0.3-0.2-0.5-0.3c-0.1,0.1-0.2,0.1-0.3,0.2
	c-1.1,0.8-2.3,1-3.5,0.699c-0.1,0.101-0.2,0.2-0.3,0.2c1.1,3.2,3.7,5.601,6.7,7.4c0.1-0.4,0.3-0.7,0.5-1
	C180.1,366.4,179.7,363.1,181.1,360.8z"/>
<path fill="none" d="M-257.2-330.8v947h992v-947H-257.2z M330.2,378.1c-0.199,3.101-2.5,5-5.1,4.9c-0.6,2.5-3.199,4.4-6.199,3.9
	c-35-4.801-70.102,7.8-105.001,0c-0.4-0.101-0.7-0.2-1.1-0.4c-0.4,0.2-0.8,0.3-1.3,0.4c-0.4,0.1-0.9,0.1-1.3,0.199l0,0
	c0,0,0,0-0.1,0c-5.6,0.7-10.9-0.1-16.3-2.199c-0.5-0.2-0.9-0.4-1.3-0.7c-2,0.399-4.1,0.899-6.1,1.7c-4.1,1.6-7.2-3.4-6-6.801
	c-8.3-4.3-14.7-10.699-15.2-20.199c-0.3-5.7,2.7-9.101,6.9-10.101c0.1-4.2,0.4-8.5,0.9-12.7c-3.2-2.5-2.2-9,3-9c1.6,0,3.3,0,4.9-0.1
	c0.5-0.4,1-0.6,1.7-0.7c10.1-1.8,20.2-1.399,30.3-1.2c0.8-1.199,2.1-2,4-2c2.399,0.101,4.7,0.2,7,0.4c0.899-0.8,1.899-1.3,3-1.4
	c13.8-1.8,27.8-1.8,41.7-1.199c7.1,0.299,14.199,0.699,21.301,1.199c6.199,0.5,12.799,0.5,18.799,2
	c23.201,6,24.4,30.301,21.1,50.101C330.299,375.5,330.299,376.8,330.2,378.1z"/>
<path fill="none" d="M305,349.9c0.6,0.199,1.299,0.5,1.9,0.699c-1.201-2.3-3.201-4.1-6.301-4.899c-1-0.3-2-0.5-3-0.7
	C300.401,346.1,303,347.7,305,349.9z"/>
<path fill="none" d="M299.401,332.8C285.1,331.6,270.6,330.4,256.1,330.4c2.3,0.8,4.5,1.6,6.8,2.5c4.899,0.199,9.8,0.3,14.7,0.5
	c10.199,0.3,25.699-0.601,33.9,6.8c0,0,0,0,0.1,0.1c-0.1-0.3-0.1-0.5-0.199-0.8c-0.301-1.4-0.201-2.6,0.299-3.5
	C308.2,334,303.901,333.2,299.401,332.8z"/>
<path fill="none" d="M194.8,341.7c1.6-0.4,3.3-0.8,4.9-1.101c-1.8,0.101-3.6,0.101-5.3,0.2C194.5,341.1,194.7,341.4,194.8,341.7z"/>
<rect id="_x3C_Slice_x3E__4_" x="-29.5" y="-215.1" fill="none" width="7.5" height="1.5"/>
<g enable-background="new    ">
	<path d="M134.94,351.698h8.203c2.591,0,4.554,0.202,5.889,0.605c1.334,0.403,2.412,1.22,3.232,2.449s1.23,3.211,1.23,5.943
		c0,1.848-0.29,3.136-0.869,3.864c-0.58,0.729-1.722,1.288-3.428,1.679c1.901,0.43,3.19,1.144,3.867,2.14
		c0.677,0.997,1.016,2.524,1.016,4.583v2.932c0,2.137-0.244,3.72-0.732,4.748c-0.488,1.029-1.267,1.733-2.334,2.111
		c-1.068,0.378-3.255,0.566-6.562,0.566h-9.512V351.698z M143.163,357.108v7.031c0.352-0.013,0.625-0.02,0.82-0.02
		c0.807,0,1.321-0.198,1.543-0.596c0.221-0.397,0.332-1.533,0.332-3.408c0-0.989-0.091-1.683-0.273-2.08
		c-0.183-0.397-0.42-0.647-0.713-0.752S144.009,357.121,143.163,357.108z M143.163,369.062v8.848
		c1.159-0.039,1.897-0.222,2.217-0.547c0.319-0.325,0.479-1.126,0.479-2.402v-2.949c0-1.354-0.144-2.175-0.43-2.461
		C145.142,369.264,144.387,369.101,143.163,369.062z"/>
	<path d="M171.244,351.698l4.702,31.621h-8.403l-0.441-5.684h-2.941l-0.494,5.684h-8.501l4.194-31.621H171.244z M166.886,372.03
		c-0.417-3.582-0.833-8.009-1.252-13.281c-0.838,6.055-1.364,10.482-1.578,13.281H166.886z"/>
	<path d="M195.702,351.698v31.621h-7.207l-4.277-14.375v14.375h-6.875v-31.621h6.875l4.609,14.238v-14.238H195.702z"/>
	<path d="M199.003,351.698h6.152c3.971,0,6.657,0.183,8.057,0.547c1.399,0.364,2.464,0.964,3.193,1.797
		c0.729,0.833,1.185,1.761,1.367,2.783c0.182,1.022,0.273,3.03,0.273,6.025v11.074c0,2.839-0.134,4.736-0.4,5.693
		c-0.267,0.957-0.732,1.706-1.396,2.246s-1.484,0.918-2.461,1.133s-2.448,0.322-4.414,0.322h-10.371V351.698z M207.226,357.108
		v20.801c1.185,0,1.914-0.237,2.188-0.713s0.41-1.768,0.41-3.877v-12.285c0-1.433-0.046-2.351-0.137-2.754
		c-0.091-0.403-0.3-0.7-0.625-0.889C208.736,357.203,208.124,357.108,207.226,357.108z"/>
	<path d="M238.534,361.269h-7.637v-2.344c0-1.094-0.098-1.79-0.293-2.09s-0.521-0.449-0.977-0.449c-0.495,0-0.869,0.202-1.123,0.606
		c-0.254,0.403-0.381,1.016-0.381,1.837c0,1.055,0.143,1.851,0.428,2.384c0.272,0.535,1.047,1.18,2.324,1.934
		c3.66,2.173,5.965,3.955,6.916,5.349c0.95,1.394,1.426,3.64,1.426,6.738c0,2.253-0.264,3.913-0.791,4.98s-1.546,1.963-3.057,2.686
		c-1.511,0.723-3.269,1.084-5.273,1.084c-2.201,0-4.079-0.417-5.635-1.25c-1.556-0.833-2.575-1.895-3.057-3.184
		c-0.482-1.289-0.723-3.118-0.723-5.488v-2.07h7.637v3.848c0,1.185,0.107,1.946,0.322,2.285s0.596,0.508,1.143,0.508
		s0.954-0.215,1.221-0.645c0.267-0.43,0.4-1.067,0.4-1.914c0-1.862-0.254-3.079-0.762-3.652c-0.521-0.573-1.804-1.53-3.848-2.871
		c-2.044-1.354-3.398-2.337-4.062-2.949s-1.214-1.458-1.65-2.539c-0.437-1.081-0.654-2.461-0.654-4.141
		c0-2.422,0.309-4.192,0.928-5.312c0.618-1.12,1.618-1.995,2.998-2.627c1.38-0.632,3.047-0.947,5-0.947
		c2.135,0,3.955,0.345,5.459,1.035s2.5,1.56,2.988,2.607s0.732,2.829,0.732,5.342V361.269z"/>
</g>
<g enable-background="new    ">
</g>
<g enable-background="new    ">
	<path d="M262.2,351.698v31.621h-7.207l-4.277-14.375v14.375h-6.875v-31.621h6.875l4.609,14.238v-14.238H262.2z"/>
	<path d="M265.5,351.698h13.711v6.328h-5.488v5.996h5.137v6.016h-5.137v6.953h6.035v6.328H265.5V351.698z"/>
	<path d="M296.335,351.698l4.702,31.621h-8.403l-0.441-5.684h-2.941l-0.494,5.684h-8.501l4.194-31.621H296.335z M291.977,372.03
		c-0.416-3.582-0.833-8.009-1.252-13.281c-0.838,6.055-1.363,10.482-1.578,13.281H291.977z"/>
	<path d="M302.434,351.698h5.82c3.88,0,6.507,0.149,7.881,0.449c1.373,0.3,2.493,1.064,3.359,2.295
		c0.865,1.23,1.299,3.193,1.299,5.889c0,2.461-0.307,4.114-0.918,4.961c-0.612,0.847-1.816,1.354-3.613,1.523
		c1.627,0.403,2.721,0.944,3.281,1.621c0.56,0.677,0.908,1.299,1.045,1.865s0.205,2.126,0.205,4.678v8.34h-7.637v-10.508
		c0-1.692-0.134-2.741-0.4-3.145c-0.268-0.403-0.967-0.605-2.1-0.605v14.258h-8.223V351.698z M310.657,357.108v7.031
		c0.924,0,1.572-0.127,1.943-0.381s0.557-1.077,0.557-2.471v-1.738c0-1.003-0.18-1.66-0.537-1.973
		C312.261,357.265,311.607,357.108,310.657,357.108z"/>
	<path d="M323.977,351.698h8.203c2.591,0,4.554,0.202,5.889,0.605c1.334,0.403,2.412,1.22,3.232,2.449s1.23,3.211,1.23,5.943
		c0,1.848-0.29,3.136-0.869,3.864c-0.58,0.729-1.723,1.288-3.428,1.679c1.9,0.43,3.189,1.144,3.867,2.14
		c0.677,0.997,1.016,2.524,1.016,4.583v2.932c0,2.137-0.244,3.72-0.732,4.748c-0.488,1.029-1.267,1.733-2.334,2.111
		c-1.068,0.378-3.256,0.566-6.562,0.566h-9.512V351.698z M332.2,357.108v7.031c0.352-0.013,0.625-0.02,0.82-0.02
		c0.807,0,1.321-0.198,1.543-0.596c0.221-0.397,0.332-1.533,0.332-3.408c0-0.989-0.092-1.683-0.273-2.08
		c-0.183-0.397-0.42-0.647-0.713-0.752S333.045,357.121,332.2,357.108z M332.2,369.062v8.848c1.158-0.039,1.897-0.222,2.217-0.547
		c0.318-0.325,0.479-1.126,0.479-2.402v-2.949c0-1.354-0.144-2.175-0.43-2.461C334.178,369.264,333.423,369.101,332.2,369.062z"/>
	<path d="M363.586,351.698l-5.996,20.176v11.445h-7.617v-11.445l-5.781-20.176h7.554c1.181,6.172,1.847,10.326,1.997,12.461
		c0.455-3.374,1.219-7.527,2.29-12.461H363.586z"/>
</g>
</svg>
