<?xml version="1.0" encoding="utf-8"?>
<!-- Generator: Adobe Illustrator 16.0.0, SVG Export Plug-In . SVG Version: 6.00 Build 0)  -->
<!DOCTYPE svg PUBLIC "-//W3C//DTD SVG 1.1//EN" "http://www.w3.org/Graphics/SVG/1.1/DTD/svg11.dtd">
<svg version="1.1" id="Layer_1" xmlns="http://www.w3.org/2000/svg" xmlns:xlink="http://www.w3.org/1999/xlink" x="0px" y="0px"
	 width="307px" height="297px" viewBox="0 0 307 297" enable-background="new 0 0 307 297" xml:space="preserve">
<g>

	<path fill-rule="evenodd" clip-rule="evenodd" d="M155.6,291.5c-78.8-0.2-142.7-64.3-142.6-143C13.2,70.3,77.6,6.2,156,6.6
		C234.9,6.9,298,70,298.4,149C298.9,227.2,234.2,291.7,155.6,291.5z M30.5,148.8c-0.2,68.6,55.9,124.9,124.9,125.3
		c68.5,0.4,125.4-55.8,125.7-123.9C281.3,81.4,225.6,24.2,158.2,24C87.1,23.8,30.7,78.9,30.5,148.8z"/>
	<path fill-rule="evenodd" clip-rule="evenodd" fill="#FFFFFF" d="M30.5,148.8C30.7,78.9,87.1,23.8,158.2,24
		c67.5,0.2,123.1,57.4,122.9,126.2c-0.3,68.2-57.2,124.3-125.7,123.9C86.4,273.7,30.2,217.4,30.5,148.8z M266.2,146.8
		c-0.6-5.7-0.9-10.7-1.7-15.6c-1.5-9.7-1.6-9.7-10.7-11.6c0-1.5,0-3,0-4.5c2.3-0.3,4.2-0.6,7.4-1c-4.4-8.5-8.3-16.4-12.5-24
		c-0.7-1.2-2.9-1.9-4.5-2c-4.6-0.3-9.2-0.1-13.7-0.1c-1.3-3.7-0.5-5.3,3.1-5.2c3.1,0.1,6.1,0,10.5,0c-3.2-3.7-5.2-6.6-7.7-8.9
		c-8.8-8-16.2-18.5-29.3-19.5c-1.5-2.1-3.1-4.3-5.3-5.4c-12-5.8-24.7-9-38-9.7c-21.8-1.1-42.2,2.9-61.6,14.1
		c-12.6,7.3-23,16.1-32.3,26.9c-1.1,1.3-1.9,2.7-3.4,4.9c4.6,0,8,0,11.3,0c-1.7,0.7-3.4,1-4.9,0.6c-5.7-1.2-8.6,1.6-11.4,6.2
		c-33.9,57.2-11.2,129.9,49,157.1c29.1,13.2,58.7,13.2,88.3,1.1c2.5-1,4.4-3.4,7.3-5.7c15.9-2.7,25.2-15.8,35.8-27.4
		c-2.9-0.7-5.7-0.7-8.4-0.7c-3,0-6.5,0.5-4.4-5.3c4.8,0,9.8,0.1,14.7-0.1c1.5-0.1,3.6-0.7,4.2-1.8c4.4-7.8,8.5-15.7,13-24.2
		c-3.4-0.3-5.4-0.6-7.7-0.8c0-1.8,0-3.4,0-5.4c3.1,0,5.8,0,9.3,0c1.3-8.8,2.6-17.2,4-26c-5-0.2-8.9-0.4-13.3-0.6
		c0.1-2,0.2-3.5,0.3-5.5C257.6,146.8,261.4,146.8,266.2,146.8z"/>
	<path fill-rule="evenodd" clip-rule="evenodd" d="M266.2,146.8c-4.8,0-8.5,0-12.8,0c-0.1,2-0.2,3.5-0.3,5.5
		c4.3,0.2,8.3,0.4,13.3,0.6c-1.3,8.8-2.6,17.2-4,26c-3.5,0-6.2,0-9.3,0c0,2,0,3.6,0,5.4c2.3,0.2,4.3,0.4,7.7,0.8
		c-4.5,8.5-8.6,16.4-13,24.2c-0.6,1.1-2.7,1.7-4.2,1.8c-5,0.2-9.9,0.1-14.7,0.1c-2.1,5.8,1.4,5.3,4.4,5.3c2.8,0,5.5,0,8.4,0.7
		c-10.7,11.6-19.9,24.7-35.8,27.4c-2.8,2.3-4.8,4.6-7.3,5.7c-29.6,12.1-59.2,12.1-88.3-1.1c-60.2-27.3-83-99.9-49-157.1
		c2.7-4.6,5.7-7.5,11.4-6.2c1.6,0.3,3.3,0.1,4.9-0.6c-3.4,0-6.7,0-11.3,0c1.5-2.2,2.4-3.6,3.4-4.9C79,69.5,89.5,60.7,102,53.4
		c19.4-11.2,39.8-15.3,61.6-14.1c13.3,0.7,26,4,38,9.7c2.2,1.1,3.8,3.3,5.3,5.4c13.2,1.1,20.5,11.5,29.3,19.5
		c2.5,2.3,4.5,5.2,7.7,8.9c-4.3,0-7.4,0.1-10.5,0c-3.6-0.1-4.4,1.5-3.1,5.2c4.5,0,9.1-0.2,13.7,0.1c1.6,0.1,3.9,0.8,4.5,2
		c4.3,7.6,8.1,15.5,12.5,24c-3.2,0.4-5.1,0.7-7.4,1c0,1.5,0,3,0,4.5c9,1.8,9.1,1.8,10.7,11.6C265.3,136.1,265.6,141.1,266.2,146.8z
		 M228,149c-2.1-1.2-3.1-1.8-4.1-2.4c-14.7-8.5-29.4-17-44-25.7c-2.2-1.3-3.8-3.8-6-5c-2.7-1.5-5.9-2-8.6-3.5
		c-12.6-7.1-25.1-14.5-37.6-21.8c-1.3-0.8-2.8-1.5-4.8-2.5c0,9.9,0,18.8,0,28c-4.8,0.3-9.2,0.6-13.6,0.8c0,0.5,0,1.1,0,1.6
		c4.5,0,9,0,13.4,0c0,10.5,0,20,0,30.4c-4.7,0-9.1,0-13.4,0c0,0.6,0,1.2,0,1.7c4.5,0,9,0,13.3,0c0,10.5,0,20,0,30.4
		c-4.9,0-9.5,0-14.1,0c0,0.5,0,1.1,0,1.6c4.7,0,9.3,0,14.5,0c0,9.3,0,17.8,0,26.3c0.9,0,1.3,0.1,1.5,0c1.6-0.9,3.1-1.9,4.8-2.7
		c15.7-7.7,29.1-20.3,45.7-23.6c1.8-2.3,2.7-4.4,4.4-5.4c13.3-7.9,26.7-15.6,40.1-23.4C222.2,152.4,224.7,151,228,149z M249,179.3
		c-6.3,0-11.9-0.2-17.5,0.2c-1.2,0.1-2.2,2.2-3.3,3.4c0.4,0.4,0.7,0.9,1.1,1.3c6.4,0,12.8,0,19.5,0
		C248.8,182.7,248.9,181.2,249,179.3z M229.4,151.9c6.4,0,12.7,0,19.4,0c-0.3-1.9-0.5-3.3-0.7-4.8c-5.4,0-10.5,0.1-15.6,0
		C228.8,147,228.5,148.8,229.4,151.9z M247.9,115c-5.7,0-10.8-0.1-15.9,0.1c-0.9,0-2.1,1.6-2.4,2.7c-0.1,0.5,1.5,2.1,2.3,2.2
		c5.3,0.2,10.5,0.1,16,0.1C247.9,118.3,247.9,116.9,247.9,115z M223.7,119.7c0.9-3.2,0.4-4.8-3.1-4.6c-4,0.3-8,0.2-12,0.1
		c-3.4,0-3.9,1.5-2.7,4.5C211.8,119.7,217.6,119.7,223.7,119.7z M214.5,87.6c0,0.1,0,0.2,0,0.3c2.3,0,4.6,0.2,6.9-0.1
		c0.9-0.1,2.1-1.5,2.1-2.4c0-0.8-1.4-2.2-2.2-2.2c-4.4-0.2-8.9-0.1-13.3,0.1c-0.8,0-1.5,1.3-2.2,1.9c0.8,0.8,1.4,2.2,2.3,2.3
		C210.2,87.8,212.4,87.6,214.5,87.6z M224.3,184c0.4-0.4,0.9-0.9,1.3-1.3c-1.1-1.1-2.1-3-3.3-3.1c-5.1-0.2-10.3,0-15.4,0.3
		c-0.8,0.1-1.6,1.5-2.4,2.3c0.8,0.6,1.6,1.7,2.4,1.7C212.7,184.1,218.5,184,224.3,184z M190.3,248c0,0,0,0.1,0,0.1
		c3,0,6,0.1,8.9-0.1c0.8-0.1,1.6-1.1,2.4-1.7c-0.8-0.8-1.6-2.2-2.4-2.2c-5.8-0.1-11.6-0.1-17.4,0.2c-0.7,0-1.4,1.3-2.1,2.1
		c0.7,0.5,1.3,1.5,2.1,1.5C184.6,248.1,187.5,248,190.3,248z M225.8,213.3c-0.4-0.5-0.8-1-1.2-1.5c-5.9,0-11.9-0.1-17.8,0.1
		c-0.9,0-1.8,1.3-2.6,2c0.8,0.7,1.6,2,2.5,2.1c5.3,0.3,10.6,0.4,15.9,0.2C223.6,216.2,224.7,214.3,225.8,213.3z M190.5,215.9
		c0,0.1,0,0.1,0,0.2c2.8,0,5.6,0.1,8.4-0.1c0.8-0.1,1.4-1.3,2.2-1.9c-0.7-0.7-1.4-2-2.1-2c-5.6-0.1-11.3-0.1-16.9,0.2
		c-0.7,0-1.4,1.3-2.1,2c0.7,0.5,1.3,1.5,2,1.6C184.9,216,187.7,215.9,190.5,215.9z M200,183.8c0.4-0.5,0.8-1,1.2-1.5
		c-1.2-0.8-2.3-2.3-3.5-2.4c-4.8-0.2-9.6-0.2-14.4,0.1c-1,0-2,1.1-3,1.7c1.1,0.7,2.1,2,3.2,2C189.1,184,194.6,183.8,200,183.8z
		 M155.9,212.8c0,1,0,2,0,2.9c6.6,0,13.2,0,19.8-0.1c0.4,0,1.3-1.5,1.2-1.6c-0.6-0.7-1.5-1.7-2.3-1.8c-3.3-0.2-6.6-0.1-9.9,0
		C161.8,212.4,158.9,212.6,155.9,212.8z M199.4,119.4c0.4-0.5,0.7-0.9,1.1-1.4c-1.1-0.9-2.1-2.4-3.2-2.4c-4.6-0.2-9.2,0-13.8,0.3
		c-0.8,0-1.5,1.2-2.3,1.8c0.8,0.6,1.6,1.7,2.4,1.7C188.9,119.5,194.2,119.4,199.4,119.4z M155.9,244.4c0,1.1,0,2.1-0.1,3.2
		c6.9,0,13.9,0,20.8-0.1c0.2,0,0.8-1.2,0.6-1.6c-0.3-0.6-1-1.5-1.6-1.5C169.1,244.4,162.5,244.4,155.9,244.4z M191,83.3
		c0,0.1,0,0.1,0,0.2c-2.1,0-4.3-0.2-6.4,0.1c-1,0.1-1.8,1.3-2.7,1.9c0.8,0.6,1.6,1.6,2.4,1.6c4.3,0.2,8.6,0.3,12.9,0.2
		c0.9,0,1.7-1.4,2.5-2.1c-0.9-0.6-1.8-1.7-2.8-1.8C194.9,83.1,192.9,83.3,191,83.3z M198.8,55c-0.2-4.4-0.3-4.5-13.2-3.6
		c-1.3,0.1-2.5,1.4-3.7,2.1c0.3,0.5,0.5,1,0.8,1.5C187.9,55,193.1,55,198.8,55z M153.4,245.6c-7.6,0-14.7,0-21.8,0
		C137.8,248.4,150.9,248.1,153.4,245.6z M175.1,87c0.2-0.4,0.4-0.7,0.6-1.1c-0.9-0.7-1.7-2.1-2.6-2.1c-4.5-0.1-8.9,0-13.4,0.2
		c-0.7,0-1.3,1-2,1.5c0.7,0.5,1.4,1.4,2.2,1.4C164.9,87.1,170,87,175.1,87z M157.7,51.5c0.4,1.8,0.5,2.7,0.6,2.7
		c5.2,0.3,10.4,0.5,15.6,0.6c0.3,0,1.2-1.5,1-1.8c-0.4-0.7-1.3-1.4-2.1-1.4C168,51.5,163.1,51.5,157.7,51.5z M133.7,84.6
		c5.8,3.3,15.9,2.7,17.3,0C145.2,84.6,139.5,84.6,133.7,84.6z M150.9,54.4c0-0.6-0.1-1.2-0.1-1.8c-5.6,0-11.1,0-16.7,0
		c0,0.5,0,1.1,0,1.6C139.8,54.7,145.4,55,150.9,54.4z M107.9,245.7c0,0.3,0,0.5,0.1,0.8c7,0,14,0,21,0c0-0.3,0-0.5-0.1-0.8
		C121.9,245.7,114.9,245.7,107.9,245.7z M104.4,214.5c0-0.3,0-0.6,0-0.9c-6.5,0-12.9,0-19.4,0c0,0.3,0,0.6,0,0.9
		C91.5,214.5,98,214.5,104.4,214.5z M128.7,214.6c0-0.4,0-0.8,0-1.1c-6.8,0-13.6,0-20.4,0c0,0.4,0,0.8,0,1.1
		C115.1,214.6,121.9,214.6,128.7,214.6z M132.2,213.3c0,0.5,0,0.9,0,1.4c6.9,0,13.8,0,20.7,0c0-0.5,0-0.9,0-1.4
		C145.9,213.3,139,213.3,132.2,213.3z M85.4,181.3c0,0.3,0,0.5,0,0.8c6.1,0,12.2,0,18.3,0c0-0.3,0-0.5,0-0.8
		C97.6,181.3,91.5,181.3,85.4,181.3z M126.9,86.1c0-0.4,0.1-0.8,0.1-1.1c-5.7,0-11.3,0-17,0c0,0.4,0,0.8,0,1.1
		C115.6,86.1,121.2,86.1,126.9,86.1z M110.4,52.6c0,0.3,0,0.6,0,0.9c5.4,0,10.9,0,16.3,0c0-0.3-0.1-0.6-0.1-0.9
		C121.2,52.6,115.8,52.6,110.4,52.6z M86,149.2c0,0.3,0,0.6,0,0.8c5.8,0,11.7,0,17.5,0c0-0.3,0-0.6,0-0.8
		C97.7,149.2,91.9,149.2,86,149.2z"/>
	<path fill-rule="evenodd" clip-rule="evenodd" fill="#FFFFFF" d="M228,149c-3.3,1.9-5.8,3.4-8.4,4.8c-13.4,7.8-26.8,15.5-40.1,23.4
		c-1.6,1-2.6,3.1-4.4,5.4c-16.7,3.3-30,15.9-45.7,23.6c-1.6,0.8-3.2,1.8-4.8,2.7c-0.2,0.1-0.6,0-1.5,0c0-8.5,0-17,0-26.3
		c-5.2,0-9.9,0-14.5,0c0-0.5,0-1.1,0-1.6c4.6,0,9.2,0,14.1,0c0-10.4,0-19.9,0-30.4c-4.4,0-8.9,0-13.3,0c0-0.6,0-1.2,0-1.7
		c4.4,0,8.8,0,13.4,0c0-10.4,0-20,0-30.4c-4.4,0-8.9,0-13.4,0c0-0.5,0-1.1,0-1.6c4.4-0.3,8.8-0.5,13.6-0.8c0-9.1,0-18.1,0-28
		c2.1,1.1,3.5,1.8,4.8,2.5c12.5,7.3,25,14.6,37.6,21.8c2.7,1.5,5.9,2,8.6,3.5c2.2,1.3,3.8,3.7,6,5c14.6,8.7,29.3,17.1,44,25.7
		C224.9,147.2,225.9,147.8,228,149z"/>
	<path fill-rule="evenodd" clip-rule="evenodd" fill="#FFFFFF" d="M249,179.3c-0.1,1.9-0.2,3.3-0.2,4.9c-6.7,0-13.1,0-19.5,0
		c-0.4-0.4-0.7-0.9-1.1-1.3c1.1-1.2,2.1-3.3,3.3-3.4C237,179.1,242.7,179.3,249,179.3z"/>
	<path fill-rule="evenodd" clip-rule="evenodd" fill="#FFFFFF" d="M229.4,151.9c-0.9-3.1-0.6-4.9,3.1-4.8c5.1,0.2,10.2,0,15.6,0
		c0.2,1.5,0.4,2.9,0.7,4.8C242.1,151.9,235.8,151.9,229.4,151.9z"/>
	<path fill-rule="evenodd" clip-rule="evenodd" fill="#FFFFFF" d="M247.9,115c0,1.9,0,3.3,0,5.1c-5.5,0-10.8,0.1-16-0.1
		c-0.9,0-2.5-1.7-2.3-2.2c0.3-1.1,1.5-2.6,2.4-2.7C237.1,114.9,242.2,115,247.9,115z"/>
	<path fill-rule="evenodd" clip-rule="evenodd" fill="#FFFFFF" d="M223.7,119.7c-6.1,0-11.9,0-17.8,0c-1.2-3-0.7-4.5,2.7-4.5
		c4,0.1,8,0.1,12-0.1C224.1,114.9,224.6,116.5,223.7,119.7z"/>
	<path fill-rule="evenodd" clip-rule="evenodd" fill="#FFFFFF" d="M214.5,87.6c-2.1,0-4.3,0.2-6.4-0.1c-0.9-0.1-1.5-1.5-2.3-2.3
		c0.7-0.7,1.4-1.9,2.2-1.9c4.4-0.2,8.9-0.3,13.3-0.1c0.8,0,2.2,1.5,2.2,2.2c0,0.8-1.3,2.2-2.1,2.4c-2.3,0.3-4.6,0.1-6.9,0.1
		C214.5,87.8,214.5,87.7,214.5,87.6z"/>
	<path fill-rule="evenodd" clip-rule="evenodd" fill="#FFFFFF" d="M224.3,184c-5.8,0-11.6,0.1-17.4-0.1c-0.8,0-1.6-1.1-2.4-1.7
		c0.8-0.8,1.5-2.3,2.4-2.3c5.1-0.3,10.3-0.5,15.4-0.3c1.1,0.1,2.2,2,3.3,3.1C225.2,183.1,224.7,183.6,224.3,184z"/>
	<path fill-rule="evenodd" clip-rule="evenodd" fill="#FFFFFF" d="M190.3,248c-2.8,0-5.6,0.1-8.4-0.1c-0.7,0-1.4-1-2.1-1.5
		c0.7-0.7,1.4-2,2.1-2.1c5.8-0.2,11.6-0.3,17.4-0.2c0.8,0,1.6,1.5,2.4,2.2c-0.8,0.6-1.6,1.6-2.4,1.7c-3,0.2-6,0.1-8.9,0.1
		C190.3,248.1,190.3,248.1,190.3,248z"/>
	<path fill-rule="evenodd" clip-rule="evenodd" fill="#FFFFFF" d="M225.8,213.3c-1.1,1-2.1,2.8-3.3,2.9c-5.3,0.2-10.6,0.1-15.9-0.2
		c-0.9,0-1.7-1.4-2.5-2.1c0.9-0.7,1.7-2,2.6-2c5.9-0.2,11.8-0.1,17.8-0.1C224.9,212.4,225.3,212.9,225.8,213.3z"/>
	<path fill-rule="evenodd" clip-rule="evenodd" fill="#FFFFFF" d="M190.5,215.9c-2.8,0-5.6,0.1-8.4-0.1c-0.7,0-1.3-1-2-1.6
		c0.7-0.7,1.4-2,2.1-2c5.6-0.2,11.3-0.3,16.9-0.2c0.7,0,1.4,1.3,2.1,2c-0.7,0.7-1.4,1.9-2.2,1.9c-2.8,0.2-5.6,0.1-8.4,0.1
		C190.5,216,190.5,215.9,190.5,215.9z"/>
	<path fill-rule="evenodd" clip-rule="evenodd" fill="#FFFFFF" d="M200,183.8c-5.5,0-10.9,0.1-16.3-0.1c-1.1,0-2.2-1.3-3.2-2
		c1-0.6,1.9-1.7,3-1.7c4.8-0.2,9.6-0.3,14.4-0.1c1.2,0.1,2.3,1.6,3.5,2.4C200.9,182.9,200.5,183.3,200,183.8z"/>
	<path fill-rule="evenodd" clip-rule="evenodd" fill="#FFFFFF" d="M155.9,212.8c2.9-0.2,5.9-0.4,8.8-0.5c3.3-0.1,6.6-0.2,9.9,0
		c0.8,0,1.7,1,2.3,1.8c0.1,0.1-0.8,1.6-1.2,1.6c-6.6,0.1-13.2,0.1-19.8,0.1C156,214.8,155.9,213.8,155.9,212.8z"/>
	<path fill-rule="evenodd" clip-rule="evenodd" fill="#FFFFFF" d="M199.4,119.4c-5.3,0-10.5,0.1-15.8-0.1c-0.8,0-1.6-1.1-2.4-1.7
		c0.8-0.6,1.5-1.7,2.3-1.8c4.6-0.3,9.2-0.5,13.8-0.3c1.1,0,2.1,1.6,3.2,2.4C200.1,118.4,199.8,118.9,199.4,119.4z"/>
	<path fill-rule="evenodd" clip-rule="evenodd" fill="#FFFFFF" d="M155.9,244.4c6.6,0,13.2,0,19.9,0.1c0.6,0,1.3,0.9,1.6,1.5
		c0.2,0.4-0.4,1.6-0.6,1.6c-6.9,0.1-13.9,0.1-20.8,0.1C155.9,246.6,155.9,245.5,155.9,244.4z"/>
	<path fill-rule="evenodd" clip-rule="evenodd" fill="#FFFFFF" d="M191,83.3c2,0,4-0.2,5.9,0.1c1,0.2,1.9,1.2,2.8,1.8
		c-0.8,0.7-1.7,2.1-2.5,2.1c-4.3,0.2-8.6,0.1-12.9-0.2c-0.8,0-1.6-1.1-2.4-1.6c0.9-0.7,1.7-1.8,2.7-1.9c2.1-0.3,4.3-0.1,6.4-0.1
		C191,83.4,191,83.4,191,83.3z"/>
	<path fill-rule="evenodd" clip-rule="evenodd" fill="#FFFFFF" d="M198.8,55c-5.7,0-10.9,0-16.1,0c-0.3-0.5-0.5-1-0.8-1.5
		c1.2-0.7,2.4-2,3.7-2.1C198.5,50.5,198.6,50.6,198.8,55z"/>
	<path fill-rule="evenodd" clip-rule="evenodd" fill="#FFFFFF" d="M153.4,245.6c-2.6,2.5-15.7,2.8-21.8,0
		C138.7,245.6,145.9,245.6,153.4,245.6z"/>
	<path fill-rule="evenodd" clip-rule="evenodd" fill="#FFFFFF" d="M175.1,87c-5.1,0-10.2,0.1-15.3-0.1c-0.7,0-1.4-0.9-2.2-1.4
		c0.7-0.5,1.3-1.5,2-1.5c4.5-0.2,8.9-0.3,13.4-0.2c0.9,0,1.7,1.4,2.6,2.1C175.5,86.3,175.3,86.6,175.1,87z"/>
	<path fill-rule="evenodd" clip-rule="evenodd" fill="#FFFFFF" d="M157.7,51.5c5.4,0,10.3-0.1,15.2,0.1c0.7,0,1.6,0.8,2.1,1.4
		c0.2,0.3-0.6,1.8-1,1.8c-5.2-0.1-10.4-0.3-15.6-0.6C158.2,54.2,158.1,53.3,157.7,51.5z"/>
	<path fill-rule="evenodd" clip-rule="evenodd" fill="#FFFFFF" d="M133.7,84.6c5.8,0,11.5,0,17.3,0
		C149.6,87.3,139.5,87.9,133.7,84.6z"/>
	<path fill-rule="evenodd" clip-rule="evenodd" fill="#FFFFFF" d="M150.9,54.4c-5.6,0.7-11.2,0.3-16.8-0.2c0-0.5,0-1.1,0-1.6
		c5.6,0,11.1,0,16.7,0C150.9,53.2,150.9,53.8,150.9,54.4z"/>
	<path fill-rule="evenodd" clip-rule="evenodd" fill="#FFFFFF" d="M107.9,245.7c7,0,14,0,21,0c0,0.3,0,0.5,0.1,0.8c-7,0-14,0-21,0
		C107.9,246.2,107.9,245.9,107.9,245.7z"/>
	<path fill-rule="evenodd" clip-rule="evenodd" fill="#FFFFFF" d="M104.4,214.5c-6.5,0-12.9,0-19.4,0c0-0.3,0-0.6,0-0.9
		c6.5,0,12.9,0,19.4,0C104.4,213.9,104.4,214.2,104.4,214.5z"/>
	<path fill-rule="evenodd" clip-rule="evenodd" fill="#FFFFFF" d="M128.7,214.6c-6.8,0-13.6,0-20.4,0c0-0.4,0-0.8,0-1.1
		c6.8,0,13.6,0,20.4,0C128.7,213.9,128.7,214.3,128.7,214.6z"/>
	<path fill-rule="evenodd" clip-rule="evenodd" fill="#FFFFFF" d="M132.2,213.3c6.9,0,13.8,0,20.7,0c0,0.5,0,0.9,0,1.4
		c-6.9,0-13.8,0-20.7,0C132.2,214.2,132.2,213.7,132.2,213.3z"/>
	<path fill-rule="evenodd" clip-rule="evenodd" fill="#FFFFFF" d="M85.4,181.3c6.1,0,12.2,0,18.3,0c0,0.3,0,0.5,0,0.8
		c-6.1,0-12.2,0-18.3,0C85.4,181.9,85.4,181.6,85.4,181.3z"/>
	<path fill-rule="evenodd" clip-rule="evenodd" fill="#FFFFFF" d="M126.9,86.1c-5.6,0-11.3,0-16.9,0c0-0.4,0-0.8,0-1.1
		c5.7,0,11.3,0,17,0C126.9,85.4,126.9,85.8,126.9,86.1z"/>
	<path fill-rule="evenodd" clip-rule="evenodd" fill="#FFFFFF" d="M110.4,52.6c5.4,0,10.8,0,16.2,0c0,0.3,0.1,0.6,0.1,0.9
		c-5.4,0-10.9,0-16.3,0C110.4,53.3,110.4,52.9,110.4,52.6z"/>
	<path fill-rule="evenodd" clip-rule="evenodd" fill="#FFFFFF" d="M86,149.2c5.8,0,11.7,0,17.5,0c0,0.3,0,0.6,0,0.8
		c-5.8,0-11.7,0-17.5,0C86,149.7,86,149.4,86,149.2z"/>
</g>
</svg>
