<?xml version="1.0" encoding="utf-8"?>
<!-- Generator: Adobe Illustrator 16.0.0, SVG Export Plug-In . SVG Version: 6.00 Build 0)  -->
<!DOCTYPE svg PUBLIC "-//W3C//DTD SVG 1.1//EN" "http://www.w3.org/Graphics/SVG/1.1/DTD/svg11.dtd">
<svg version="1.1" id="Layer_1" xmlns="http://www.w3.org/2000/svg" xmlns:xlink="http://www.w3.org/1999/xlink" x="0px" y="0px"
	 width="531.5px" height="519.2px" viewBox="0 0 531.5 519.2" enable-background="new 0 0 531.5 519.2" xml:space="preserve">
<g>
	<g>
	
		<path fill-rule="evenodd" clip-rule="evenodd" d="M222.3,27.2c-0.9,0.9-1.6,1.7-2.3,2.4c2.2,1,3.4-0.1,4.6-1.7
			c0.6-0.8,1.4-1.6,2.3-1.8c63.2-10.9,122.1,0.3,176.5,34.4c0.5,0.3,1,0.7,1.3,1c-0.6,0.1-1.3,0.2-1.9,0.4c0.3,0.7,0.4,1.5,0.8,2
			c0.7,0.8,1.7,1.5,3.2,2.9c0.7-0.7,1.3-1.4,2.1-2.3c6.7,3.2,29.9,22.8,40.2,34.3c-2.7,3.1,1.2,5.7,0.1,8.5c0.3,0,0.5,0.1,0.8,0.1
			c0.7-1.7,1.3-3.3,2.1-5.2c64.8,69.2,82,175,42.8,263.2c-2-2.7-1.2-7.7-5.9-7.5c0.1,1.6,0.8,3.6,0.1,4.7c-0.6,1-2.8,1-5,1.7
			c0.7-1.7,1-2.6,1.4-3.4c13.5-30.8,20.1-63,19.8-96.7c-0.1-14.8-1.9-29.3-4.4-43.9c-0.7-4.1-2.1-8-3-12c-0.9-4.4-2.3-8.6-3.7-12.9
			c-1.4-4.3-2.8-8.5-4.4-12.7c-14.5-37.5-37.2-69-67.8-95c-1.4-1.2-2.8-2.2-2.2-4.5c0.2-0.7-0.7-2.2-1.2-2.2
			c-1.1-0.2-2.4,0.4-3.9,0.7c-3.9-2.9-8.2-6-12.5-9.2c0.6-3.3-0.5-4.4-3.7-4.1c-1.2,0.1-2.6,0-3.6-0.6
			c-42.9-26.4-89.5-38-139.6-34.5C198.6,37,149.7,59,108.8,98.5c-6.9,6.7-13.4,13.9-19.5,21.3c-34,41.7-50.6,91.8-51.6,141.3
			c-0.8,38.9,7.4,75.7,24.9,110.5c0.3,0.7,0.1,1.6,0.4,2.3c0.3,0.8,0.8,1.6,1.3,2.3c0.4,0.5,1.1,0.8,1.4,1.4
			c10,18.3,22.2,35,36.6,50.1c0.2,0.2,0.2,0.5,0.3,0.7c-3.8,1.7-4.1,4.9-0.5,7.7c-0.4-1.1-0.6-1.9-0.9-2.8c2.2,0.1,2.4,0.4,1.9,1.9
			c-0.1,0.5,0.1,1.1,0.2,1.6c0.6-0.4,1.6-0.7,1.7-1.2c0.3-1.3,0.3-2.7,0.4-4.7c25.2,24.9,53.9,43.5,87,55.5c-1.9,0.3-3.4,0.7-5,0.8
			c-1.5,0.2-3,0.2-4.4,0.2c0,0.8,0,1,0,1.1c0.2,1.3,0.5,2.5,0.8,3.8c-1.5,0.1-3.2,0.7-4.4,0.1c-8.1-3.6-16.1-7.5-24.1-11.4
			c-0.5-0.2-0.6-1.3-1.1-1.6c-0.8-0.5-1.8-0.8-2.7-1.2c-0.1,0.2-0.3,0.4-0.4,0.7c-0.4-0.9-0.8-1.7-1.2-2.5c-0.7-1.2-1.1-1.1-2.5-0.4
			c-0.5,0.2-1.3-0.2-2.4-0.5c1.1-1.3,1.8-2.2,2.5-3c-0.1-0.1-0.2-0.3-0.3-0.4c-1.1,0.7-2.3,1.4-3.8,2.3c-4.2-2.9-8.9-6.1-13.7-9.2
			c-1.6-1-2.2-2-1.1-3.9c0.3-0.6-0.3-1.6-0.4-2.5c-0.3,0.1-0.6,0.1-0.9,0.2c-0.4,1-0.8,2-1.5,3.8c-3.2-3-6-5.7-8.9-8.3
			c-0.7-0.7-2-0.8-2.7-1.5c-8.2-7.9-16.4-15.8-24.5-23.8c-1.9-1.9-5-3.5-3.6-7.3c-0.4,0.5-0.7,1.1-1.1,1.6
			C33.1,365,9.9,272.2,41.3,184C72.7,95.6,150,40.2,222.3,27.2z M478.1,143.8c-0.2-0.2-0.4-0.3-0.6-0.5c-1,0.6-2.2,1.1-3,1.9
			c-0.4,0.4-0.5,1.4-0.4,2c0.2,0.5,1,1.3,1.4,1.2c0.6,0,1.5-0.6,1.7-1.2C477.8,146.2,477.9,145,478.1,143.8z M117.5,446.9
			c-0.3,0.5-0.5,0.9-0.8,1.4c1.1,0.8,2.1,1.6,3.2,2.3c0.2-0.8,0.7-2,0.4-2.2C119.6,447.7,118.5,447.4,117.5,446.9z"/>
		<path fill-rule="evenodd" clip-rule="evenodd" d="M373.2,320.3c2.3,2.5,0,6.3,1.2,10.1c2-0.6,4.1-1.2,6.4-1.9
			c0.2,0.5,0.4,1.1,0.7,2.1c-4.4,1-8.6,2.1-12.9,3.1c-0.2-2.1-0.2-2.1,3.3-3.1c0-3.6,0-7.3,0-11c0-22,0-44,0-66c0-5.2,0-5.2-5.8-5.1
			c0,1,0,2,0,3c0,16.9,0.1,33.9-0.1,50.8c0,4.6,0.2,9.1,0.1,13.7c-0.1,4.7,0,9.5,0,14.5c-3.6-0.8-1.2-3.8-2.4-5.5
			c-5.5,0-11.2,0-17.4,0c0.2,2.1,0.4,4.2,0.6,6.2c0,0.5,0.1,1,0.1,1.4c-0.7,3.4,1.2,6.4,4.6,6.8c2.4,0.3,5,0.4,7.3-0.1
			c1.6-0.3,2.9-1.9,4.4-3c0.6-0.4,1.3-0.9,2.4-1.6c-0.8,4.2-3.4,6.5-7.1,6.8c-1.7,0.1-3.5,0.1-5.3,0.1c-5.7-0.1-9-3.3-9-9
			c0-11.1,0-22.3,0-33.4c0-1,0-1.9,0-2.8c-5.9-1.3-9,0.8-9.7,6.7c-0.4,3.8-3.4,6.8-7.2,7.2c-3.9,0.5-7.8-2-9-5.8
			c-0.4-1.3-0.5-2.8-0.5-4.1c0-10.3-0.3-20.7,0.1-31c0.1-2.8,0.1-5.5,0-8.3c-0.4-7.4-0.1-14.9-0.1-22.3c0-3.5-2.1-5.8-5-5.8
			c-3,0-5,2.4-5,5.9c0,25.7,0,51.4,0,77.1c0,0.8,0,1.6,0,2.4c-0.2,4.2-3.4,7.3-7.4,7.4c-4,0.1-7.5-3-7.7-7.1
			c-0.2-5.4-0.1-10.9,0-16.3c0-0.7,0.8-1.4,0.9-1.5c-0.4-2.5-0.8-4.5-0.9-6.6c-0.1-3.4,0-6.8,0-10.3c0-3.8-2.6-6.6-6.1-6.6
			c-3.4,0-6,2.7-6.1,6.5c0,1.8,0,3.6,0,5.9c-0.8-0.6-1.3-0.8-1.5-1.1c-3.1-5.2,1.1-13,7.1-13.3c4.8-0.3,8.5,3.3,8.6,8.3
			c0,10.8,0,21.6,0,32.4c0,0.8,0,1.6,0,2.4c0.3,3.1,2.8,5.5,5.8,5.3c3-0.1,5.3-2.5,5.3-5.8c0.1-7.7,0-15.4,0.1-23.2
			c0-1.9,0.6-3.9,0.6-5.8c0-1.1-0.6-2.2-0.6-3.4c0-15.5,0-31,0-46.6c0-4.9,2.8-8,7.1-8c4.3,0,7,3.2,7,8.1c0,20.5-0.1,41,0.1,61.6
			c0,2,0.9,4.3,2.1,5.9c1.4,1.9,3.8,2.4,6.2,1.5c2.2-0.8,3.7-2.4,4.1-4.7c1.5-7.7,2.8-8.9,10.7-9.2c0.2,0,0.5-0.1,1.1-0.2
			c0-0.9,0-1.8,0-2.8c0-14.3,0-28.6,0-42.9c0-6.6,3.1-9.6,9.7-9.6c0.7,0,1.4,0,2.1,0c6.2,0,8.5,1.8,10.2,7.9
			c8.1,0.4,15.8,2.6,23,7.6c-0.4-18.6-4.5-35.8-12.5-52c-8.1-16.3-19.1-30.4-33.7-41.2c-39.1-28.9-81.3-33.9-124.7-11.9
			c-42,21.3-62.6,57.6-65.1,104.5c7.1-4.5,14.8-6.8,22.9-7.1c2-6.4,4.1-7.9,10.7-7.9c1.1,0,2.1,0,3.2,0c4.6,0.2,8.1,3.4,8.1,8
			c0.1,9.2,0.4,18.4-0.1,27.6c-0.2,3.2,0.6,6.3,0.3,9.5c-0.3,3.3-0.1,6.7-0.1,9.9c7.2,2.3,14.2-2.5,14.3-9.9c0.1-7.2,0-14.4,0-21.6
			c0-3.3,1.6-5.9,4.6-7.4c2.8-1.3,5.9-1.3,8.1,0.8c1.5,1.4,3.1,3.7,3.2,5.7c0.4,5.6,0.2,11.2,0.2,16.8c-0.3,0.1-0.5,0.3-0.8,0.4
			c-0.4-0.7-1.1-1.3-1.1-2c-0.1-4.5,0-8.9-0.1-13.4c0-4.2-2.5-7.1-6.1-7.1c-3.6,0-6,2.9-6,7.2c0,6.4,0,12.8,0,19.2
			c0,8.9-4.8,13.7-13.6,13.7c-0.8,0-1.6,0-2.7,0c0,1.1,0,2.1,0,3c0,11.1,0,22.1,0,33.2c0,6.2-3.1,9.4-9.4,9.4c-1.4,0-2.8,0-4.2,0
			c-4-0.2-6.9-2.3-7.8-6.2c-0.4-1.6-1.1-1.8-2.5-1.9c-21.7-1.6-38-18.7-38.3-40.4c-0.1-13.5-0.2-27,0-40.5
			c1-64.6,50.4-121,114.3-130.5c62.4-9.3,122.4,24.7,146,83c0.6,1.4,0.4,3.2,0.3,4.8c-20.7-60-90.9-103.8-164-81.7
			c-52.5,15.9-100.9,67-94.4,144.9c0.6-1.1,0.8-1.9,1.3-2.6c3-4.3,5.8-8.7,9.1-12.7c1.5-1.8,2.4-3.3,2.5-5.7
			c0.6-21,6-40.7,16.8-58.8c45.7-76.5,151.7-80,202.2-6.7c13.8,20,20.5,42.4,21.2,66.7c0,1.2,0.7,2.7,1.6,3.5
			c4.8,4.6,8.6,9.9,11.1,16.1c1-20.8,0.2-41.4-7.3-61.3c2.6,0.9,3.9,3.1,3.8,5.6c-0.1,0.7,0.3,1.5,0.6,2.2c0.3,0.7,0.7,1.4,0.9,2.1
			c2.8,10.6,4.3,21.5,4.4,32.5c0.1,12.9,0,25.8,0,38.7c0,7.2-1.7,13.9-5.3,20.1c-0.7,1.2-2.1,1.9-2.9,3.1c-0.6,0.9-0.9,2-1.3,3
			c-0.3-0.1-0.7-0.2-1-0.3c0.4-1.1,0.5-2.5,1.2-3.3c9.7-12.6,9.4-36.6,1.3-48.7c-5.7-8.5-14.8-15.2-24.5-17.1c0,1.1,0,2,0,3
			c0,21.4,0,42.8,0,64.2C374.1,317.6,373.6,318.7,373.2,320.3z M168.6,330.3c0-27.2,0-54.1,0-80.9c-12.8,2.1-25.1,13.2-28.6,26.7
			c-1.4,5.3-1.5,11.1-1.6,16.6c-0.2,9.9,3.4,18.5,10,25.8C153.8,324.6,160.5,328.5,168.6,330.3z M176.6,331.4c0-27.9,0-55.4,0-82.8
			c-5.4-0.7-5.7-0.4-5.7,4.6c0,24.8,0,49.6,0,74.4c0,1,0,2.1,0,3.3C172.8,331,174.5,331.2,176.6,331.4z M364,263c0-2.1,0-4,0-6.1
			c-5.9,0-11.7,0-17.5,0c0,2.1,0,4,0,6.1C352.4,263,358.1,263,364,263z M346.5,271.5c6,0,11.7,0,17.5,0c0-2.1,0-4.1,0-6
			c-5.9,0-11.7,0-17.5,0C346.5,267.6,346.5,269.4,346.5,271.5z M346.6,282.3c0,2.2,0,4.1,0,6.1c5.9,0,11.6,0,17.4,0c0-2.1,0-4,0-6.1
			C358.2,282.3,352.6,282.3,346.6,282.3z M364,290.8c-5.9,0-11.6,0-17.4,0c0,2.1,0,4.1,0,6.1c5.9,0,11.6,0,17.4,0
			C364,294.9,364,293,364,290.8z M346.6,305.4c6,0,11.7,0,17.4,0c0-2.1,0-4,0-6c-5.9,0-11.6,0-17.4,0
			C346.6,301.4,346.6,303.3,346.6,305.4z M346.7,307.8c0,2.2,0,4.1,0,6c5.9,0,11.6,0,17.3,0c0-2.1,0-4,0-6
			C358.2,307.8,352.5,307.8,346.7,307.8z M346.6,322.3c6,0,11.7,0,17.4,0c0-2.1,0-4,0-6c-5.9,0-11.6,0-17.4,0
			C346.6,318.4,346.6,320.3,346.6,322.3z M346.6,273.9c0,2.1,0,4.1,0,6.1c5.9,0,11.6,0,17.4,0c0-2.1,0-4,0-6.1
			C358.2,273.9,352.5,273.9,346.6,273.9z M364,248.4c-5.8,0-11.6,0-17.4,0c0,2.1,0,4.1,0,6.1c5.9,0,11.6,0,17.4,0
			C364,252.3,364,250.5,364,248.4z M178.9,330.8c6,0,11.7,0,17.4,0c0-2.1,0-4,0-6.1c-5.8,0-11.6,0-17.4,0
			C178.9,326.9,178.9,328.8,178.9,330.8z M178.9,263c5.9,0,11.6,0,17.3,0c0-2.1,0-4.1,0-6.3c-6,0-11.8,0-17.7,0
			C178.6,258.8,178.7,260.7,178.9,263z M179,265.4c0,2.3,0,4.2,0,6.2c5.9,0,11.5,0,17.2,0c0-2.1,0-4.1,0-6.2
			C190.4,265.4,184.7,265.4,179,265.4z M178.9,297c5.9,0,11.6,0,17.3,0c0-2.1,0-4.1,0-6c-5.9,0-11.6,0-17.3,0
			C178.9,293,178.9,294.9,178.9,297z M196.3,299.3c-5.9,0-11.6,0-17.4,0c0,2.1,0,4.1,0,6.1c5.9,0,11.6,0,17.4,0
			C196.3,303.3,196.3,301.4,196.3,299.3z M178.9,288.4c5.9,0,11.6,0,17.3,0c0-2.1,0-4.1,0-6c-5.9,0-11.6,0-17.3,0
			C178.9,284.5,178.9,286.4,178.9,288.4z M196.3,273.9c-5.9,0-11.6,0-17.3,0c0,2.1,0,4,0,6.1c5.9,0,11.6,0,17.3,0
			C196.3,277.9,196.3,276,196.3,273.9z M196.3,316.3c-6,0-11.6,0-17.4,0c0,2.1,0,4.1,0,6.1c5.9,0,11.6,0,17.4,0
			C196.3,320.3,196.3,318.4,196.3,316.3z M178.9,313.9c5.8,0,11.6,0,17.3,0c0-2.1,0-4.1,0-6.1c-5.8,0-11.5,0-17.3,0
			C178.9,309.8,178.9,311.7,178.9,313.9z M178.9,254.5c5.9,0,11.6,0,17.3,0c0-2.1,0-4.1,0-6c-5.9,0-11.6,0-17.4,0c0,1.6,0,3,0,4.4
			C178.8,253.4,178.8,253.9,178.9,254.5z M179,333.3c0.2,3.4,2.2,5.7,5.2,5.9c2.3,0.2,4.6,0.2,6.8,0c3-0.3,5-2.7,5.1-5.9
			C190.4,333.3,184.7,333.3,179,333.3z M196.2,246.1c-0.8-5-3.6-6.4-11.4-5.8c-3.5,0.2-5.7,2.5-5.8,5.8
			C184.7,246.1,190.4,246.1,196.2,246.1z M346.8,246c5.7,0,11.4,0,17.2,0c-0.7-4.8-3.2-6.1-11-5.8C349.3,240.4,347,242.5,346.8,246z
			"/>
		<path fill-rule="evenodd" clip-rule="evenodd" d="M285.7,505.8c-2.3,0-4.6,0-6.9,0c-0.3,1.8-0.6,3.2-0.9,4.8
			c-4.3,0-8.6,0.1-12.9,0c-3.2-0.1-6.3-0.1-9.5-0.5c-1.3-0.1-2.6-1-3.9-1.4c-0.7-0.2-2-0.5-2.3-0.1c-1.6,1.6-2.8,1-4.3-0.1
			c-0.9-0.7-1.7-1.6-2.8,0c-0.2,0.3-1.3,0.3-2,0.2c-14.9-1.8-29.5-5.1-43.8-9.7c0.7-2.9,0.7-2.6-2.5-3.1c-1.9-0.3-3.5-1.8-5.4-2.8
			c2.1-2.2,3.7-4,5.4-5.8c0.3,0.5,0.7,1.2,1.2,2c0.4-0.5,0.8-0.9,1.5-1.7c0,1-0.1,1.5-0.1,2.3c2.6-2,4.8-0.2,7.2,0.4
			c5.7,1.5,11.4,3.1,17.7,4.7c-1.5,1.1-2.7,1.9-3.8,2.7c0.7,2.8,0.7,2.8,6.8,0c-0.6-0.7-1.2-1.4-1.8-2.2c2.2-0.2,2.2-0.2,3.3,1.5
			c1.4,2,3.3,2,5.2-0.1c0.5,0.6,0.9,1.2,0.9,1.2c1.6-0.3,2.7-0.7,3.8-0.6c7.5,0.8,15,1.7,22.5,2.5c0,0.5,0,1.3,0,2
			c0.3,0.1,0.6,0.2,0.6,0.2c1.1-3.1,3.7-2,5.9-2.1c8.3-0.2,16.7-0.1,25-0.7c73.4-5.6,132.4-44,169.4-93.8
			c7.9-10.6,14.8-21.7,20.8-33.5c0.4-0.9,0.9-1.7,1.2-2.3c3.7,0.3,7.3,0.6,11.2,0.9c-1.3,2.6-2.3,4.9-3.5,7.1
			c-26.3,50-64.9,87-116.1,110.9c-0.8,0.4-1.9,0.3-2.9,0.4c-0.4,0.1-1.1,0.1-1.2,0.2c-0.8,2.6-3.3,2.6-5.2,3.3
			c-18,7.4-36.7,12.5-55.9,15.3c-7.5,1.1-15,1.7-22.5,2.5c-0.1-0.3-0.2-0.6-0.3-0.9c1.2-0.6,2.3-1.3,3.8-2.1c-0.5-0.8-1-1.6-1.6-2.2
			C286.9,505.1,286.1,505.6,285.7,505.8L285.7,505.8z M474.5,394.5c-1.2,0.4-2.1,0.7-3.7,1.3c1.4,1.3,2.4,2.2,3.9,3.6
			C474.6,397.2,474.5,395.9,474.5,394.5z M469.1,403.6c0.1-0.5,0.2-1,0.3-1.5c-1.1-0.2-2.2-0.5-3.3-0.7c-0.1,0-0.3,1-0.5,1.5
			C466.7,403.2,467.9,403.4,469.1,403.6z"/>
		<path fill-rule="evenodd" clip-rule="evenodd" d="M233.2,478.2c20.4,3.4,40.3,4.3,60.3,2.2c20.2-2.1,39.7-6.9,58.5-14.5
			c18.8-7.6,36.2-17.7,52.1-30.3c16-12.5,29.9-27,41.8-43.5c11.8-16.4,20.8-34.2,28.2-53c3.5-8.8,10.9-40.7,12.1-58.3
			c1.3-20.3-0.1-40.3-4.4-60.2c-4.3-19.8-11.3-38.6-20.9-56.5c0.2-0.2,0.4-0.3,0.6-0.5c1.2,1.4,2.8,2.6,3.6,4.1
			c16.7,33,24.6,67.9,23.5,104.9c-0.7,23.2-4.9,45.6-12.9,67.4c-5.6,15.3-12.5,30-21.6,43.4C411.5,447,352,480.6,275.5,483.5
			c-5.9,0.2-11.9,0-17.9-0.4c-6.3-0.4-12.6-1.2-18.8-2c-1.5-0.2-3-0.8-4.5-1.3C233.9,479.8,233.8,479.2,233.2,478.2z"/>
		<path fill-rule="evenodd" clip-rule="evenodd" d="M267.6,375.1c0,9.1,0,18,0,27.1c-2.1,0-4.3,0-6.6,0c0-13.8,0-27.5,0-41.4
			c2.1,0,4.1-0.2,6.1,0.1c0.7,0.1,1.4,1.1,1.7,1.9c3.2,8,6.2,16,9.3,24c0.2,0.4,0.3,0.9,0.6,1.5c0-9.2,0-18.2,0-27.2
			c2,0,4.2,0,6.5,0c0,13.8,0,27.5,0,41.4c-2,0-4,0.2-5.8-0.1c-0.8-0.1-1.7-1.1-2-1.9c-3.1-8-6.1-16-9.2-24
			C268.1,376,267.9,375.7,267.6,375.1z"/>
		<path fill-rule="evenodd" clip-rule="evenodd" d="M291,360.9c2.8,0,5.2,0,7.9,0c0,3.3,0,6.5,0,9.8c0,5.9-0.1,11.7,0.1,17.6
			c0,1.8,0.3,3.7,1.1,5.3c0.5,1,2.1,2.1,3.2,2.1c1.1,0,2.6-1.2,3-2.3c0.7-1.7,0.9-3.7,0.9-5.6c0.1-8,0-16,0-23.9c0-0.9,0-1.9,0-2.9
			c2.7,0,5.1,0,7.6,0c0.1,0.1,0.3,0.2,0.3,0.4c-0.1,10.2,0.2,20.3-0.5,30.5c-0.6,8.5-6.8,12.5-14.9,10.7c-4.5-1-7.6-4.5-8.1-10.1
			c-0.5-4.8-0.5-9.6-0.5-14.4C291,372.3,291,366.7,291,360.9z"/>
		<path fill-rule="evenodd" clip-rule="evenodd" d="M227.2,402.4c-2.7,0-5.1,0.1-7.6-0.1c-0.6,0-1.6-0.8-1.7-1.4
			c-3-13.2-5.9-26.5-8.9-39.9c3,0,5.8,0,8.8,0c1.7,10.3,3.3,20.7,5.1,31.7c1.7-11,3.3-21.4,4.9-31.8c3,0,5.7,0,8.8,0
			C233.5,374.7,230.4,388.4,227.2,402.4z"/>
		<path fill-rule="evenodd" clip-rule="evenodd" d="M136.2,96.3c11.5-9.2,23.9-17.1,37-23.8c66.2-33.9,147.3-30.8,210.7,8
			c1.1,0.7,2.9,1.2,1,3c-24.7-15-51.2-25.3-79.8-29.6c-7.3-1.1-14.6-2-22-2.3C230.1,48.8,182.4,63.8,140,95.9
			c-0.9,0.7-2.3,0.9-3.5,1.3C136.4,96.9,136.3,96.6,136.2,96.3z"/>
		<path fill-rule="evenodd" clip-rule="evenodd" d="M246.5,377.6c3.1,0,6,0,9,0c0,2.2,0,4.2,0,6.6c-3,0-6,0-9.1,0
			c0,3.9,0,7.4,0,11.2c3.4,0,6.7,0,10.2,0c0,2.3,0,4.5,0,6.8c-5.9,0-12,0-18.1,0c0-13.7,0-27.4,0-41.2c5.8,0,11.5,0,17.5,0
			c0,2.1,0,4.2,0,6.6c-3.1,0-6.2,0-9.5,0C246.5,371,246.5,374.1,246.5,377.6z"/>
		<path fill-rule="evenodd" clip-rule="evenodd" d="M337.7,384.3c-3.1,0-6.1,0-9.1,0c0,3.7,0,7.2,0,11c3.3,0,6.7,0,10.3,0
			c0,2.4,0,4.6,0,6.9c-6,0-12,0-18.2,0c0-13.7,0-27.4,0-41.3c5.8,0,11.6,0,17.5,0c0,2.1,0,4.3,0,6.7c-3.1,0-6.2,0-9.5,0
			c0,3.4,0,6.6,0,10c3,0,5.9,0,9.1,0C337.7,379.8,337.7,381.8,337.7,384.3z"/>
		<path fill-rule="evenodd" clip-rule="evenodd" d="M268.8,297.2c0-3.1,0-6.1,0-9.2c0-15.8,0-31.6,0-47.3c0-1,0-1.9-0.1-2.9
			c-0.6-4.7-4.7-8.1-9.4-7.8c-4.5,0.3-8.2,4-8.3,8.7c-0.1,5.1,0,10.2,0,15.3c0,22.1,0,44.2,0,66.3c0,8.8-7.5,14.6-15.6,12.2
			c-5-1.5-8.5-5.9-8.5-11.1c-0.1-13.3-0.1-26.7,0-40c0-0.8,0.8-1.6,1.3-2.4c0.2,0.1,0.5,0.2,0.7,0.3c0,12.5,0,25.1,0,37.6
			c0,1.3,0,2.6,0,3.9c0.2,5.7,4.5,10.1,10,10.1c5.6,0,10-4.5,10-10.3c0-26.6,0-53.1,0-79.7c0-1.7,0.1-3.5,0.5-5.2
			c1.4-4.9,5.9-8,11-7.7c5.1,0.3,9.4,3.9,10.1,8.8c0.4,2.7,0.3,5.5,0.3,8.3c0,14.7,0,29.5,0,44.2c0,1.8,0.1,3.6-0.1,5.4
			c-0.1,1-0.7,1.9-1.1,2.8C269.4,297.4,269.1,297.3,268.8,297.2z"/>
		<path fill-rule="evenodd" clip-rule="evenodd" d="M134.2,97.6c0.7,0.6,1.3,1,2,1.6c-1.9,1.3-3.7,2.6-5.5,3.8
			c-0.1-0.1-0.1-0.2-0.2-0.4c-0.8,1.1-1.4,2.3-2.4,3.1c-46.7,43-70.9,96.1-72,159.7c0,1.2,0.3,2.6-2.2,2.3
			C54.9,198.8,81.9,142.3,134.2,97.6z"/>
		<path fill-rule="evenodd" clip-rule="evenodd" d="M111.5,410.5c-1.5,1.7-2.3,0.4-3.2-0.7C93.6,393,81.6,374.5,72.6,354
			c-10.7-24.2-16.7-49.6-18.2-76.1c-0.1-0.9,0-1.8,0-2.8c0.3-0.1,0.5-0.1,0.8-0.2c0.5,2,1.3,4,1.4,6c3.2,43.8,18.4,83.1,45.3,117.8
			C105,402.8,108.3,406.6,111.5,410.5z"/>
		<path fill-rule="evenodd" clip-rule="evenodd" d="M377.6,415.4c-73.6,0-147,0-220.6,0C158.8,414.1,375.8,414.2,377.6,415.4z"/>
		<path fill-rule="evenodd" clip-rule="evenodd" d="M400.7,91.7c25.3,18.9,45.5,42,60.9,69.4c-1.7,1.3-1.7,1.3-2.8-0.7
			c-7.9-13.9-17.3-26.8-28.1-38.7c-8.9-9.8-18.7-18.8-29.3-26.8C400.5,94.1,398.7,93.5,400.7,91.7z"/>
		<path fill-rule="evenodd" clip-rule="evenodd" d="M208,423.1c45.9,0,91.8,0,137.6,0c0,0.2,0,0.3,0,0.5c-45.9,0-91.8,0-137.6,0
			C208,423.4,208,423.2,208,423.1z"/>
		<path fill-rule="evenodd" clip-rule="evenodd" d="M365.1,128.1c2.4-4,4.9-8.1,7.3-12.1c-0.1-0.1-0.2-0.3-0.3-0.4
			c-2.7,1.8-5.4,3.5-8.3,5.5c0.2-3.4,0.3-6.5,0.5-9.6c-0.2-0.1-0.3-0.2-0.5-0.2c-2.2,4.1-4.5,8.3-6.7,12.4c-1.6-0.2-2.2-0.6-1.4-2.2
			c2.9-5.4,5.7-10.9,8.5-16.3c1.7,0,2.3,0.8,2.3,2.4c-0.1,3,0,6.1,0,9.4c1.7-1.1,3.4-2.4,5.3-3.4c1.7-0.9,3.1-3.6,5.8-1
			c-3.3,5.4-6.7,10.8-10.1,16.1c-0.3,0.4-1.4,0.3-2.1,0.5C365.2,128.7,365.2,128.4,365.1,128.1z"/>
		<path fill-rule="evenodd" clip-rule="evenodd" d="M155.7,447.8c0.6,0.3,1.2,0.6,1.8,1c16.9,10.6,34.9,18.6,54,24.2
			c1.2,0.3,3.1,0.3,1.9,3c-6.9-2.4-13.9-4.6-20.7-7.2c-12.2-4.6-23.9-10.5-34.9-17.4c-1.1-0.7-1.7-1.9-2.6-2.9
			C155.2,448.2,155.5,448,155.7,447.8z"/>
		<path fill-rule="evenodd" clip-rule="evenodd" d="M221.3,94.3c1.3,4.8,2.6,9.6,3.9,14.4c-0.1,0.2-0.2,0.5-0.4,0.7
			c-0.7-0.4-1.9-0.6-2-1.2c-1.8-5.9-3.4-11.9-5.1-17.9c1.6-1.1,2.8-1.2,4,0.5c2.8,3.8,5.9,7.4,9.2,10.9c-0.9-3.9-1.8-7.9-2.7-11.8
			c-0.2-1-1.2-2.4,0.7-2.7c0.4-0.1,1.4,1.2,1.6,2c1.2,5.3,2.4,10.6,3.5,15.9c0.2,0.7-0.2,1.6-0.3,2.4c-0.8-0.4-1.8-0.5-2.3-1.1
			c-3.3-4.1-6.4-8.3-9.6-12.4C221.6,94.1,221.5,94.2,221.3,94.3z"/>
		<path fill-rule="evenodd" clip-rule="evenodd" d="M181.6,127.3c-3.5-5.9-6.8-11.5-10.3-17.5c2.4-1.3,4.6-2.6,6.9-3.7
			c2.3-1,4.5-0.7,6.2,1.3c1.7,2,2,4.2,0.9,6.6c-0.3,0.5-0.5,1.1-0.9,1.8c2.9,1.6,5.8,3.2,8.7,4.8c0,0.3-0.1,0.6-0.1,0.9
			c-1.1-0.1-2.2,0.1-3.2-0.3c-1.7-0.7-3.3-1.6-4.8-2.7c-1.9-1.4-3.6-1.4-5.4,0.5c1.1,2.4,2.3,4.8,3.4,7.3
			C183.2,126.4,182.3,126.9,181.6,127.3z M174.3,109.9c1.6,2.7,3,5.2,4.4,7.6c2.5-1.3,5.2-2.3,5-5.3c-0.1-1.5-1.1-3.6-2.3-4.3
			C178.8,106.5,176.7,108.6,174.3,109.9z"/>
		<path fill-rule="evenodd" clip-rule="evenodd" d="M236.2,449.4c1.1,2,2.1,3.9,3.4,6.3c2.1-5.5,4-10.5,5.9-15.4c0.2,0,0.4,0,0.5,0
			c1.5,5.3,3,10.6,4.6,16c-0.2,0.2-0.5,0.3-0.7,0.5c-0.5-0.8-1.3-1.5-1.4-2.4c-0.3-2.1-1.3-2.9-3.5-2.9c-1.7,0-2.5,0.5-2.9,2.1
			c-0.3,1.1-0.3,2.6-2.3,2.6c-1.9,0-2.4-1-3-2.3c-0.5-1-0.9-2.1-1.6-3c-0.6-0.8-1.6-1.2-2.8-2.1c-0.3,2.8-0.6,4.8-0.8,6.8
			c-0.4,0-0.8-0.1-1.2-0.1c0.3-5,0.5-10,0.8-14.9c2.8-1.1,5.9-0.4,7,1.3C239.6,444.1,239,446.4,236.2,449.4z M232.3,447.6
			c0.2,0.3,0.4,0.5,0.7,0.8c1.3-0.6,3-0.9,3.8-1.9c0.7-0.9,0.7-3,0.1-3.8c-0.7-1-2.5-1.1-4.1-1.7
			C232.6,443.7,232.4,445.6,232.3,447.6z M247.4,450c-0.6-2-1.1-3.8-1.8-6.3c-0.9,2.5-1.5,4.3-2.2,6.3
			C244.8,450,245.9,450,247.4,450z"/>
		<path fill-rule="evenodd" clip-rule="evenodd" d="M143.2,146.9c-0.6,3.6,3.4,6.6,0.2,10.2c-0.8-3-1.7-5.9-2.5-8.9
			c-0.4-1.5-1.1-2.3-2.7-2.7c-3-0.6-5.9-1.5-9.3-2.3c3.7-4.1,7,0.5,10.3-0.1c0.7-3.1-3.4-6.4,0.4-9.8c0.7,2.9,1.4,5.8,2,8.8
			c0.3,1.6,1,2.4,2.6,2.8c2.9,0.8,5.8,1.9,8.8,2.8c-0.8,1.8-1.9,2-3.4,1.4C147.5,148.4,145.3,147.7,143.2,146.9z"/>
		<path fill-rule="evenodd" clip-rule="evenodd" d="M379.8,113.8c0.8,0.6,1.4,0.9,2,1.3c-0.1,0.3-0.1,0.6-0.3,0.8
			c-2.5,3.7-4.9,7.5-7.4,11.2c-1.9,3-1.8,4.9,0.4,6.4c2,1.3,3.8,0.7,5.9-2.2c2.7-3.8,5.4-7.5,8.2-11.4c0.7,0.5,1.3,1,2.1,1.5
			c-3.2,4.3-6.2,8.5-9.3,12.5c-1.9,2.4-5.1,2.5-7.8,0.7c-2.7-1.9-3.6-4.9-1.9-7.8C374.2,122.4,377,118.2,379.8,113.8z"/>
		<path fill-rule="evenodd" clip-rule="evenodd" d="M133.9,168.1c-5.2-4.2-10.3-8.4-15.7-12.8c2.8-3.2,5.5-6.3,8.3-9.3
			c0.3-0.3,1-0.2,1.5-0.4c-0.2,0.5-0.2,1.1-0.5,1.5c-2,2.3-4.1,4.6-6.2,7c1.9,1.6,3.7,3.1,5.5,4.7c1.7-1.9,3.4-3.6,5-5.4
			c0.5,3.1-2.7,4.1-3.4,6.7c1.8,1.6,3.8,3.3,5.9,5.1c2.6-2.3,4.3-5.4,7.1-7.2c0.2,0.3,0.5,0.5,0.7,0.8
			C139.3,161.9,136.7,164.9,133.9,168.1z"/>
		<path fill-rule="evenodd" clip-rule="evenodd" d="M152.8,137.8c1.7,2,3.3,4,5.1,6.2c-0.6,0.5-1.1,1-1.7,1.5
			c-4.4-5.1-8.7-10.2-13.2-15.5c2.4-1.8,4.5-3.6,6.8-5.1c2.6-1.6,5-1.1,6.9,1c2,2.3,2.2,4.9,0.3,7.4
			C155.7,134.9,154.3,136.2,152.8,137.8z M146,129.7c1.8,2.2,3.7,4.4,5.5,6.7c4.7-3.4,5.6-5.9,3.2-8.6
			C152.5,125.1,150.1,125.6,146,129.7z"/>
		<path fill-rule="evenodd" clip-rule="evenodd" d="M153.1,448.9c-2.6-2.1-4.9-4.1-7.3-6c-1.2-0.9-2.8-1.4-4-2.4
			c-7.3-6.1-14.5-12.3-21.7-18.5c-0.9-0.8-1.2-2.2-1.8-3.4c0.3-0.1,0.5-0.3,0.8-0.4c3.1,2.9,6.1,6,9.4,8.7
			c7.7,6.2,15.6,12.2,23.4,18.2C153.5,446.5,153.6,446.4,153.1,448.9z"/>
		<path fill-rule="evenodd" clip-rule="evenodd" d="M327.8,90.2c0.9,0.3,1.6,0.5,2.5,0.8c-3.4,6-6.7,11.8-10.2,17.6
			c-0.3,0.4-1.4,0.8-1.9,0.5c-0.6-0.3-1.3-1.1-1.4-1.8c-0.1-6.5-0.1-13-0.1-19.5c2.1-0.7,2.5,0.4,2.5,2.1c0,5.1,0,10.2,0,15.7
			C322.2,100.4,324.9,95.4,327.8,90.2z"/>
		<path fill-rule="evenodd" clip-rule="evenodd" d="M426.1,162.5c-0.4-1.6-1-2.6-0.7-3.4c0.7-2,0.2-3.7-1.2-4.7
			c-1.3-0.9-3.4-1.7-4.7-1.3c-4.3,1.3-7.7,4.3-9.6,8.4c-0.6,1.2-0.2,3.5,0.6,4.5c0.8,1,2.8,1,4.3,1.5c0.9,0.3,1.8,0.6,3.1,1
			c-2.8,2-5,1.7-6.9,0.2c-2.4-1.9-4.2-4.3-3.3-7.4c1.5-5.4,5.4-8.8,10.5-10.4c3.2-1,5.8,0.6,7.8,3.1c1.5,2,2.7,4.2,1.4,6.8
			C427.2,161.2,426.9,161.5,426.1,162.5z"/>
		<path fill-rule="evenodd" clip-rule="evenodd" d="M402.7,134.2c-0.6-0.5-1.3-1-1.7-1.6c-1-1.3-1.5-3.1-2.8-4c-1-0.7-3-0.8-4-0.2
			c-0.8,0.4-1.2,2.4-1,3.6c0.4,2.2,1.5,4.3,2.2,6.4c0.9,2.5,1,4.8-1.4,6.6c-2.1,1.6-4.4,1.5-7.1-0.3c-2.5-1.7-3.7-3.6-3.7-7.4
			c0.5,0.5,1.2,1,1.6,1.6c1,1.5,1.6,3.5,3,4.3c1.1,0.7,3.2,0.5,4.6-0.1c1.7-0.7,1.7-2.5,1.1-4.1c-0.8-2.3-1.7-4.6-2.6-6.9
			c-0.8-2.1-0.5-4,1.2-5.5c1.8-1.6,3.7-1.2,5.6-0.2c3,1.5,4.7,4,5.6,7.1C403.1,133.8,402.9,134,402.7,134.2z"/>
		<path fill-rule="evenodd" clip-rule="evenodd" d="M178.3,127.6c0,1.7-3.2,4.2-9.3,7.6c-3.8-5.4-7.6-10.8-11.6-16.4
			c3.7-2.4,7.2-4.7,10.8-7.1c0.2,0.3,0.4,0.5,0.6,0.8c-2.2,2.7-5.8,3.6-8.3,6.2c1.3,1.9,2.6,3.8,4,5.8c2.1-1.3,3.9-2.5,5.8-3.7
			c0.2,0.2,0.4,0.5,0.6,0.7c-0.7,0.7-1.4,1.4-2.2,2c-1,0.8-2.1,1.5-3.4,2.3c1.6,2.4,3.2,4.6,4.7,6.9
			C172.8,131,175.4,129.4,178.3,127.6z"/>
		<path fill-rule="evenodd" clip-rule="evenodd" d="M340.5,105.1c-2.1-0.6-4.3-1.3-6.6-2c-0.9,2.6-1.8,5.1-2.6,7.6
			c2.8,1.7,6.2,1.8,8.5,3.9c-0.1,0.3-0.3,0.6-0.4,0.8c-3.5-1.3-7-2.6-10.7-3.9c2.1-6.3,4.1-12.5,6.2-18.7c4.4,0.4,11.3,3.4,11.5,5.2
			c-3.1-1.1-6.1-2.2-9.5-3.4c-0.8,2.3-1.5,4.5-2.3,6.8c2.2,0.9,4.3,1.8,6.4,2.7C340.7,104.5,340.6,104.8,340.5,105.1z"/>
		<path fill-rule="evenodd" clip-rule="evenodd" d="M220.7,110.1c-3.5,1.2-7,2.4-10.9,3.7c-2.3-6.3-4.6-12.4-7-18.8
			c4-1.6,7.9-3.1,11.9-3.9c0.1,0.3,0.2,0.7,0.3,1c-3.1,1.1-6.1,2.1-9.4,3.3c0.8,2.3,1.6,4.5,2.4,6.9c2.2-0.7,4.3-1.4,6.5-2
			c0.2,0.3,0.3,0.6,0.5,0.9c-0.9,0.4-1.7,0.9-2.6,1.3c-1.1,0.5-2.3,0.8-3.7,1.4c0.9,2.6,1.8,5.1,2.8,7.8c3.1-1,6-1.9,8.9-2.8
			C220.5,109.3,220.6,109.7,220.7,110.1z"/>
		<path fill-rule="evenodd" clip-rule="evenodd" d="M255.3,93.7c0.2,2.7,0.5,5.3,0.7,8.2c3.2,0,6.2,0,9.2,0c0,0.3,0,0.6,0,0.9
			c-3.6,0.3-7.3,0.5-11.3,0.8c-0.7-6.7-1.4-13.2-2.1-20.1c4.2-0.3,8.2-0.5,12.2-0.8c0,0.4,0.1,0.8,0.1,1.2c-3.1,0.3-6.3,0.6-9.7,0.9
			c0.2,2.5,0.4,4.8,0.6,7.2c2.5,0,4.6,0,6.8,0c0,0.3,0.1,0.6,0.1,0.9C259.9,93.1,257.7,93.4,255.3,93.7z"/>
		<path fill-rule="evenodd" clip-rule="evenodd" d="M247.7,88.7c-1.2-0.6-2.2-0.8-2.8-1.4c-2.4-2.4-6.5-1.6-7.3,1.7
			c-1.1,4.7-0.3,9.3,2.5,13.3c0.7,1,2.6,1.7,3.8,1.5c1.1-0.2,2-1.7,3-2.7c0.5-0.5,1-1.1,1.7-1.5c0.7,2.3-0.1,3.9-2,5
			c-2.4,1.4-5.4,1.3-7.4-0.3c-3.7-2.8-5.7-12.5-3.4-16.6c1.4-2.4,4.5-3.8,7.7-3.3C245.7,84.7,247.2,85.7,247.7,88.7z"/>
		<path fill-rule="evenodd" clip-rule="evenodd" d="M412.8,142.7c-3.9,4-7.9,8-11.9,12.1c0.3,0.4,0.9,1.2,1.6,2
			c-1.8,0.6-6.5-3.9-6.2-6.2c0.8,0.6,1.5,1.2,2,1.5c4.1-3.9,8.2-7.8,12.3-11.6c-0.7-1.1-1.4-2-1.6-2.4c1.9,1.9,4.1,4.2,6.1,6.1
			C414.4,143.9,413.6,143.3,412.8,142.7z"/>
		<path fill-rule="evenodd" clip-rule="evenodd" d="M252.6,456.5c0-2,0-4,0-6.1c0-2.5,0.1-5.1,0.3-7.6c0-0.6,0.6-1.2,1-1.8
			c0.5,0.5,1.1,0.8,1.3,1.4c1.3,3.2,2.6,6.5,3.8,9.7c0.3,0,0.5,0,0.8,0c0-3.6,0-7.2,0-10.8c0.3,0,0.7,0,1,0.1c0,5.2,0,10.5,0,16.3
			c-2.6-1.6-2.6-4.2-3.5-6.1c-1-2-1.7-4.2-2.9-6.3c-0.2,3.8-0.4,7.6-0.5,11.3C253.4,456.5,253,456.5,252.6,456.5z"/>
		<path fill-rule="evenodd" clip-rule="evenodd" d="M200.6,115.8c1.1-0.3,2-0.5,2.9-0.8c0.1,0.3,0.3,0.5,0.4,0.8
			c-2.1,1.8-4.9,2.3-7.2,3.6c-0.2-0.2-0.4-0.4-0.5-0.7c0.7-0.6,1.4-1.3,2.3-2.2c-2.2-4.9-4.5-10-6.8-15.3c-1.1,0.4-2.1,0.8-3,1.1
			c0.1-2,6-4.8,8.4-3.9c-1,0.6-1.8,1.1-3,1.8C196.1,105.4,198.4,110.6,200.6,115.8z"/>
		<path fill-rule="evenodd" clip-rule="evenodd" d="M206,437.8c-0.6,5.3-1.1,10.6-1.7,15.9c-0.3,0-0.6,0.1-0.9,0.1
			c-2.3-3.8-2.5-8.4-4.6-13.2c-0.6,4.3-1.1,8-1.5,11.7c-0.2,0.1-0.4,0.1-0.6,0.2c-0.2-0.4-0.6-0.8-0.6-1.2c0.4-4.3,0.9-8.5,1.5-12.8
			c0.1-0.5,0.7-1,1-1.5c0.4,0.5,1.1,0.9,1.3,1.4c1.1,3.3,2,6.6,3.5,9.9c0.5-3.6,0.9-7.1,1.4-10.7C205.2,437.7,205.6,437.7,206,437.8
			z"/>
		<path fill-rule="evenodd" clip-rule="evenodd" d="M305.3,103.9c1.2,0.6,2,1,2.8,1.4c-0.1,0.3-0.2,0.6-0.3,0.8
			c-2.6-0.7-5.4-0.4-7.6-2.5c0.9,0,1.8,0,3,0c0.9-5.5,1.9-11,2.8-16.5c-1.2-0.5-2.1-0.9-3.1-1.2c0.1-0.3,0.2-0.7,0.3-1
			c2.9,0.5,5.7,1,8.6,1.5c0,0.4-0.1,0.8-0.1,1.2c-0.9,0-1.9-0.1-3.2-0.2C307.4,92.8,306.3,98.4,305.3,103.9z"/>
		<path fill-rule="evenodd" clip-rule="evenodd" d="M336.9,445.4c2.4,1.3,3.3,3.4,2.5,5.8c-1.3,3.6-4.7,2.5-7.7,3.1
			c-0.5-5.2-0.9-10.3-1.4-15.5c2.7-0.3,5.3-1.5,7.3,0.9C339.1,441.5,338.6,443.6,336.9,445.4z M332.9,453.4c2-0.9,3.7-1.3,4.8-2.3
			c0.5-0.5,0.3-2.7-0.3-3.2c-1.2-0.9-3-1.2-5-1.8C332.6,448.7,332.7,450.5,332.9,453.4z M332.4,445.9c1.7-0.9,3.2-1.3,4.1-2.4
			c0.5-0.6,0.4-2.7-0.2-3c-1.2-0.7-2.7-0.8-4.5-1.2C332,441.8,332.1,443.5,332.4,445.9z"/>
		<path fill-rule="evenodd" clip-rule="evenodd" d="M287.9,83.2c-0.5,6.2-0.9,12.3-1.4,18.5c3.2,0.4,6.3,0.8,9.3,1.2
			c0,0.4-0.1,0.7-0.1,1.1c-3.7-0.3-7.5-0.6-11.5-0.9c0.2-2.7,0.4-5.2,0.5-7.7c0.2-3.6,0.5-7.1,0.6-10.7
			C285.3,83,286.1,82.6,287.9,83.2z"/>
		<path fill-rule="evenodd" clip-rule="evenodd" d="M317.8,448.3c-0.3,1.9-0.3,3.4-0.7,4.9c-0.5,1.8-1.9,2.9-3.8,3
			c-2,0.2-3.7-0.5-4.5-2.4c-1.5-3.7-2-7.7-0.5-11.5c0.5-1.2,2.3-2.2,3.7-2.6c1.8-0.5,3.6,0.4,4.2,2.2
			C317,444.1,317.3,446.4,317.8,448.3z M308.7,447.3c0.4,1.8,0.6,3.9,1.4,5.8c0.4,0.9,1.9,1.7,2.9,1.7c0.9,0,2.2-1,2.5-1.9
			c1.2-3.4,0.9-7-0.6-10.2c-0.4-0.9-1.9-1.7-2.9-1.7c-0.8,0-2,1-2.5,1.9C309,444.1,309,445.6,308.7,447.3z"/>
		<path fill-rule="evenodd" clip-rule="evenodd" d="M363.9,450.1c0.9-5.5,1.9-10.9,2.9-17.2c2.9,5.7,5.4,10.7,7.9,15.6
			c-0.2,0.2-0.5,0.4-0.7,0.7c-0.6-0.7-1.4-1.3-1.8-2.1c-0.7-1.6-1.3-2.5-3.4-2.2c-2,0.3-3,1-3,3c0,0.9-0.6,1.7-0.9,2.5
			C364.6,450.4,364.2,450.2,363.9,450.1z M366.4,444c1.5-0.3,2.6-0.5,4-0.7c-0.9-1.9-1.8-3.6-2.9-5.9
			C367.1,439.9,366.8,441.8,366.4,444z"/>
		<path fill-rule="evenodd" clip-rule="evenodd" d="M193.2,452.1c-0.4-0.8-0.9-1.6-1-2.5c-0.2-1.6-0.5-2.8-2.5-3
			c-2-0.2-3.4-0.1-4,2.2c-0.2,0.8-1.1,1.5-1.7,2.3c-0.3-0.2-0.6-0.4-0.8-0.6c2.4-5.1,4.9-10.2,7.6-16c1.2,6.1,2.2,11.6,3.3,17
			C193.8,451.8,193.5,451.9,193.2,452.1z M190.4,439.8c-0.2,0-0.4,0-0.5,0c-0.8,1.7-1.5,3.4-2.4,5.4c1.5,0.1,2.7,0.3,4,0.4
			C191,443.4,190.7,441.6,190.4,439.8z"/>
		<path fill-rule="evenodd" clip-rule="evenodd" d="M343.9,444.1c1.8,0,3.3,0,4.8,0c0,0.2,0.1,0.4,0.1,0.6c-1.4,0.3-2.9,0.6-4.7,1
			c0.2,1.8,0.4,3.7,0.6,5.8c2.4-0.2,4.6-0.3,6.7-0.5c0,0.3,0.1,0.7,0.1,1c-2.6,0.4-5.2,0.8-8.2,1.2c-0.6-5.3-1.1-10.2-1.7-15.6
			c2.7-0.3,5.3-0.6,7.9-0.9c0.1,0.4,0.1,0.7,0.2,1.1c-2.1,0.4-4.2,0.7-6.5,1.1C343.6,440.6,343.7,442.2,343.9,444.1z"/>
		<path fill-rule="evenodd" clip-rule="evenodd" d="M293.6,443.4c-0.9-0.5-1.5-1.2-2.2-1.2c-1.1,0-2.8,0.1-3.2,0.7
			c-0.4,0.9-0.2,2.5,0.5,3.4c0.7,1,2.1,1.6,3.2,2.2c1.9,1.2,3.6,2.7,2.8,5c-0.5,1.4-1.8,2.8-3.1,3.4c-2.1,0.9-3.8,0-6.1-2.9
			c1.2,0.3,1.9,0.4,2.3,0.7c2.2,1.5,3.9,1.4,5-0.2c1.1-1.6,0.5-3.3-1.6-4.8c-1.2-0.8-2.8-1.4-3.6-2.5c-0.8-1.1-1.3-3-1-4.3
			c0.2-1,1.9-2.3,3-2.3c1.4,0,2.9,1,4.4,1.6C293.9,442.3,293.7,442.8,293.6,443.4z"/>
		<path fill-rule="evenodd" clip-rule="evenodd" d="M173.7,446.8c0.5,0.3,1.1,0.5,1.5,0.9c1.4,1.4,2.9,2.2,4.6,0.8
			c1.4-1.1,1.8-2.7,0.5-4.1c-0.8-0.9-1.8-1.7-2.7-2.5c-2.7-2.4-3.2-5.1-1.1-7c1.9-1.8,4.8-1.1,6.8,2.1c-0.5-0.2-1.2-0.2-1.6-0.5
			c-1.4-1.2-2.9-2-4.3-0.2c-1.4,1.7-0.3,3.1,1,4.3c0.8,0.7,1.6,1.4,2.3,2.1c2.2,2.2,2.4,5.1,0.3,6.9c-1.7,1.6-5,1.2-6.9-0.8
			c-0.3-0.4-0.6-0.9-0.9-1.3C173.4,447.2,173.5,447,173.7,446.8z"/>
		<path fill-rule="evenodd" clip-rule="evenodd" d="M272.1,444.4c-0.5,0-0.6,0-0.7,0c-1.1-1-1.9-3.4-3.8-2.1
			c-1.3,0.9-2.3,2.8-2.6,4.4c-0.4,2-0.2,4.2,0.2,6.2c0.3,1.1,1.3,2.5,2.4,3c1.5,0.7,2.6-0.4,3.1-2c0.1-0.3,0.6-0.4,1.2-0.8
			c0.3,2.2-0.6,3.4-2.3,4c-1.9,0.6-3.6,0.3-4.9-1.4c-2-2.7-1.9-10.6,0.2-13.3c1.2-1.6,2.9-2,4.7-1.5
			C271.2,441.4,272.2,442.5,272.1,444.4z"/>
		<path fill-rule="evenodd" clip-rule="evenodd" d="M305.2,443.6c-0.5-0.2-0.8-0.4-1-0.5c-1.1-0.6-2.4-1.8-3.1-1.5
			c-1.1,0.4-2.2,1.9-2.4,3c-0.3,2.5-0.2,5.1,0.3,7.5c0.2,1.2,1.5,2.7,2.6,3.1c1.7,0.7,2.6-0.9,3.1-2.4c0.1-0.2,0.4-0.3,1.3-0.3
			c-0.4,1-0.5,2.7-1.2,3c-1.5,0.6-3.2,0.7-4.9,0.6c-0.6,0-1.3-0.9-1.6-1.6c-1.8-4.1-2.2-8.3-0.2-12.4c0.5-1.1,2.5-2,3.8-2
			c1.1-0.1,2.2,1.2,3.3,2C305.3,442.4,305.2,443,305.2,443.6z"/>
		<path fill-rule="evenodd" clip-rule="evenodd" d="M220.3,439c3,0.3,5.5,0.5,8.1,0.7c0,0.2,0,0.5,0,0.7c-2.1,0-4.3,0-6.7,0
			c-0.2,1.8-0.4,3.5-0.6,5.4c1.8,0.3,3.5,0.5,5.1,0.7c0,0.2,0,0.5,0,0.7c-1.6,0-3.2,0-5.1,0c-0.3,2.6-0.5,4.9-0.8,7.8
			c-0.6-0.7-1.2-1.1-1.2-1.4C219.5,448.9,219.9,444.2,220.3,439z"/>
		<path fill-rule="evenodd" clip-rule="evenodd" d="M364.4,333c-4.9,0-9.8,0-14.9,0c-0.1-0.4-0.1-1.1-0.3-1.9c4.7,0,9.3,0,13.9,0.1
			c0.6,0,1.1,0.7,1.7,1.1C364.7,332.5,364.5,332.7,364.4,333z"/>
		<path fill-rule="evenodd" clip-rule="evenodd" d="M214.6,475.2c0.9-0.2,1.8-0.7,2.5-0.5c4.6,0.9,9.2,2,13.8,3.1
			c0.6,0.2,1.1,0.9,1.7,1.4c-0.2,0.3-0.4,0.6-0.6,0.9c-5.8-1.3-11.5-2.5-17.3-3.8C214.7,475.9,214.7,475.6,214.6,475.2z"/>
		<path fill-rule="evenodd" clip-rule="evenodd" d="M351.2,436.4c3.3-0.4,6.7-0.8,10-1.3c0.1,0.3,0.1,0.7,0.2,1
			c-1.4,0.3-2.8,0.7-4.4,1.1c0.5,4.2,1.1,8.3,1.5,12.4c0.1,0.6-0.2,1.2-0.4,1.8c-0.3,0-0.5-0.1-0.8-0.1c-0.6-4.6-1.2-9.1-1.9-14
			c-1.5,0-3,0-4.4,0C351.1,437,351.1,436.7,351.2,436.4z"/>
		<path fill-rule="evenodd" clip-rule="evenodd" d="M88.1,247.4c2.2-1.2,2.9-4.2,6-3.2c-0.2,2.5-0.5,4.9-0.7,7.6
			C90.1,252.1,90,249,88.1,247.4z"/>
		<path fill-rule="evenodd" clip-rule="evenodd" d="M429.5,360.8c-2.3,0.3-4.1,2.6-6.7,0.6c1.3-2.3,2.6-4.5,4-6.8
			C429.8,355.9,428.5,358.6,429.5,360.8z"/>
		<path fill-rule="evenodd" clip-rule="evenodd" d="M449.9,257.5c-0.2-2.7-0.4-5.1-0.6-7.8c3.2-0.9,3.7,2.2,5.7,3.3
			C453.5,254.7,453.1,257.3,449.9,257.5z"/>
		<path fill-rule="evenodd" clip-rule="evenodd" d="M452.1,301.2c-2,0.9-2.9,3.9-5.9,2.5c0.5-2.5,0.9-5,1.4-7.4
			C449.9,296.6,449.9,296.6,452.1,301.2z"/>
		<path fill-rule="evenodd" clip-rule="evenodd" d="M440.8,326.1c0.9,1.8,1.8,3.5,2.9,5.7c-2.4,0.7-3.8,3.4-6.7,1.8
			c0.9-2.4,1.9-4.7,2.8-7C440.1,326.4,440.4,326.3,440.8,326.1z"/>
		<path fill-rule="evenodd" clip-rule="evenodd" d="M395.2,318.9c-0.4,1.3-0.4,2.3-0.9,2.8c-1,1.1-2.1,2.1-3.3,3
			c-2.4,1.6-4.9,3.1-7.4,4.6c-0.2-0.1-0.5-0.2-0.7-0.4c0.3-0.7,0.5-1.7,1.1-2.1C387.4,324.3,390.9,321.9,395.2,318.9z"/>
		<path fill-rule="evenodd" clip-rule="evenodd" d="M105.9,199c-1,2.4-1.8,4.7-2.8,7.2c-3.1-0.6-2.5-3.6-3.7-5.5
			C101.6,199.9,103,197.4,105.9,199z"/>
		<path fill-rule="evenodd" clip-rule="evenodd" d="M436.1,196.9c-1.1-2.4-2.1-4.7-3.2-7.1c2.8-1.8,4.3,0.8,6.6,1.3
			C438.5,193.2,439.1,195.8,436.1,196.9z"/>
		<path fill-rule="evenodd" clip-rule="evenodd" d="M444.3,311.4c3.3,0.5,2.8,3.4,4.2,5.2c-2.1,0.8-3.2,3.6-6.3,2.3
			C442.9,316.5,443.6,314.1,444.3,311.4z"/>
		<path fill-rule="evenodd" clip-rule="evenodd" d="M276.2,455.9c0.7-0.2,1.3-0.5,2-0.7c0-3.7,0.1-7.4-0.1-11c0-0.8-1-1.6-1.7-2.6
			c1.5,0,3.3,0,4.4,0c-0.4,1.4-1.1,2.7-1.2,4.1c-0.2,3.1-0.1,6.3-0.1,9.5c1,0.2,1.7,0.4,2.4,0.6c0,0.3,0,0.6,0,0.9
			c-1.9,0.1-3.8,0.2-5.7,0.3C276.3,456.6,276.2,456.3,276.2,455.9z"/>
		<path fill-rule="evenodd" clip-rule="evenodd" d="M100.6,213.7c-0.8,2.6-1.4,5-2.1,7.5c-3.1-0.4-2.8-3.3-4.2-5.2
			C96.4,215.1,97.5,212.4,100.6,213.7z"/>
		<path fill-rule="evenodd" clip-rule="evenodd" d="M455.8,269.2c-1.9,1.6-3.4,2.9-4.9,4.2c-0.2-0.2-0.5-0.4-0.7-0.6
			c0-2.5,0-5.1,0-7.7C453.4,264.7,453.6,267.7,455.8,269.2z"/>
		<path fill-rule="evenodd" clip-rule="evenodd" d="M441.5,211.5c-0.9-2.5-1.7-4.8-2.4-7.1c2-1.3,2-1.3,6.2,1.8
			C444.2,207.9,444.7,210.6,441.5,211.5z"/>
		<path fill-rule="evenodd" clip-rule="evenodd" d="M450.5,221.2c-1.7,2.4-2.9,4-4,5.6c-0.3-0.1-0.6-0.3-0.9-0.4
			c-0.6-2.4-1.2-4.8-1.9-7.4C446.8,217.6,447.7,220.9,450.5,221.2z"/>
		<path fill-rule="evenodd" clip-rule="evenodd" d="M96.7,228.8c-0.5,2.6-0.9,5-1.4,7.7c-3.2-0.2-3.1-3.2-4.6-4.9
			C92.6,230.4,93.5,227.7,96.7,228.8z"/>
		<path fill-rule="evenodd" clip-rule="evenodd" d="M418.5,367.7c2.8,1.7,1.6,4.2,2,6.4c-2.3,0.1-4.2,2.3-6.5-0.1
			C415.4,372,416.9,370,418.5,367.7z"/>
		<path fill-rule="evenodd" clip-rule="evenodd" d="M118.7,369.5c0.7-2.5,1.2-4.4,1.7-6.3c0.3,0,0.6,0,0.9,0.1
			c1.4,2.1,2.9,4.1,4.4,6.4C123.3,372,121.3,369.6,118.7,369.5z"/>
		<path fill-rule="evenodd" clip-rule="evenodd" d="M105.5,186c2.5-0.5,4-3,6.8-1.2c-1.1,2.3-2.2,4.5-3.3,6.9
			C105.7,191,107,187.9,105.5,186z"/>
		<path fill-rule="evenodd" clip-rule="evenodd" d="M94.4,290.7c0.4,2.6,0.8,5,1.3,7.7c-3.1,1.2-3.9-1.9-6-2.9
			C91.1,293.7,91.2,291,94.4,290.7z"/>
		<path fill-rule="evenodd" clip-rule="evenodd" d="M113.5,349.9c1.3,2.3,2.5,4.4,3.7,6.5c-1.9,1.5-2.4,1.4-6.3-0.8
			C111.2,351.2,111.3,351,113.5,349.9z"/>
		<path fill-rule="evenodd" clip-rule="evenodd" d="M430.5,347.6c1.1-2.3,2.3-4.5,3.4-6.8c2.8,0.7,2.2,3.2,2.8,4.9
			c0.1,0.3-0.5,1.3-1,1.4C434.1,347.7,432.5,349.7,430.5,347.6z"/>
		<path fill-rule="evenodd" clip-rule="evenodd" d="M106.8,335.8c1.1,2.4,2.1,4.6,3.1,6.8c-1.2,1.8-2.6,0.9-3.8,0.1
			c-0.9-0.5-2.4-1.5-2.2-2C104.3,339,103.8,336.5,106.8,335.8z"/>
		<path fill-rule="evenodd" clip-rule="evenodd" d="M116.1,178c-3-1.2-1.8-3.9-2.6-6c2.2-0.7,4.1-2.6,6.6-0.7
			C118.7,173.5,117.4,175.7,116.1,178z"/>
		<path fill-rule="evenodd" clip-rule="evenodd" d="M103.9,328.5c-3,1.5-4.2-1.1-6.4-1.9c1.3-1.9,0.7-4.7,3.9-5.4
			C102.2,323.6,103,325.9,103.9,328.5z"/>
		<path fill-rule="evenodd" clip-rule="evenodd" d="M92.9,275.4c0.2,2.6,0.4,4.9,0.6,7.5c-3.3,1.1-3.7-2.3-5.9-3.4
			C89.6,278.1,89.6,274.8,92.9,275.4z"/>
		<path fill-rule="evenodd" clip-rule="evenodd" d="M453.5,237.2c-2,1.6-1.8,4.8-5,4.5c-0.4-2.5-0.8-4.9-1.3-7.5
			C450.3,233,451.1,236.1,453.5,237.2z"/>
		<path fill-rule="evenodd" clip-rule="evenodd" d="M99.1,313.6c-3,1.3-4.1-1.4-6.2-2.4c1.3-1.9,1.1-4.6,4.3-5.2
			C97.8,308.5,98.4,311,99.1,313.6z"/>
		<path fill-rule="evenodd" clip-rule="evenodd" d="M87.4,263.4c1.8-1.3,2.2-4.2,5.3-3.7c0,2.6,0,5.1,0,7.5
			C90.5,267.5,90.5,267.5,87.4,263.4z"/>
		<path fill-rule="evenodd" clip-rule="evenodd" d="M449.5,280.8c3.3-0.1,3.3,2.9,5.1,4.3c-1.9,1.5-2.8,3.9-5.8,3.5
			C449,285.9,449.3,283.5,449.5,280.8z"/>
		<path fill-rule="evenodd" clip-rule="evenodd" d="M276.6,305.7c-1,3-2.8,2.3-4.3,1.7c-3.3-1.4-3.8-4-1.6-8.6
			C270.8,302.8,270.9,306.6,276.6,305.7z"/>
		<path fill-rule="evenodd" clip-rule="evenodd" d="M432.2,176.4c-0.2,1.3-0.3,2.2-0.5,3.8c-0.5-1.4-0.7-2-1.2-3.3
			c-1,1.3-1.7,2.2-2.5,3.2c-0.7-1.3-1.5-2.7-2.4-4.2C428.1,173.8,429.8,176.5,432.2,176.4z"/>
		<path fill-rule="evenodd" clip-rule="evenodd" d="M285.7,505.8c0.2,0.5,0.4,1.1,0.7,1.7c-1.6,0.9-2.8,3-5.6,1.4
			C282.6,507.7,284.1,506.7,285.7,505.8C285.7,505.8,285.7,505.8,285.7,505.8z"/>
		<path fill-rule="evenodd" clip-rule="evenodd" d="M56.2,270.4c0,1.4,0,2.7,0,4.1c-0.2,0.1-0.4,0.2-0.6,0.3
			c-0.5-0.8-1.3-1.5-1.4-2.3c0-0.8,0.7-1.7,1.1-2.5C55.7,270.1,55.9,270.2,56.2,270.4z"/>
		<path fill-rule="evenodd" clip-rule="evenodd" d="M111.6,413.6c0.6-0.7,1-1.2,1.4-1.7c0.8,0.9,1.7,1.8,2.5,2.7
			c-0.6,0.4-1.2,0.7-1.7,1.1C113.1,415,112.3,414.3,111.6,413.6z"/>
		<path fill-rule="evenodd" clip-rule="evenodd" d="M278.5,290.8c3.2,0.6,1.5,2.7,2.3,4.1C277.8,294.5,278.7,292.6,278.5,290.8z"/>
		<path fill-rule="evenodd" clip-rule="evenodd" d="M379.1,414.8c2.2,0,4.3,0,6.5,0c0,0.2,0,0.3,0,0.5c-2.2,0-4.3,0-6.5,0
			C379.1,415.1,379.1,415,379.1,414.8z"/>
		<path fill-rule="evenodd" clip-rule="evenodd" d="M185.6,494.2c1-0.1,2.1-0.5,2.9-0.2c0.6,0.2,0.9,1.3,1.8,2.6
			c-2.1-0.7-3.4-1.2-4.7-1.6C185.6,494.8,185.6,494.5,185.6,494.2z"/>
		<path fill-rule="evenodd" clip-rule="evenodd" fill="#FFFFFF" d="M478.1,143.8c-0.2,1.2-0.3,2.4-0.8,3.5c-0.2,0.6-1.1,1.2-1.7,1.2
			c-0.5,0-1.3-0.7-1.4-1.2c-0.2-0.6-0.1-1.6,0.4-2c0.8-0.8,2-1.3,3-1.9C477.7,143.5,477.9,143.6,478.1,143.8z"/>
		<path fill-rule="evenodd" clip-rule="evenodd" fill="#FFFFFF" d="M117.5,446.9c1,0.5,2.1,0.7,2.9,1.5c0.3,0.3-0.2,1.5-0.4,2.2
			c-1.1-0.8-2.1-1.6-3.2-2.3C117,447.8,117.2,447.4,117.5,446.9z"/>
		<path fill-rule="evenodd" clip-rule="evenodd" fill="#FFFFFF" d="M168.6,330.3c-8.1-1.9-14.8-5.8-20.2-11.8
			c-6.6-7.3-10.2-15.9-10-25.8c0.1-5.6,0.3-11.3,1.6-16.6c3.5-13.5,15.8-24.6,28.6-26.7C168.6,276.3,168.6,303.1,168.6,330.3z"/>
		<path fill-rule="evenodd" clip-rule="evenodd" fill="#FFFFFF" d="M176.6,331.4c-2-0.2-3.7-0.4-5.7-0.6c0-1.2,0-2.3,0-3.3
			c0-24.8,0-49.6,0-74.4c0-5,0.4-5.3,5.7-4.6C176.6,276,176.6,303.5,176.6,331.4z"/>
		<path fill-rule="evenodd" clip-rule="evenodd" fill="#FFFFFF" d="M364,263c-5.9,0-11.6,0-17.5,0c0-2.1,0-3.9,0-6.1
			c5.8,0,11.6,0,17.5,0C364,258.9,364,260.8,364,263z"/>
		<path fill-rule="evenodd" clip-rule="evenodd" fill="#FFFFFF" d="M346.5,271.5c0-2.1,0-3.9,0-6c5.8,0,11.6,0,17.5,0
			c0,1.9,0,3.9,0,6C358.2,271.5,352.5,271.5,346.5,271.5z"/>
		<path fill-rule="evenodd" clip-rule="evenodd" fill="#FFFFFF" d="M346.6,282.3c5.9,0,11.6,0,17.4,0c0,2.1,0,3.9,0,6.1
			c-5.7,0-11.5,0-17.4,0C346.6,286.5,346.6,284.5,346.6,282.3z"/>
		<path fill-rule="evenodd" clip-rule="evenodd" fill="#FFFFFF" d="M364,290.8c0,2.1,0,4,0,6.1c-5.8,0-11.6,0-17.4,0
			c0-2.1,0-4,0-6.1C352.4,290.8,358.1,290.8,364,290.8z"/>
		<path fill-rule="evenodd" clip-rule="evenodd" fill="#FFFFFF" d="M346.6,305.4c0-2,0-3.9,0-6c5.8,0,11.6,0,17.4,0c0,2,0,3.9,0,6
			C358.3,305.4,352.6,305.4,346.6,305.4z"/>
		<path fill-rule="evenodd" clip-rule="evenodd" fill="#FFFFFF" d="M346.7,307.8c5.9,0,11.5,0,17.3,0c0,2,0,3.9,0,6
			c-5.7,0-11.4,0-17.3,0C346.7,311.9,346.7,310,346.7,307.8z"/>
		<path fill-rule="evenodd" clip-rule="evenodd" fill="#FFFFFF" d="M346.6,322.3c0-2,0-3.9,0-6c5.8,0,11.6,0,17.4,0c0,2,0,3.9,0,6
			C358.3,322.3,352.6,322.3,346.6,322.3z"/>
		<path fill-rule="evenodd" clip-rule="evenodd" fill="#FFFFFF" d="M346.6,273.9c5.8,0,11.5,0,17.4,0c0,2.1,0,4,0,6.1
			c-5.8,0-11.5,0-17.4,0C346.6,278,346.6,276,346.6,273.9z"/>
		<path fill-rule="evenodd" clip-rule="evenodd" fill="#FFFFFF" d="M364,248.4c0,2.1,0,3.9,0,6.1c-5.8,0-11.5,0-17.4,0
			c0-2,0-3.9,0-6.1C352.5,248.4,358.2,248.4,364,248.4z"/>
		<path fill-rule="evenodd" clip-rule="evenodd" fill="#FFFFFF" d="M178.9,330.8c0-2.1,0-4,0-6.1c5.8,0,11.5,0,17.4,0
			c0,2,0,3.9,0,6.1C190.6,330.8,184.9,330.8,178.9,330.8z"/>
		<path fill-rule="evenodd" clip-rule="evenodd" fill="#FFFFFF" d="M178.9,263c-0.1-2.2-0.2-4.2-0.4-6.3c5.9,0,11.7,0,17.7,0
			c0,2.2,0,4.1,0,6.3C190.5,263,184.8,263,178.9,263z"/>
		<path fill-rule="evenodd" clip-rule="evenodd" fill="#FFFFFF" d="M179,265.4c5.7,0,11.4,0,17.2,0c0,2,0,4,0,6.2
			c-5.7,0-11.3,0-17.2,0C179,269.6,179,267.6,179,265.4z"/>
		<path fill-rule="evenodd" clip-rule="evenodd" fill="#FFFFFF" d="M178.9,297c0-2,0-3.9,0-6c5.7,0,11.4,0,17.3,0c0,1.9,0,3.9,0,6
			C190.5,297,184.8,297,178.9,297z"/>
		<path fill-rule="evenodd" clip-rule="evenodd" fill="#FFFFFF" d="M196.3,299.3c0,2.1,0,4,0,6.1c-5.8,0-11.5,0-17.4,0
			c0-2,0-4,0-6.1C184.7,299.3,190.3,299.3,196.3,299.3z"/>
		<path fill-rule="evenodd" clip-rule="evenodd" fill="#FFFFFF" d="M178.9,288.4c0-2,0-3.9,0-6c5.7,0,11.4,0,17.3,0c0,1.9,0,3.9,0,6
			C190.5,288.4,184.8,288.4,178.9,288.4z"/>
		<path fill-rule="evenodd" clip-rule="evenodd" fill="#FFFFFF" d="M196.3,273.9c0,2.1,0,4,0,6.1c-5.8,0-11.5,0-17.3,0
			c0-2,0-4,0-6.1C184.7,273.9,190.3,273.9,196.3,273.9z"/>
		<path fill-rule="evenodd" clip-rule="evenodd" fill="#FFFFFF" d="M196.3,316.3c0,2.1,0,4,0,6.1c-5.8,0-11.5,0-17.4,0
			c0-2,0-4,0-6.1C184.7,316.3,190.3,316.3,196.3,316.3z"/>
		<path fill-rule="evenodd" clip-rule="evenodd" fill="#FFFFFF" d="M178.9,313.9c0-2.2,0-4.1,0-6.1c5.8,0,11.4,0,17.3,0
			c0,2,0,4,0,6.1C190.5,313.9,184.8,313.9,178.9,313.9z"/>
		<path fill-rule="evenodd" clip-rule="evenodd" fill="#FFFFFF" d="M178.9,254.5c-0.1-0.6-0.1-1.1-0.1-1.6c0-1.4,0-2.8,0-4.4
			c5.9,0,11.6,0,17.4,0c0,1.9,0,3.9,0,6C190.4,254.5,184.7,254.5,178.9,254.5z"/>
		<path fill-rule="evenodd" clip-rule="evenodd" fill="#FFFFFF" d="M179,333.3c5.7,0,11.4,0,17.2,0c-0.1,3.2-2.1,5.7-5.1,5.9
			c-2.3,0.2-4.5,0.2-6.8,0C181.1,339,179.1,336.7,179,333.3z"/>
		<path fill-rule="evenodd" clip-rule="evenodd" fill="#FFFFFF" d="M196.2,246.1c-5.8,0-11.5,0-17.1,0c0-3.4,2.3-5.6,5.8-5.8
			C192.6,239.7,195.4,241.1,196.2,246.1z"/>
		<path fill-rule="evenodd" clip-rule="evenodd" fill="#FFFFFF" d="M346.8,246c0.2-3.6,2.5-5.7,6.2-5.8c7.9-0.3,10.4,1,11,5.8
			C358.2,246,352.5,246,346.8,246z"/>
		<path fill-rule="evenodd" clip-rule="evenodd" fill="#FFFFFF" d="M474.5,394.5c0.1,1.5,0.1,2.7,0.3,4.9c-1.5-1.4-2.5-2.4-3.9-3.6
			C472.4,395.2,473.3,394.9,474.5,394.5z"/>
		<path fill-rule="evenodd" clip-rule="evenodd" fill="#FFFFFF" d="M469.1,403.6c-1.2-0.2-2.3-0.4-3.5-0.6c0.2-0.5,0.4-1.5,0.5-1.5
			c1.1,0.1,2.2,0.4,3.3,0.7C469.3,402.7,469.2,403.2,469.1,403.6z"/>
		<path fill-rule="evenodd" clip-rule="evenodd" fill="#FFFFFF" d="M174.3,109.9c2.4-1.3,4.5-3.4,7.1-2c1.2,0.7,2.2,2.8,2.3,4.3
			c0.2,3.1-2.5,4-5,5.3C177.3,115.1,175.9,112.6,174.3,109.9z"/>
		<path fill-rule="evenodd" clip-rule="evenodd" fill="#FFFFFF" d="M232.3,447.6c0.1-2,0.3-3.9,0.4-6.6c1.6,0.6,3.4,0.7,4.1,1.7
			c0.6,0.8,0.5,2.9-0.1,3.8c-0.7,1-2.5,1.3-3.8,1.9C232.8,448.2,232.5,447.9,232.3,447.6z"/>
		<path fill-rule="evenodd" clip-rule="evenodd" fill="#FFFFFF" d="M247.4,450c-1.5,0-2.5,0-4,0c0.7-2,1.3-3.8,2.2-6.3
			C246.3,446.3,246.8,448.1,247.4,450z"/>
		<path fill-rule="evenodd" clip-rule="evenodd" fill="#FFFFFF" d="M146,129.7c4.1-4.1,6.4-4.6,8.7-2c2.4,2.7,1.5,5.3-3.2,8.6
			C149.7,134.1,147.9,131.9,146,129.7z"/>
		<path fill-rule="evenodd" clip-rule="evenodd" fill="#FFFFFF" d="M332.9,453.4c-0.2-2.9-0.3-4.7-0.4-7.3c2,0.7,3.7,0.9,5,1.8
			c0.6,0.5,0.8,2.7,0.3,3.2C336.6,452.1,334.9,452.5,332.9,453.4z"/>
		<path fill-rule="evenodd" clip-rule="evenodd" fill="#FFFFFF" d="M332.4,445.9c-0.2-2.5-0.4-4.1-0.6-6.5c1.8,0.4,3.3,0.4,4.5,1.2
			c0.5,0.3,0.7,2.4,0.2,3C335.5,444.6,334,445,332.4,445.9z"/>
		<path fill-rule="evenodd" clip-rule="evenodd" fill="#FFFFFF" d="M308.7,447.3c0.3-1.7,0.3-3.2,0.9-4.4c0.4-0.9,1.6-1.9,2.5-1.9
			c1,0,2.5,0.8,2.9,1.7c1.5,3.3,1.8,6.8,0.6,10.2c-0.3,0.9-1.6,1.9-2.5,1.9c-1,0-2.5-0.8-2.9-1.7
			C309.3,451.2,309.1,449.1,308.7,447.3z"/>
		<path fill-rule="evenodd" clip-rule="evenodd" fill="#FFFFFF" d="M366.4,444c0.4-2.2,0.6-4,1.1-6.6c1.2,2.3,2,4,2.9,5.9
			C369.1,443.5,367.9,443.7,366.4,444z"/>
		<path fill-rule="evenodd" clip-rule="evenodd" fill="#FFFFFF" d="M190.4,439.8c0.3,1.8,0.7,3.6,1,5.7c-1.3-0.1-2.5-0.2-4-0.4
			c0.9-2,1.7-3.7,2.4-5.4C190,439.7,190.2,439.8,190.4,439.8z"/>
	</g>
</g>
<rect id="_x3C_Slice_x3E_" x="-182.2" y="-270.8" fill="none" width="1" height="73"/>
<rect id="_x3C_Slice_x3E__1_" x="-232.2" y="-309.8" fill="none" width="996" height="903"/>
<rect id="_x3C_Slice_x3E__2_" x="762.8" y="592.2" fill="none" width="2" height="15"/>
<rect id="_x3C_Slice_x3E__3_" x="-230.2" y="-308.8" fill="none" width="992" height="947"/>
<rect id="_x3C_Slice_x3E__4_" x="-29.5" y="-215.1" fill="none" width="7.5" height="1.5"/>
</svg>
