<?xml version="1.0" encoding="utf-8"?>
<!-- Generator: Adobe Illustrator 16.0.0, SVG Export Plug-In . SVG Version: 6.00 Build 0)  -->
<!DOCTYPE svg PUBLIC "-//W3C//DTD SVG 1.1//EN" "http://www.w3.org/Graphics/SVG/1.1/DTD/svg11.dtd">
<svg version="1.1" id="Layer_1" xmlns="http://www.w3.org/2000/svg" xmlns:xlink="http://www.w3.org/1999/xlink" x="0px" y="0px"
	 width="105.4px" height="33.5px" viewBox="0 0 105.4 33.5" enable-background="new 0 0 105.4 33.5" xml:space="preserve">
<g>
	<path fill-rule="evenodd" clip-rule="evenodd" fill="#FFFFFF" d="M45.2,5.8c1,0,2-0.1,3,0c0.3,0,0.8,0.5,0.9,0.9
		c1.7,4.2,3.3,8.5,4.9,12.7c0.1,0.3,0.3,0.5,0.5,0.8c-0.1-4.7-0.3-9.5-0.4-14.3c1.3,0,2.4,0,3.6,0c0,7.1,0,14.2,0,21.5
		c-1.1,0-2.1,0.1-3.2,0c-0.3,0-0.6-0.5-0.8-0.8c-1.7-4.3-3.3-8.6-4.9-12.9c-0.1-0.2-0.2-0.3-0.3-0.6c0,4.9,0,9.5,0,14.3
		c-1,0-2.2,0-3.4,0C45.2,20.1,45.2,13,45.2,5.8z"/>
	<path fill-rule="evenodd" clip-rule="evenodd" fill="#FFFFFF" d="M60.6,5.8c1.4,0,2.6,0,4,0c0,0.5,0,0.9,0,1.3c0,4.2,0,8.5,0,12.7
		c0,0.9,0.2,1.7,0.4,2.6c0.2,0.9,0.8,1.6,1.9,1.6c1.1,0,1.6-0.6,1.8-1.6c0.2-0.7,0.2-1.3,0.3-2c0-4.4,0-8.8,0-13.2
		c0-0.4,0-0.9,0-1.4c1.4,0,2.6,0,4,0c0,0.3,0.1,0.6,0.1,0.9c0,4.3,0.1,8.6,0,12.8c0,1.6-0.4,3.2-0.9,4.6c-0.8,2.2-2.9,3.4-5.3,3.3
		c-2.8-0.1-4.7-1.3-5.4-3.7c-0.4-1.5-0.7-3-0.7-4.6c-0.1-4.3,0-8.6,0-12.8C60.5,6.2,60.6,6.1,60.6,5.8z"/>
	<path fill-rule="evenodd" clip-rule="evenodd" fill="#FFFFFF" d="M17.9,5.8c1.5,0,2.9,0,4.4,0c0.9,5.5,1.8,11,2.7,16.5
		c0.1,0,0.1,0,0.2,0c0.8-5.5,1.7-10.9,2.5-16.4c1.5,0,2.9,0,4.4,0c-1,4.3-2,8.7-3,13c-0.6,2.6-1.2,5.1-1.7,7.7
		c-0.1,0.6-0.4,0.9-1,0.8c-1.2,0-2.4,0-3.7,0C21.1,20.1,19.5,13,17.9,5.8z"/>
	<path fill-rule="evenodd" clip-rule="evenodd" fill="#FFFFFF" d="M33.4,5.9c3,0,5.9,0,9,0c0,1.1,0,2.2,0,3.4c-1.6,0-3.2,0-4.9,0
		c0,1.7,0,3.4,0,5.1c1.5,0,3.1,0,4.7,0c0,1.2,0,2.2,0,3.3c-1.5,0-3.1,0-4.7,0c0,2.1,0,4,0,6c1.8,0,3.5,0,5.4,0c0,1.2,0,2.3,0,3.5
		c-3.1,0-6.2,0-9.4,0C33.4,20.1,33.4,13,33.4,5.9z"/>
	<path fill-rule="evenodd" clip-rule="evenodd" fill="#FFFFFF" d="M76.1,5.9c3,0,5.9,0,9,0c0,1.1,0,2.2,0,3.4c-1.6,0-3.2,0-4.9,0
		c0,1.7,0,3.4,0,5.1c1.5,0,3.1,0,4.7,0c0,1.2,0,2.2,0,3.3c-1.5,0-3.1,0-4.7,0c0,2.1,0,4,0,6c1.8,0,3.5,0,5.4,0c0,1.2,0,2.3,0,3.5
		c-3.1,0-6.2,0-9.4,0C76.1,20.1,76.1,13,76.1,5.9z"/>
</g>
</svg>
